<svg width="45" height="45" viewBox="0 0 45 45" fill="none" xmlns="http://www.w3.org/2000/svg">
<path d="M43.9672 11.7664H1.03279C0.442623 11.7664 0 12.209 0 12.7991V32.7172C0 33.3073 0.442623 33.75 1.03279 33.75H43.8934C44.4836 33.75 44.9262 33.3073 44.9262 32.7172V12.7991C45 12.209 44.5574 11.7664 43.9672 11.7664Z" fill="#1E1D34"/>
<path d="M43.9672 11.25H1.03279C0.442623 11.25 0 11.6926 0 12.2828V32.2008C0 32.791 0.442623 33.2336 1.03279 33.2336H43.8934C44.4836 33.2336 44.9262 32.791 44.9262 32.2008V12.2828C45 11.6926 44.5574 11.25 43.9672 11.25Z" fill="#B1DDB7"/>
<path d="M43.9672 33.3073C44.5574 33.3073 45 32.8647 45 32.2746V12.3565C45 11.7664 44.5574 11.3237 43.9672 11.3237H1.03279C0.442623 11.3237 0 11.7664 0 12.3565" fill="#434255"/>
<path d="M42.7864 17.2255C40.7946 17.2255 39.1716 15.6025 39.1716 13.6107C39.1716 13.4632 39.1716 13.3156 39.2454 13.1681H5.82736C5.82736 13.3156 5.90113 13.4632 5.90113 13.6107C5.90113 15.6025 4.27818 17.2255 2.28637 17.2255C2.13883 17.2255 1.99129 17.2255 1.84375 17.1517V27.332C1.99129 27.332 2.13883 27.2582 2.28637 27.2582C4.27818 27.2582 5.90113 28.8812 5.90113 30.873C5.90113 31.0205 5.90113 31.1681 5.82736 31.2418H39.0979C39.0979 31.0943 39.0241 30.9468 39.0241 30.873C39.0241 28.8812 40.647 27.2582 42.6388 27.2582C42.7864 27.2582 42.9339 27.2582 43.0815 27.332V17.1517C43.0077 17.2255 42.9339 17.2255 42.7864 17.2255Z" fill="#BDBD13"/>
<path d="M39.0983 13.5369C39.0983 13.3893 39.0982 13.2418 39.172 13.0942H5.82776C5.82776 13.2418 5.90153 13.3893 5.90153 13.5369C5.90153 14.0533 5.82776 14.4959 5.60645 14.9385L39.0983 30.9467C39.0983 28.9549 40.7212 27.3319 42.713 27.3319C42.8605 27.3319 43.0081 27.3319 43.1556 27.4057V17.1516C43.0081 17.1516 42.8605 17.2254 42.713 17.2254C40.7212 17.2254 39.0983 15.6024 39.0983 13.5369Z" fill="#BDBD13"/>
<path d="M2.06559 15.6024C1.91805 15.6024 1.77051 15.4549 1.77051 15.3073C1.77051 15.1598 1.91805 15.0122 2.06559 15.0122C3.02461 15.0122 3.83608 14.2008 3.83608 13.2417C3.83608 13.0942 3.98362 12.9467 4.13116 12.9467C4.2787 12.9467 4.42624 13.0942 4.42624 13.2417C4.35247 14.6434 3.39346 15.6024 2.06559 15.6024Z" fill="#BDBD13"/>
<path d="M4.35292 31.168C4.35292 31.3155 4.20538 31.4631 4.05784 31.4631C3.9103 31.4631 3.76276 31.3155 3.76276 31.168C3.76276 30.209 2.95128 29.3975 1.99227 29.3975C1.99227 29.4713 1.84473 29.3237 1.84473 29.1762C1.84473 29.0286 1.99227 28.8811 2.13981 28.8811C3.39391 28.8811 4.35292 29.9139 4.35292 31.168Z" fill="#BDBD13"/>
<path d="M42.9349 28.8811C43.0824 28.8811 43.23 29.0286 43.23 29.1762C43.23 29.3237 43.0824 29.4713 42.9349 29.4713C41.9759 29.4713 41.1644 30.2827 41.1644 31.2418C41.1644 31.3893 41.0168 31.5368 40.8693 31.5368C40.7218 31.5368 40.5742 31.3893 40.5742 31.2418C40.648 29.9139 41.607 28.8811 42.9349 28.8811Z" fill="#BDBD13"/>
<path d="M40.6475 13.3893C40.6475 13.2418 40.795 13.0942 40.9425 13.0942C41.0901 13.0942 41.2376 13.2418 41.2376 13.3893C41.2376 14.3483 42.0491 15.1598 43.0081 15.1598C43.1557 15.1598 43.3032 15.3074 43.3032 15.4549C43.3032 15.6024 43.1557 15.75 43.0081 15.75C41.6065 15.6024 40.6475 14.6434 40.6475 13.3893Z" fill="#BDBD13"/>
<path d="M22.5 29.4713C26.4928 29.4713 29.7295 26.2346 29.7295 22.2418C29.7295 18.2491 26.4928 15.0123 22.5 15.0123C18.5073 15.0123 15.2705 18.2491 15.2705 22.2418C15.2705 26.2346 18.5073 29.4713 22.5 29.4713Z" fill="#1E1D34"/>
<path d="M22.5004 29.5451C25.6725 29.5451 28.402 27.4795 29.361 24.6025L27.0004 22.2418C26.484 21.7254 25.525 21.7254 25.0086 22.2418L24.4922 22.7582L21.6889 19.9549C21.1725 19.4385 20.2135 19.4385 19.6971 19.9549L15.4922 24.1598C16.3774 27.2582 19.1807 29.5451 22.5004 29.5451Z" fill="#434255"/>
<path d="M25.9676 23.2745C26.484 22.7581 27.3692 22.7581 27.9594 23.2745L27.0004 22.3155C26.484 21.7991 25.525 21.7991 25.0086 22.3155L24.4922 22.8319L25.4512 23.7909L25.9676 23.2745Z" fill="#1E1D34"/>
<path d="M16.4512 25.1926L20.6561 20.9877C21.1725 20.4713 22.1315 20.4713 22.6479 20.9877L21.6889 20.0287C21.1725 19.5123 20.2135 19.5123 19.6971 20.0287L15.4922 24.2336C15.861 25.709 16.7463 26.9631 17.8528 27.8483C17.1889 27.1106 16.7463 26.1516 16.4512 25.1926Z" fill="#1E1D34"/>
<path d="M22.5004 30.2091C18.0742 30.2091 14.5332 26.6681 14.5332 22.2419C14.5332 17.8156 18.0742 14.2747 22.5004 14.2747C26.9266 14.2747 30.4676 17.8156 30.4676 22.2419C30.4676 26.6681 26.9266 30.2091 22.5004 30.2091ZM22.5004 15.6763C18.8857 15.6763 15.9348 18.6271 15.9348 22.2419C15.9348 25.8566 18.8857 28.8075 22.5004 28.8075C26.1152 28.8075 29.066 25.8566 29.066 22.2419C29.066 18.6271 26.1152 15.6763 22.5004 15.6763Z" fill="#979797"/>
<path d="M29.3603 26.373C30.098 25.1927 30.4669 23.791 30.4669 22.3156C30.4669 17.8894 26.9259 14.3484 22.4996 14.3484C19.1062 14.3484 16.1554 16.4877 15.0488 19.5123L16.3029 20.1025C17.1882 17.5205 19.6226 15.6763 22.4996 15.6763C26.1144 15.6763 29.0652 18.6271 29.0652 22.2418C29.0652 23.4959 28.6964 24.6763 28.1062 25.709L29.3603 26.373Z" fill="#434255"/>
<path d="M12.8356 22.2418C12.8356 22.3894 12.7618 22.4631 12.6143 22.4631H3.83557C3.68803 22.4631 3.61426 22.3894 3.61426 22.2418C3.61426 22.0943 3.68803 22.0205 3.83557 22.0205H12.6143C12.7618 22.0943 12.8356 22.168 12.8356 22.2418Z" fill="#B1DDB7"/>
<path d="M2.72912 22.4631C2.85135 22.4631 2.95044 22.364 2.95044 22.2418C2.95044 22.1196 2.85135 22.0205 2.72912 22.0205C2.6069 22.0205 2.50781 22.1196 2.50781 22.2418C2.50781 22.364 2.6069 22.4631 2.72912 22.4631Z" fill="#B1DDB7"/>
<path d="M32.1641 22.2418C32.1641 22.0943 32.2378 22.0205 32.3854 22.0205H41.1641C41.3116 22.0205 41.3854 22.0943 41.3854 22.2418C41.3854 22.3894 41.3116 22.4631 41.1641 22.4631H32.3854C32.2378 22.4631 32.1641 22.3894 32.1641 22.2418Z" fill="#B1DDB7"/>
<path d="M42.2701 22.4631C42.3924 22.4631 42.4915 22.364 42.4915 22.2418C42.4915 22.1196 42.3924 22.0205 42.2701 22.0205C42.1479 22.0205 42.0488 22.1196 42.0488 22.2418C42.0488 22.364 42.1479 22.4631 42.2701 22.4631Z" fill="#B1DDB7"/>
<path d="M24.1969 18.7008C23.5329 18.7008 22.9428 18.1106 22.9428 17.4467C22.9428 17.2991 22.9428 17.1516 23.0166 17.004C22.5739 17.1516 22.2051 17.668 22.2051 18.1844C22.2051 18.8483 22.7952 19.4385 23.4592 19.4385C23.9756 19.4385 24.4182 19.1434 24.6395 18.627C24.5657 18.7008 24.4182 18.7008 24.1969 18.7008Z" fill="#434255"/>
<path d="M4.86877 18.6271C4.991 18.6271 5.09008 18.528 5.09008 18.4058C5.09008 18.2835 4.991 18.1844 4.86877 18.1844C4.74655 18.1844 4.64746 18.2835 4.64746 18.4058C4.64746 18.528 4.74655 18.6271 4.86877 18.6271Z" fill="#BDBD13"/>
<path d="M6.04943 18.6271C6.17166 18.6271 6.27075 18.528 6.27075 18.4058C6.27075 18.2835 6.17166 18.1844 6.04943 18.1844C5.92721 18.1844 5.82812 18.2835 5.82812 18.4058C5.82812 18.528 5.92721 18.6271 6.04943 18.6271Z" fill="#BDBD13"/>
<path d="M7.2301 18.6271C7.35233 18.6271 7.45141 18.528 7.45141 18.4058C7.45141 18.2835 7.35233 18.1844 7.2301 18.1844C7.10787 18.1844 7.00879 18.2835 7.00879 18.4058C7.00879 18.528 7.10787 18.6271 7.2301 18.6271Z" fill="#BDBD13"/>
<path d="M8.40979 18.6271C8.53201 18.6271 8.6311 18.528 8.6311 18.4058C8.6311 18.2835 8.53201 18.1844 8.40979 18.1844C8.28756 18.1844 8.18848 18.2835 8.18848 18.4058C8.18848 18.528 8.28756 18.6271 8.40979 18.6271Z" fill="#BDBD13"/>
<path d="M9.81176 18.4058C9.81176 18.5533 9.73799 18.6271 9.59045 18.6271C9.44291 18.6271 9.36914 18.5533 9.36914 18.4058C9.36914 18.2582 9.44291 18.1844 9.59045 18.1844C9.73799 18.1844 9.81176 18.332 9.81176 18.4058Z" fill="#BDBD13"/>
<path d="M10.6969 18.6271C10.8191 18.6271 10.9182 18.528 10.9182 18.4058C10.9182 18.2835 10.8191 18.1844 10.6969 18.1844C10.5747 18.1844 10.4756 18.2835 10.4756 18.4058C10.4756 18.528 10.5747 18.6271 10.6969 18.6271Z" fill="#BDBD13"/>
<path d="M11.8766 18.6271C11.9988 18.6271 12.0979 18.528 12.0979 18.4058C12.0979 18.2835 11.9988 18.1844 11.8766 18.1844C11.7544 18.1844 11.6553 18.2835 11.6553 18.4058C11.6553 18.528 11.7544 18.6271 11.8766 18.6271Z" fill="#BDBD13"/>
<path d="M13.0572 18.6271C13.1795 18.6271 13.2786 18.528 13.2786 18.4058C13.2786 18.2835 13.1795 18.1844 13.0572 18.1844C12.935 18.1844 12.8359 18.2835 12.8359 18.4058C12.8359 18.528 12.935 18.6271 13.0572 18.6271Z" fill="#BDBD13"/>
<path d="M4.86877 19.9549C4.991 19.9549 5.09008 19.8559 5.09008 19.7336C5.09008 19.6114 4.991 19.5123 4.86877 19.5123C4.74655 19.5123 4.64746 19.6114 4.64746 19.7336C4.64746 19.8559 4.74655 19.9549 4.86877 19.9549Z" fill="#BDBD13"/>
<path d="M6.04943 19.9549C6.17166 19.9549 6.27075 19.8559 6.27075 19.7336C6.27075 19.6114 6.17166 19.5123 6.04943 19.5123C5.92721 19.5123 5.82812 19.6114 5.82812 19.7336C5.82812 19.8559 5.92721 19.9549 6.04943 19.9549Z" fill="#BDBD13"/>
<path d="M7.2301 19.9549C7.35233 19.9549 7.45141 19.8559 7.45141 19.7336C7.45141 19.6114 7.35233 19.5123 7.2301 19.5123C7.10787 19.5123 7.00879 19.6114 7.00879 19.7336C7.00879 19.8559 7.10787 19.9549 7.2301 19.9549Z" fill="#BDBD13"/>
<path d="M8.40979 19.9549C8.53201 19.9549 8.6311 19.8559 8.6311 19.7336C8.6311 19.6114 8.53201 19.5123 8.40979 19.5123C8.28756 19.5123 8.18848 19.6114 8.18848 19.7336C8.18848 19.8559 8.28756 19.9549 8.40979 19.9549Z" fill="#BDBD13"/>
<path d="M9.51623 19.9549C9.63846 19.9549 9.73754 19.8559 9.73754 19.7336C9.73754 19.6114 9.63846 19.5123 9.51623 19.5123C9.39401 19.5123 9.29492 19.6114 9.29492 19.7336C9.29492 19.8559 9.39401 19.9549 9.51623 19.9549Z" fill="#BDBD13"/>
<path d="M10.6969 19.9549C10.8191 19.9549 10.9182 19.8559 10.9182 19.7336C10.9182 19.6114 10.8191 19.5123 10.6969 19.5123C10.5747 19.5123 10.4756 19.6114 10.4756 19.7336C10.4756 19.8559 10.5747 19.9549 10.6969 19.9549Z" fill="#BDBD13"/>
<path d="M11.8766 19.9549C11.9988 19.9549 12.0979 19.8559 12.0979 19.7336C12.0979 19.6114 11.9988 19.5123 11.8766 19.5123C11.7544 19.5123 11.6553 19.6114 11.6553 19.7336C11.6553 19.8559 11.7544 19.9549 11.8766 19.9549Z" fill="#BDBD13"/>
<path d="M13.0572 19.9549C13.1795 19.9549 13.2786 19.8559 13.2786 19.7336C13.2786 19.6114 13.1795 19.5123 13.0572 19.5123C12.935 19.5123 12.8359 19.6114 12.8359 19.7336C12.8359 19.8559 12.935 19.9549 13.0572 19.9549Z" fill="#BDBD13"/>
<path d="M4.86877 21.209C4.991 21.209 5.09008 21.1099 5.09008 20.9877C5.09008 20.8654 4.991 20.7664 4.86877 20.7664C4.74655 20.7664 4.64746 20.8654 4.64746 20.9877C4.64746 21.1099 4.74655 21.209 4.86877 21.209Z" fill="#BDBD13"/>
<path d="M6.04943 21.209C6.17166 21.209 6.27075 21.1099 6.27075 20.9877C6.27075 20.8654 6.17166 20.7664 6.04943 20.7664C5.92721 20.7664 5.82812 20.8654 5.82812 20.9877C5.82812 21.1099 5.92721 21.209 6.04943 21.209Z" fill="#BDBD13"/>
<path d="M7.2301 21.209C7.35233 21.209 7.45141 21.1099 7.45141 20.9877C7.45141 20.8654 7.35233 20.7664 7.2301 20.7664C7.10787 20.7664 7.00879 20.8654 7.00879 20.9877C7.00879 21.1099 7.10787 21.209 7.2301 21.209Z" fill="#BDBD13"/>
<path d="M8.40979 21.209C8.53201 21.209 8.6311 21.1099 8.6311 20.9877C8.6311 20.8654 8.53201 20.7664 8.40979 20.7664C8.28756 20.7664 8.18848 20.8654 8.18848 20.9877C8.18848 21.1099 8.28756 21.209 8.40979 21.209Z" fill="#BDBD13"/>
<path d="M9.51623 21.209C9.63846 21.209 9.73754 21.1099 9.73754 20.9877C9.73754 20.8654 9.63846 20.7664 9.51623 20.7664C9.39401 20.7664 9.29492 20.8654 9.29492 20.9877C9.29492 21.1099 9.39401 21.209 9.51623 21.209Z" fill="#BDBD13"/>
<path d="M10.6969 21.209C10.8191 21.209 10.9182 21.1099 10.9182 20.9877C10.9182 20.8654 10.8191 20.7664 10.6969 20.7664C10.5747 20.7664 10.4756 20.8654 10.4756 20.9877C10.4756 21.1099 10.5747 21.209 10.6969 21.209Z" fill="#BDBD13"/>
<path d="M11.8766 21.209C11.9988 21.209 12.0979 21.1099 12.0979 20.9877C12.0979 20.8654 11.9988 20.7664 11.8766 20.7664C11.7544 20.7664 11.6553 20.8654 11.6553 20.9877C11.6553 21.1099 11.7544 21.209 11.8766 21.209Z" fill="#BDBD13"/>
<path d="M13.0572 21.209C13.1795 21.209 13.2786 21.1099 13.2786 20.9877C13.2786 20.8654 13.1795 20.7664 13.0572 20.7664C12.935 20.7664 12.8359 20.8654 12.8359 20.9877C12.8359 21.1099 12.935 21.209 13.0572 21.209Z" fill="#BDBD13"/>
<path d="M4.86877 23.7173C4.991 23.7173 5.09008 23.6182 5.09008 23.496C5.09008 23.3737 4.991 23.2747 4.86877 23.2747C4.74655 23.2747 4.64746 23.3737 4.64746 23.496C4.64746 23.6182 4.74655 23.7173 4.86877 23.7173Z" fill="#BDBD13"/>
<path d="M6.04943 23.7173C6.17166 23.7173 6.27075 23.6182 6.27075 23.496C6.27075 23.3737 6.17166 23.2747 6.04943 23.2747C5.92721 23.2747 5.82812 23.3737 5.82812 23.496C5.82812 23.6182 5.92721 23.7173 6.04943 23.7173Z" fill="#BDBD13"/>
<path d="M7.2301 23.7173C7.35233 23.7173 7.45141 23.6182 7.45141 23.496C7.45141 23.3737 7.35233 23.2747 7.2301 23.2747C7.10787 23.2747 7.00879 23.3737 7.00879 23.496C7.00879 23.6182 7.10787 23.7173 7.2301 23.7173Z" fill="#BDBD13"/>
<path d="M8.40979 23.7173C8.53201 23.7173 8.6311 23.6182 8.6311 23.496C8.6311 23.3737 8.53201 23.2747 8.40979 23.2747C8.28756 23.2747 8.18848 23.3737 8.18848 23.496C8.18848 23.6182 8.28756 23.7173 8.40979 23.7173Z" fill="#BDBD13"/>
<path d="M9.81176 23.496C9.81176 23.6435 9.73799 23.7173 9.59045 23.7173C9.44291 23.7173 9.36914 23.6435 9.36914 23.496C9.36914 23.3484 9.44291 23.2747 9.59045 23.2747C9.73799 23.2747 9.81176 23.4222 9.81176 23.496Z" fill="#BDBD13"/>
<path d="M10.6969 23.7173C10.8191 23.7173 10.9182 23.6182 10.9182 23.496C10.9182 23.3737 10.8191 23.2747 10.6969 23.2747C10.5747 23.2747 10.4756 23.3737 10.4756 23.496C10.4756 23.6182 10.5747 23.7173 10.6969 23.7173Z" fill="#BDBD13"/>
<path d="M11.8766 23.7173C11.9988 23.7173 12.0979 23.6182 12.0979 23.496C12.0979 23.3737 11.9988 23.2747 11.8766 23.2747C11.7544 23.2747 11.6553 23.3737 11.6553 23.496C11.6553 23.6182 11.7544 23.7173 11.8766 23.7173Z" fill="#BDBD13"/>
<path d="M13.0572 23.7173C13.1795 23.7173 13.2786 23.6182 13.2786 23.496C13.2786 23.3737 13.1795 23.2747 13.0572 23.2747C12.935 23.2747 12.8359 23.3737 12.8359 23.496C12.8359 23.6182 12.935 23.7173 13.0572 23.7173Z" fill="#BDBD13"/>
<path d="M4.86877 25.0452C4.991 25.0452 5.09008 24.9461 5.09008 24.8239C5.09008 24.7016 4.991 24.6025 4.86877 24.6025C4.74655 24.6025 4.64746 24.7016 4.64746 24.8239C4.64746 24.9461 4.74655 25.0452 4.86877 25.0452Z" fill="#BDBD13"/>
<path d="M6.04943 25.0452C6.17166 25.0452 6.27075 24.9461 6.27075 24.8239C6.27075 24.7016 6.17166 24.6025 6.04943 24.6025C5.92721 24.6025 5.82812 24.7016 5.82812 24.8239C5.82812 24.9461 5.92721 25.0452 6.04943 25.0452Z" fill="#BDBD13"/>
<path d="M7.2301 25.0452C7.35233 25.0452 7.45141 24.9461 7.45141 24.8239C7.45141 24.7016 7.35233 24.6025 7.2301 24.6025C7.10787 24.6025 7.00879 24.7016 7.00879 24.8239C7.00879 24.9461 7.10787 25.0452 7.2301 25.0452Z" fill="#BDBD13"/>
<path d="M8.40979 25.0452C8.53201 25.0452 8.6311 24.9461 8.6311 24.8239C8.6311 24.7016 8.53201 24.6025 8.40979 24.6025C8.28756 24.6025 8.18848 24.7016 8.18848 24.8239C8.18848 24.9461 8.28756 25.0452 8.40979 25.0452Z" fill="#BDBD13"/>
<path d="M9.51623 25.0452C9.63846 25.0452 9.73754 24.9461 9.73754 24.8239C9.73754 24.7016 9.63846 24.6025 9.51623 24.6025C9.39401 24.6025 9.29492 24.7016 9.29492 24.8239C9.29492 24.9461 9.39401 25.0452 9.51623 25.0452Z" fill="#BDBD13"/>
<path d="M10.6969 25.0452C10.8191 25.0452 10.9182 24.9461 10.9182 24.8239C10.9182 24.7016 10.8191 24.6025 10.6969 24.6025C10.5747 24.6025 10.4756 24.7016 10.4756 24.8239C10.4756 24.9461 10.5747 25.0452 10.6969 25.0452Z" fill="#BDBD13"/>
<path d="M11.8766 25.0452C11.9988 25.0452 12.0979 24.9461 12.0979 24.8239C12.0979 24.7016 11.9988 24.6025 11.8766 24.6025C11.7544 24.6025 11.6553 24.7016 11.6553 24.8239C11.6553 24.9461 11.7544 25.0452 11.8766 25.0452Z" fill="#BDBD13"/>
<path d="M13.0572 25.0452C13.1795 25.0452 13.2786 24.9461 13.2786 24.8239C13.2786 24.7016 13.1795 24.6025 13.0572 24.6025C12.935 24.6025 12.8359 24.7016 12.8359 24.8239C12.8359 24.9461 12.935 25.0452 13.0572 25.0452Z" fill="#BDBD13"/>
<path d="M4.86877 26.2992C4.991 26.2992 5.09008 26.2001 5.09008 26.0779C5.09008 25.9557 4.991 25.8566 4.86877 25.8566C4.74655 25.8566 4.64746 25.9557 4.64746 26.0779C4.64746 26.2001 4.74655 26.2992 4.86877 26.2992Z" fill="#BDBD13"/>
<path d="M6.04943 26.2992C6.17166 26.2992 6.27075 26.2001 6.27075 26.0779C6.27075 25.9557 6.17166 25.8566 6.04943 25.8566C5.92721 25.8566 5.82812 25.9557 5.82812 26.0779C5.82812 26.2001 5.92721 26.2992 6.04943 26.2992Z" fill="#BDBD13"/>
<path d="M7.2301 26.2992C7.35233 26.2992 7.45141 26.2001 7.45141 26.0779C7.45141 25.9557 7.35233 25.8566 7.2301 25.8566C7.10787 25.8566 7.00879 25.9557 7.00879 26.0779C7.00879 26.2001 7.10787 26.2992 7.2301 26.2992Z" fill="#BDBD13"/>
<path d="M8.40979 26.2992C8.53201 26.2992 8.6311 26.2001 8.6311 26.0779C8.6311 25.9557 8.53201 25.8566 8.40979 25.8566C8.28756 25.8566 8.18848 25.9557 8.18848 26.0779C8.18848 26.2001 8.28756 26.2992 8.40979 26.2992Z" fill="#BDBD13"/>
<path d="M9.51623 26.2992C9.63846 26.2992 9.73754 26.2001 9.73754 26.0779C9.73754 25.9557 9.63846 25.8566 9.51623 25.8566C9.39401 25.8566 9.29492 25.9557 9.29492 26.0779C9.29492 26.2001 9.39401 26.2992 9.51623 26.2992Z" fill="#BDBD13"/>
<path d="M10.6969 26.2992C10.8191 26.2992 10.9182 26.2001 10.9182 26.0779C10.9182 25.9557 10.8191 25.8566 10.6969 25.8566C10.5747 25.8566 10.4756 25.9557 10.4756 26.0779C10.4756 26.2001 10.5747 26.2992 10.6969 26.2992Z" fill="#BDBD13"/>
<path d="M11.8766 26.2992C11.9988 26.2992 12.0979 26.2001 12.0979 26.0779C12.0979 25.9557 11.9988 25.8566 11.8766 25.8566C11.7544 25.8566 11.6553 25.9557 11.6553 26.0779C11.6553 26.2001 11.7544 26.2992 11.8766 26.2992Z" fill="#BDBD13"/>
<path d="M13.0572 26.2992C13.1795 26.2992 13.2786 26.2001 13.2786 26.0779C13.2786 25.9557 13.1795 25.8566 13.0572 25.8566C12.935 25.8566 12.8359 25.9557 12.8359 26.0779C12.8359 26.2001 12.935 26.2992 13.0572 26.2992Z" fill="#BDBD13"/>
<path d="M31.943 18.6271C32.0652 18.6271 32.1643 18.528 32.1643 18.4058C32.1643 18.2835 32.0652 18.1844 31.943 18.1844C31.8208 18.1844 31.7217 18.2835 31.7217 18.4058C31.7217 18.528 31.8208 18.6271 31.943 18.6271Z" fill="#BDBD13"/>
<path d="M33.1227 18.6271C33.2449 18.6271 33.344 18.528 33.344 18.4058C33.344 18.2835 33.2449 18.1844 33.1227 18.1844C33.0005 18.1844 32.9014 18.2835 32.9014 18.4058C32.9014 18.528 33.0005 18.6271 33.1227 18.6271Z" fill="#BDBD13"/>
<path d="M34.3033 18.6271C34.4256 18.6271 34.5247 18.528 34.5247 18.4058C34.5247 18.2835 34.4256 18.1844 34.3033 18.1844C34.1811 18.1844 34.082 18.2835 34.082 18.4058C34.082 18.528 34.1811 18.6271 34.3033 18.6271Z" fill="#BDBD13"/>
<path d="M35.484 18.6271C35.6062 18.6271 35.7053 18.528 35.7053 18.4058C35.7053 18.2835 35.6062 18.1844 35.484 18.1844C35.3618 18.1844 35.2627 18.2835 35.2627 18.4058C35.2627 18.528 35.3618 18.6271 35.484 18.6271Z" fill="#BDBD13"/>
<path d="M36.885 18.4058C36.885 18.5533 36.8112 18.6271 36.6637 18.6271C36.5162 18.6271 36.4424 18.5533 36.4424 18.4058C36.4424 18.2582 36.5162 18.1844 36.6637 18.1844C36.7375 18.1844 36.885 18.332 36.885 18.4058Z" fill="#BDBD13"/>
<path d="M37.7701 18.6271C37.8924 18.6271 37.9914 18.528 37.9914 18.4058C37.9914 18.2835 37.8924 18.1844 37.7701 18.1844C37.6479 18.1844 37.5488 18.2835 37.5488 18.4058C37.5488 18.528 37.6479 18.6271 37.7701 18.6271Z" fill="#BDBD13"/>
<path d="M38.9508 18.6271C39.073 18.6271 39.1721 18.528 39.1721 18.4058C39.1721 18.2835 39.073 18.1844 38.9508 18.1844C38.8286 18.1844 38.7295 18.2835 38.7295 18.4058C38.7295 18.528 38.8286 18.6271 38.9508 18.6271Z" fill="#BDBD13"/>
<path d="M40.1305 18.6271C40.2527 18.6271 40.3518 18.528 40.3518 18.4058C40.3518 18.2835 40.2527 18.1844 40.1305 18.1844C40.0083 18.1844 39.9092 18.2835 39.9092 18.4058C39.9092 18.528 40.0083 18.6271 40.1305 18.6271Z" fill="#BDBD13"/>
<path d="M31.943 19.9549C32.0652 19.9549 32.1643 19.8559 32.1643 19.7336C32.1643 19.6114 32.0652 19.5123 31.943 19.5123C31.8208 19.5123 31.7217 19.6114 31.7217 19.7336C31.7217 19.8559 31.8208 19.9549 31.943 19.9549Z" fill="#BDBD13"/>
<path d="M33.1227 19.9549C33.2449 19.9549 33.344 19.8559 33.344 19.7336C33.344 19.6114 33.2449 19.5123 33.1227 19.5123C33.0005 19.5123 32.9014 19.6114 32.9014 19.7336C32.9014 19.8559 33.0005 19.9549 33.1227 19.9549Z" fill="#BDBD13"/>
<path d="M34.3033 19.9549C34.4256 19.9549 34.5247 19.8559 34.5247 19.7336C34.5247 19.6114 34.4256 19.5123 34.3033 19.5123C34.1811 19.5123 34.082 19.6114 34.082 19.7336C34.082 19.8559 34.1811 19.9549 34.3033 19.9549Z" fill="#BDBD13"/>
<path d="M35.484 19.9549C35.6062 19.9549 35.7053 19.8559 35.7053 19.7336C35.7053 19.6114 35.6062 19.5123 35.484 19.5123C35.3618 19.5123 35.2627 19.6114 35.2627 19.7336C35.2627 19.8559 35.3618 19.9549 35.484 19.9549Z" fill="#BDBD13"/>
<path d="M36.5905 19.9549C36.7127 19.9549 36.8118 19.8559 36.8118 19.7336C36.8118 19.6114 36.7127 19.5123 36.5905 19.5123C36.4682 19.5123 36.3691 19.6114 36.3691 19.7336C36.3691 19.8559 36.4682 19.9549 36.5905 19.9549Z" fill="#BDBD13"/>
<path d="M37.7701 19.9549C37.8924 19.9549 37.9914 19.8559 37.9914 19.7336C37.9914 19.6114 37.8924 19.5123 37.7701 19.5123C37.6479 19.5123 37.5488 19.6114 37.5488 19.7336C37.5488 19.8559 37.6479 19.9549 37.7701 19.9549Z" fill="#BDBD13"/>
<path d="M38.9508 19.9549C39.073 19.9549 39.1721 19.8559 39.1721 19.7336C39.1721 19.6114 39.073 19.5123 38.9508 19.5123C38.8286 19.5123 38.7295 19.6114 38.7295 19.7336C38.7295 19.8559 38.8286 19.9549 38.9508 19.9549Z" fill="#BDBD13"/>
<path d="M40.1305 19.9549C40.2527 19.9549 40.3518 19.8559 40.3518 19.7336C40.3518 19.6114 40.2527 19.5123 40.1305 19.5123C40.0083 19.5123 39.9092 19.6114 39.9092 19.7336C39.9092 19.8559 40.0083 19.9549 40.1305 19.9549Z" fill="#BDBD13"/>
<path d="M31.943 21.209C32.0652 21.209 32.1643 21.1099 32.1643 20.9877C32.1643 20.8654 32.0652 20.7664 31.943 20.7664C31.8208 20.7664 31.7217 20.8654 31.7217 20.9877C31.7217 21.1099 31.8208 21.209 31.943 21.209Z" fill="#BDBD13"/>
<path d="M33.1227 21.209C33.2449 21.209 33.344 21.1099 33.344 20.9877C33.344 20.8654 33.2449 20.7664 33.1227 20.7664C33.0005 20.7664 32.9014 20.8654 32.9014 20.9877C32.9014 21.1099 33.0005 21.209 33.1227 21.209Z" fill="#BDBD13"/>
<path d="M34.3033 21.209C34.4256 21.209 34.5247 21.1099 34.5247 20.9877C34.5247 20.8654 34.4256 20.7664 34.3033 20.7664C34.1811 20.7664 34.082 20.8654 34.082 20.9877C34.082 21.1099 34.1811 21.209 34.3033 21.209Z" fill="#BDBD13"/>
<path d="M35.484 21.209C35.6062 21.209 35.7053 21.1099 35.7053 20.9877C35.7053 20.8654 35.6062 20.7664 35.484 20.7664C35.3618 20.7664 35.2627 20.8654 35.2627 20.9877C35.2627 21.1099 35.3618 21.209 35.484 21.209Z" fill="#BDBD13"/>
<path d="M36.5905 21.209C36.7127 21.209 36.8118 21.1099 36.8118 20.9877C36.8118 20.8654 36.7127 20.7664 36.5905 20.7664C36.4682 20.7664 36.3691 20.8654 36.3691 20.9877C36.3691 21.1099 36.4682 21.209 36.5905 21.209Z" fill="#BDBD13"/>
<path d="M37.7701 21.209C37.8924 21.209 37.9914 21.1099 37.9914 20.9877C37.9914 20.8654 37.8924 20.7664 37.7701 20.7664C37.6479 20.7664 37.5488 20.8654 37.5488 20.9877C37.5488 21.1099 37.6479 21.209 37.7701 21.209Z" fill="#BDBD13"/>
<path d="M38.9508 21.209C39.073 21.209 39.1721 21.1099 39.1721 20.9877C39.1721 20.8654 39.073 20.7664 38.9508 20.7664C38.8286 20.7664 38.7295 20.8654 38.7295 20.9877C38.7295 21.1099 38.8286 21.209 38.9508 21.209Z" fill="#BDBD13"/>
<path d="M40.1305 21.209C40.2527 21.209 40.3518 21.1099 40.3518 20.9877C40.3518 20.8654 40.2527 20.7664 40.1305 20.7664C40.0083 20.7664 39.9092 20.8654 39.9092 20.9877C39.9092 21.1099 40.0083 21.209 40.1305 21.209Z" fill="#BDBD13"/>
<path d="M31.943 23.7173C32.0652 23.7173 32.1643 23.6182 32.1643 23.496C32.1643 23.3737 32.0652 23.2747 31.943 23.2747C31.8208 23.2747 31.7217 23.3737 31.7217 23.496C31.7217 23.6182 31.8208 23.7173 31.943 23.7173Z" fill="#BDBD13"/>
<path d="M33.1227 23.7173C33.2449 23.7173 33.344 23.6182 33.344 23.496C33.344 23.3737 33.2449 23.2747 33.1227 23.2747C33.0005 23.2747 32.9014 23.3737 32.9014 23.496C32.9014 23.6182 33.0005 23.7173 33.1227 23.7173Z" fill="#BDBD13"/>
<path d="M34.3033 23.7173C34.4256 23.7173 34.5247 23.6182 34.5247 23.496C34.5247 23.3737 34.4256 23.2747 34.3033 23.2747C34.1811 23.2747 34.082 23.3737 34.082 23.496C34.082 23.6182 34.1811 23.7173 34.3033 23.7173Z" fill="#BDBD13"/>
<path d="M35.484 23.7173C35.6062 23.7173 35.7053 23.6182 35.7053 23.496C35.7053 23.3737 35.6062 23.2747 35.484 23.2747C35.3618 23.2747 35.2627 23.3737 35.2627 23.496C35.2627 23.6182 35.3618 23.7173 35.484 23.7173Z" fill="#BDBD13"/>
<path d="M36.885 23.496C36.885 23.6435 36.8112 23.7173 36.6637 23.7173C36.5162 23.7173 36.4424 23.6435 36.4424 23.496C36.4424 23.3484 36.5162 23.2747 36.5899 23.2747C36.7375 23.2747 36.885 23.4222 36.885 23.496Z" fill="#BDBD13"/>
<path d="M37.7701 23.7173C37.8924 23.7173 37.9914 23.6182 37.9914 23.496C37.9914 23.3737 37.8924 23.2747 37.7701 23.2747C37.6479 23.2747 37.5488 23.3737 37.5488 23.496C37.5488 23.6182 37.6479 23.7173 37.7701 23.7173Z" fill="#BDBD13"/>
<path d="M38.9508 23.7173C39.073 23.7173 39.1721 23.6182 39.1721 23.496C39.1721 23.3737 39.073 23.2747 38.9508 23.2747C38.8286 23.2747 38.7295 23.3737 38.7295 23.496C38.7295 23.6182 38.8286 23.7173 38.9508 23.7173Z" fill="#BDBD13"/>
<path d="M40.1305 23.7173C40.2527 23.7173 40.3518 23.6182 40.3518 23.496C40.3518 23.3737 40.2527 23.2747 40.1305 23.2747C40.0083 23.2747 39.9092 23.3737 39.9092 23.496C39.9092 23.6182 40.0083 23.7173 40.1305 23.7173Z" fill="#BDBD13"/>
<path d="M31.943 25.0452C32.0652 25.0452 32.1643 24.9461 32.1643 24.8239C32.1643 24.7016 32.0652 24.6025 31.943 24.6025C31.8208 24.6025 31.7217 24.7016 31.7217 24.8239C31.7217 24.9461 31.8208 25.0452 31.943 25.0452Z" fill="#BDBD13"/>
<path d="M33.1227 25.0452C33.2449 25.0452 33.344 24.9461 33.344 24.8239C33.344 24.7016 33.2449 24.6025 33.1227 24.6025C33.0005 24.6025 32.9014 24.7016 32.9014 24.8239C32.9014 24.9461 33.0005 25.0452 33.1227 25.0452Z" fill="#BDBD13"/>
<path d="M34.3033 25.0452C34.4256 25.0452 34.5247 24.9461 34.5247 24.8239C34.5247 24.7016 34.4256 24.6025 34.3033 24.6025C34.1811 24.6025 34.082 24.7016 34.082 24.8239C34.082 24.9461 34.1811 25.0452 34.3033 25.0452Z" fill="#BDBD13"/>
<path d="M35.484 25.0452C35.6062 25.0452 35.7053 24.9461 35.7053 24.8239C35.7053 24.7016 35.6062 24.6025 35.484 24.6025C35.3618 24.6025 35.2627 24.7016 35.2627 24.8239C35.2627 24.9461 35.3618 25.0452 35.484 25.0452Z" fill="#BDBD13"/>
<path d="M36.5905 25.0452C36.7127 25.0452 36.8118 24.9461 36.8118 24.8239C36.8118 24.7016 36.7127 24.6025 36.5905 24.6025C36.4682 24.6025 36.3691 24.7016 36.3691 24.8239C36.3691 24.9461 36.4682 25.0452 36.5905 25.0452Z" fill="#BDBD13"/>
<path d="M37.7701 25.0452C37.8924 25.0452 37.9914 24.9461 37.9914 24.8239C37.9914 24.7016 37.8924 24.6025 37.7701 24.6025C37.6479 24.6025 37.5488 24.7016 37.5488 24.8239C37.5488 24.9461 37.6479 25.0452 37.7701 25.0452Z" fill="#BDBD13"/>
<path d="M38.9508 25.0452C39.073 25.0452 39.1721 24.9461 39.1721 24.8239C39.1721 24.7016 39.073 24.6025 38.9508 24.6025C38.8286 24.6025 38.7295 24.7016 38.7295 24.8239C38.7295 24.9461 38.8286 25.0452 38.9508 25.0452Z" fill="#BDBD13"/>
<path d="M40.1305 25.0452C40.2527 25.0452 40.3518 24.9461 40.3518 24.8239C40.3518 24.7016 40.2527 24.6025 40.1305 24.6025C40.0083 24.6025 39.9092 24.7016 39.9092 24.8239C39.9092 24.9461 40.0083 25.0452 40.1305 25.0452Z" fill="#BDBD13"/>
<path d="M31.943 26.2992C32.0652 26.2992 32.1643 26.2001 32.1643 26.0779C32.1643 25.9557 32.0652 25.8566 31.943 25.8566C31.8208 25.8566 31.7217 25.9557 31.7217 26.0779C31.7217 26.2001 31.8208 26.2992 31.943 26.2992Z" fill="#BDBD13"/>
<path d="M33.1227 26.2992C33.2449 26.2992 33.344 26.2001 33.344 26.0779C33.344 25.9557 33.2449 25.8566 33.1227 25.8566C33.0005 25.8566 32.9014 25.9557 32.9014 26.0779C32.9014 26.2001 33.0005 26.2992 33.1227 26.2992Z" fill="#BDBD13"/>
<path d="M34.3033 26.2992C34.4256 26.2992 34.5247 26.2001 34.5247 26.0779C34.5247 25.9557 34.4256 25.8566 34.3033 25.8566C34.1811 25.8566 34.082 25.9557 34.082 26.0779C34.082 26.2001 34.1811 26.2992 34.3033 26.2992Z" fill="#BDBD13"/>
<path d="M35.484 26.2992C35.6062 26.2992 35.7053 26.2001 35.7053 26.0779C35.7053 25.9557 35.6062 25.8566 35.484 25.8566C35.3618 25.8566 35.2627 25.9557 35.2627 26.0779C35.2627 26.2001 35.3618 26.2992 35.484 26.2992Z" fill="#BDBD13"/>
<path d="M36.5905 26.2992C36.7127 26.2992 36.8118 26.2001 36.8118 26.0779C36.8118 25.9557 36.7127 25.8566 36.5905 25.8566C36.4682 25.8566 36.3691 25.9557 36.3691 26.0779C36.3691 26.2001 36.4682 26.2992 36.5905 26.2992Z" fill="#BDBD13"/>
<path d="M37.7701 26.2992C37.8924 26.2992 37.9914 26.2001 37.9914 26.0779C37.9914 25.9557 37.8924 25.8566 37.7701 25.8566C37.6479 25.8566 37.5488 25.9557 37.5488 26.0779C37.5488 26.2001 37.6479 26.2992 37.7701 26.2992Z" fill="#BDBD13"/>
<path d="M38.9508 26.2992C39.073 26.2992 39.1721 26.2001 39.1721 26.0779C39.1721 25.9557 39.073 25.8566 38.9508 25.8566C38.8286 25.8566 38.7295 25.9557 38.7295 26.0779C38.7295 26.2001 38.8286 26.2992 38.9508 26.2992Z" fill="#BDBD13"/>
<path d="M40.1305 26.2992C40.2527 26.2992 40.3518 26.2001 40.3518 26.0779C40.3518 25.9557 40.2527 25.8566 40.1305 25.8566C40.0083 25.8566 39.9092 25.9557 39.9092 26.0779C39.9092 26.2001 40.0083 26.2992 40.1305 26.2992Z" fill="#BDBD13"/>
</svg>
