<svg width="236" height="207" viewBox="0 0 236 207" fill="none" xmlns="http://www.w3.org/2000/svg">
<path d="M225.546 206.725L225.231 206.608C225.162 206.582 218.29 203.97 215.07 198.048C211.85 192.125 213.427 184.994 213.443 184.923L213.517 184.598L213.831 184.715C213.9 184.74 220.773 187.352 223.993 193.275C227.213 199.198 225.636 206.329 225.62 206.4L225.546 206.725ZM215.586 197.772C218.308 202.78 223.739 205.346 225.115 205.932C225.376 204.469 226.197 198.553 223.477 193.551C220.758 188.549 215.325 185.978 213.948 185.39C213.686 186.854 212.866 192.77 215.586 197.772Z" fill="#1E1D34"/>
<path d="M217.53 195.97C223.316 199.423 225.545 206.281 225.545 206.281C225.545 206.281 218.392 207.542 212.606 204.089C206.82 200.636 204.592 193.777 204.592 193.777C204.592 193.777 211.744 192.517 217.53 195.97Z" fill="#C9C900"/>
<path d="M124.381 110.938C124.661 110.507 125.03 110.141 125.463 109.862C125.897 109.583 126.384 109.398 126.895 109.319C127.405 109.24 127.926 109.269 128.424 109.404C128.923 109.539 129.387 109.777 129.786 110.102C129.912 110.205 130.03 110.318 130.14 110.437L144.549 108.357L145.351 97.6089C145.413 96.7843 145.802 96.0178 146.433 95.4778C147.064 94.9378 147.886 94.6687 148.717 94.7296C149.548 94.7905 150.321 95.1764 150.865 95.8025C151.41 96.4286 151.681 97.2436 151.62 98.0681C151.618 98.0873 151.617 98.1064 151.615 98.1255L150.21 113.207L150.204 113.24C150.021 113.82 149.654 114.326 149.159 114.683C148.663 115.039 148.065 115.228 147.453 115.221L130.504 114.931C130.439 115.03 130.368 115.127 130.292 115.219C129.964 115.615 129.555 115.937 129.093 116.166C128.631 116.394 128.125 116.523 127.609 116.544C127.093 116.565 126.578 116.477 126.099 116.287C125.619 116.097 125.185 115.809 124.826 115.441C124.753 115.367 124.684 115.29 124.619 115.211C124.13 114.614 123.844 113.88 123.801 113.113C123.759 112.345 123.961 111.584 124.381 110.938Z" fill="#FFB7B7"/>
<path d="M153.431 202.576L149.321 202.575L147.366 186.852L153.432 186.852L153.431 202.576Z" fill="#FFB7B7"/>
<path d="M154.479 206.527L141.228 206.527V206.36C141.228 205.003 141.771 203.702 142.739 202.743C143.706 201.783 145.018 201.244 146.386 201.244H146.386L154.479 201.245L154.479 206.527Z" fill="#1E1D34"/>
<path d="M182.148 198.88L178.258 200.195L171.29 185.94L177.031 183.998L182.148 198.88Z" fill="#FFB7B7"/>
<path d="M184.426 202.284L171.884 206.527L171.83 206.37C171.389 205.085 171.479 203.68 172.083 202.462C172.686 201.244 173.752 200.314 175.047 199.876L175.047 199.876L182.707 197.284L184.426 202.284Z" fill="#1E1D34"/>
<path d="M157.956 65.0951C157.956 65.0951 153.866 63.7551 151.236 69.115C148.607 74.4749 144.516 80.3708 144.516 80.3708L146.854 80.9068C146.854 80.9068 147.438 77.1549 148.899 76.6189L148.315 81.4428C148.315 81.4428 165.845 87.0707 173.734 80.9068L173.442 79.0308C173.442 79.0308 174.61 79.2988 174.61 80.9068L175.487 80.1028C175.487 80.1028 174.61 78.4949 171.981 76.3509C170.255 74.9437 169.662 72.2665 169.458 70.5927C169.296 69.1756 168.684 67.8464 167.709 66.798C165.961 64.9404 162.777 62.966 157.956 65.0951Z" fill="#1E1D34"/>
<path d="M159.464 83.8217C163.59 83.8217 166.935 80.5038 166.935 76.4111C166.935 72.3183 163.59 69.0004 159.464 69.0004C155.338 69.0004 151.993 72.3183 151.993 76.4111C151.993 80.5038 155.338 83.8217 159.464 83.8217Z" fill="#FFB7B7"/>
<path d="M149.503 89.9239L148.144 89.4748C148.144 89.4748 145.428 90.5976 145.428 92.6187C145.428 94.6397 144.975 102.724 144.975 102.724L151.088 103.398L149.503 89.9239Z" fill="#CBCBCB"/>
<path d="M173.815 134.095C173.252 133.469 172.934 132.663 172.919 131.824C172.904 130.985 173.193 130.168 173.734 129.523L169.921 97.8452C169.884 97.0982 170.147 96.367 170.652 95.8121C171.158 95.2572 171.865 94.924 172.618 94.8855C173.371 94.847 174.108 95.1064 174.669 95.6068C175.229 96.1072 175.566 96.8077 175.607 97.5546C175.607 97.5649 175.608 97.5753 175.608 97.5856L179.019 129.297C179.143 129.42 179.257 129.552 179.36 129.693C179.634 130.068 179.83 130.493 179.938 130.944C180.046 131.394 180.064 131.862 179.99 132.319C179.916 132.776 179.752 133.215 179.507 133.609C179.262 134.003 178.941 134.346 178.563 134.617C178.524 134.646 178.484 134.673 178.443 134.699C178.005 134.987 177.509 135.175 176.989 135.249C176.469 135.324 175.939 135.283 175.436 135.131C174.809 134.942 174.248 134.584 173.815 134.095Z" fill="#FFB7B7"/>
<path d="M170.323 102.724L176.435 102.05C176.435 102.05 175.982 93.966 175.982 91.945C175.982 89.9239 173.266 88.8011 173.266 88.8011L171.907 89.2502L170.323 102.724Z" fill="#CBCBCB"/>
<path d="M150.408 113.941C150.408 113.941 145.201 123.384 145.201 134.837C145.201 146.29 144.749 198.838 144.749 198.838C144.749 198.838 151.54 201.981 155.615 198.164L159.238 140.002L173.5 197.041C173.5 197.041 180.292 198.388 183.462 196.143L177.349 156.395C177.349 156.395 174.859 119.117 168.067 116.422C161.275 113.728 150.408 113.941 150.408 113.941Z" fill="#1E1D34"/>
<path d="M151.391 76.4581C154.036 74.5595 156.177 72.3726 157.593 69.7713C157.593 69.7713 162.447 75.1207 165.413 75.3882C168.379 75.6556 165.682 68.9689 165.682 68.9689L160.29 67.6316L155.166 68.1665L151.122 70.8412L151.391 76.4581Z" fill="#1E1D34"/>
<path d="M166.935 87.4537C166.935 87.4537 167.151 87.3389 154.258 87.8047L148.862 89.2788L148.145 89.4747C148.145 89.4747 148.824 102.949 150.635 105.419C152.446 107.889 151.993 109.236 151.54 109.461C151.088 109.686 149.956 109.236 150.635 110.359C151.314 111.482 152.22 110.808 151.314 111.482C150.408 112.156 149.956 114.626 149.956 114.626L169.878 117.321C169.878 117.321 170.557 108.563 172.368 104.071C174.18 99.5801 174.632 97.7836 174.632 97.7836L173.274 88.8011L166.935 87.4537Z" fill="#CBCBCB"/>
<path d="M131.091 49.1492H129.923V18.018C129.923 13.2393 127.971 8.65638 124.498 5.27736C121.025 1.89834 116.315 2.29618e-05 111.403 1.52589e-05L43.6103 1.52589e-05C38.6986 2.16384e-06 33.988 1.8983 30.5149 5.27731C27.0418 8.65632 25.0906 13.2392 25.0906 18.0179V188.807C25.0906 193.585 27.0417 198.168 30.5149 201.547C33.988 204.926 38.6985 206.825 43.6102 206.825H111.403C113.835 206.825 116.243 206.358 118.49 205.453C120.737 204.548 122.778 203.22 124.498 201.547C126.218 199.874 127.582 197.888 128.513 195.702C129.443 193.516 129.923 191.173 129.923 188.807V71.309H131.091L131.091 49.1492Z" fill="#1E1D34"/>
<path d="M124.047 18.1445V188.682C124.048 190.448 123.699 192.196 123.02 193.828C122.34 195.459 121.343 196.942 120.085 198.192C118.828 199.441 117.335 200.433 115.691 201.11C114.047 201.787 112.285 202.137 110.505 202.138H43.669C40.0737 202.141 36.6247 200.726 34.0806 198.206C31.5366 195.686 30.1059 192.267 30.1034 188.701V18.1445C30.1021 16.3787 30.4515 14.6299 31.1316 12.998C31.8117 11.3661 32.8092 9.8831 34.0671 8.63359C35.325 7.38407 36.8187 6.39256 38.4629 5.71566C40.1072 5.03875 41.8697 4.68971 43.6499 4.68847H51.7738C51.3747 5.65912 51.2223 6.71225 51.3302 7.75507C51.4381 8.79789 51.8029 9.79839 52.3924 10.6684C52.982 11.5384 53.7782 12.2513 54.711 12.7441C55.6437 13.237 56.6843 13.4947 57.7412 13.4946H95.835C96.8918 13.4947 97.9324 13.237 98.8652 12.7441C99.7979 12.2513 100.594 11.5384 101.184 10.6684C101.773 9.79839 102.138 8.79789 102.246 7.75507C102.354 6.71225 102.201 5.65912 101.802 4.68847H110.481C114.076 4.68527 117.524 6.09862 120.068 8.6176C122.612 11.1366 124.043 14.5548 124.047 18.1204V18.1445L124.047 18.1445Z" fill="white"/>
<path d="M124.047 43.375V37.5662H115.184V5.51913C113.678 4.96767 112.086 4.68639 110.481 4.68844H109.327V37.5662H78.583V13.4946H72.7269V37.5662H46.9602V4.68847H43.6691C42.8083 4.68714 41.9494 4.76786 41.1041 4.92954V37.5662H30.1035V43.375H41.1041V56.8109L30.1037 63.1105V69.8197L41.1041 63.5201V103.496H30.1035V109.305H41.1041V167.102H30.1035V172.911H41.1041V201.897C41.9494 202.059 42.8083 202.139 43.6691 202.138H46.9602V172.911H72.7269V202.138H78.583V172.911H109.327V202.138H110.481C112.086 202.14 113.678 201.859 115.184 201.307V172.911H124.047V167.102H115.184V141.834H123.968V136.025H115.184V109.305H124.047V103.496H115.184V68.0624H124.047V62.2536H115.184V43.375L124.047 43.375ZM64.5667 43.375L64.5666 43.3751L46.9603 53.4592L46.9602 53.4593V43.375H64.5667ZM46.9602 60.1655L46.9603 60.1655L72.7269 45.4083V103.496H46.9602V60.1655ZM46.9602 167.102V109.305H72.7269V167.102H46.9602ZM109.327 167.102H78.583V141.834H109.327V167.102ZM109.327 136.025H78.583V109.305H109.327V136.025ZM109.327 103.496H78.583V68.0624H109.327V103.496ZM109.327 62.2536H78.583V43.375H109.327V62.2536Z" fill="#E5E5E5"/>
<path d="M128.945 62.3611C128.945 80.8077 95.2728 121.901 95.2728 121.901C95.2728 121.901 61.6003 80.8077 61.6003 62.3611C61.6003 53.5027 65.148 45.0071 71.4628 38.7433C77.7776 32.4795 86.3423 28.9605 95.2728 28.9605C104.203 28.9605 112.768 32.4795 119.083 38.7433C125.398 45.0071 128.945 53.5027 128.945 62.3611Z" fill="#C9C900"/>
<path d="M115.184 60.9089C115.184 64.815 114.016 68.6335 111.828 71.8813C109.641 75.1292 106.531 77.6606 102.893 79.1554C99.2545 80.6502 95.2511 81.0413 91.3888 80.2793C87.5266 79.5172 83.9788 77.6362 81.1943 74.8742C78.4097 72.1121 76.5134 68.593 75.7451 64.7619C74.9769 60.9308 75.3712 56.9597 76.8782 53.3509C78.3852 49.7421 80.9372 46.6576 84.2115 44.4874C87.4857 42.3173 91.3353 41.159 95.2732 41.159C97.8867 41.1578 100.475 41.6672 102.89 42.6582C105.305 43.6491 107.5 45.1022 109.348 46.9345C111.197 48.7668 112.664 50.9423 113.665 53.3369C114.667 55.7315 115.183 58.2983 115.184 60.8907V60.9089Z" fill="white"/>
<path d="M95.204 68.7052C99.3006 68.7052 102.622 65.411 102.622 61.3474C102.622 57.2838 99.3006 53.9896 95.204 53.9896C91.1073 53.9896 87.7863 57.2838 87.7863 61.3474C87.7863 65.411 91.1073 68.7052 95.204 68.7052Z" fill="#C9C900"/>
<path d="M105.969 78.1523C102.772 80.1692 99.0606 81.2402 95.2713 81.2396C91.4819 81.2391 87.7712 80.1671 84.5741 78.1494C85.239 75.8439 86.6428 73.8159 88.5732 72.3723C90.5035 70.9287 92.8553 70.1481 95.2728 70.1484C97.6903 70.1487 100.042 70.93 101.972 72.3742C103.902 73.8183 105.305 75.8466 105.969 78.1523Z" fill="#C9C900"/>
<path d="M95.2728 146.008C100.286 146.008 104.35 141.977 104.35 137.004C104.35 132.031 100.286 128 95.2728 128C90.2598 128 86.1959 132.031 86.1959 137.004C86.1959 141.977 90.2598 146.008 95.2728 146.008Z" fill="#C9C900"/>
<path d="M235.707 207H0.292804C0.215148 207 0.140672 206.969 0.0857603 206.915C0.0308489 206.86 0 206.787 0 206.71C0 206.633 0.0308489 206.559 0.0857603 206.504C0.140672 206.45 0.215148 206.419 0.292804 206.419H235.707C235.785 206.419 235.859 206.45 235.914 206.504C235.969 206.559 236 206.633 236 206.71C236 206.787 235.969 206.86 235.914 206.915C235.859 206.969 235.785 207 235.707 207Z" fill="#CBCBCB"/>
</svg>
