<svg width="282" height="233" viewBox="0 0 282 233" fill="none" xmlns="http://www.w3.org/2000/svg">
<path d="M258.109 83.2602C258.57 83.892 258.923 84.6323 259.148 85.4369C259.373 86.2415 259.464 87.094 259.418 87.9435C259.315 89.6442 258.898 91.2928 258.199 92.7619C256.921 95.6418 254.53 97.9811 252.236 99.6354C250.92 96.3734 251.732 92.2587 252.236 90.2083C253.052 86.9463 256.12 81.7131 258.094 83.2602" fill="#EBEBEB"/>
<path d="M252.969 105.833C253.115 104.899 253.459 104.029 253.964 103.312C254.469 102.595 255.118 102.057 255.846 101.751C256.575 101.459 257.345 101.35 258.109 101.43C258.874 101.51 259.617 101.777 260.297 102.217C260.929 102.609 261.553 103.205 261.707 104.081C261.757 104.487 261.719 104.902 261.598 105.285C261.476 105.667 261.275 106.002 261.016 106.257C260.489 106.761 259.863 107.083 259.203 107.189C256.947 107.655 254.733 107.618 252.969 105.847" fill="#EBEBEB"/>
<path d="M247.269 113.751C247.348 113.547 247.441 113.352 247.547 113.168L248.352 111.621C249.044 110.335 249.999 108.475 251.525 106.961C252.804 105.648 254.342 104.783 255.981 104.454C256.479 104.363 256.984 104.348 257.485 104.407C257.62 104.421 257.754 104.444 257.887 104.477C257.981 104.477 258.026 104.51 258.026 104.519C257.354 104.469 256.678 104.503 256.011 104.622C254.403 105.002 252.9 105.882 251.642 107.18C250.138 108.648 249.183 110.47 248.465 111.733C248.108 112.371 247.818 112.888 247.607 113.238C247.509 113.422 247.395 113.594 247.269 113.751Z" fill="#E0E0E0"/>
<path d="M256.056 87.5148C256.04 87.6117 256.017 87.7067 255.988 87.7991L255.77 88.5959C255.575 89.2903 255.282 90.2828 254.913 91.5084C254.161 93.9596 253.112 97.3288 251.875 101.015C250.638 104.701 249.457 108.005 248.574 110.391C248.134 111.579 247.769 112.534 247.513 113.187C247.389 113.494 247.288 113.746 247.213 113.942C247.18 114.031 247.141 114.117 247.096 114.198C247.114 114.103 247.14 114.011 247.175 113.923C247.246 113.723 247.333 113.457 247.446 113.145L248.45 110.312C249.299 107.916 250.461 104.603 251.698 100.917C252.935 97.2309 254.014 93.8757 254.785 91.4385L255.699 88.554C255.804 88.2371 255.887 87.9761 255.955 87.7758C255.981 87.6844 256.015 87.5968 256.056 87.5148Z" fill="#E0E0E0"/>
<path d="M248.811 105.866C249.171 103.908 249.15 101.873 248.748 99.9277C248.347 97.9826 247.577 96.1842 246.502 94.6819C245.953 93.9223 245.145 93.2046 244.37 93.5495C243.595 93.8943 243.347 95.092 243.332 96.1125C243.33 98.2424 243.837 100.325 244.789 102.099C245.74 103.873 247.094 105.258 248.679 106.08" fill="#EBEBEB"/>
<path d="M245.904 97.7249C246.037 97.8629 246.157 98.0193 246.261 98.1909C246.397 98.3708 246.523 98.5623 246.637 98.7641C246.776 99.0017 246.949 99.2534 247.103 99.5702C247.282 99.9042 247.447 100.249 247.596 100.605C247.774 101.008 247.934 101.423 248.074 101.849C248.394 102.829 248.624 103.852 248.758 104.897C248.879 105.943 248.901 107.003 248.826 108.056C248.791 108.515 248.735 108.971 248.656 109.421C248.594 109.816 248.513 110.205 248.412 110.586C248.336 110.903 248.247 111.214 248.145 111.518C248.075 111.752 247.992 111.979 247.897 112.199C247.831 112.395 247.749 112.582 247.652 112.758C247.611 112.758 247.961 111.933 248.284 110.535C248.372 110.157 248.444 109.772 248.498 109.384C248.568 108.939 248.618 108.489 248.649 108.037C248.715 107.001 248.688 105.959 248.57 104.929C248.436 103.905 248.215 102.9 247.912 101.933C247.761 101.49 247.622 101.071 247.457 100.693C247.315 100.339 247.158 99.9934 246.987 99.6588C246.355 98.4192 245.851 97.7575 245.904 97.7249Z" fill="#E0E0E0"/>
<path d="M24.4627 54.2144C24.4627 54.2144 21.0035 55.6124 24.3574 64.7926C27.7113 73.9728 30.1064 78.5769 30.1064 78.5769C30.1064 78.5769 30.6817 80.6972 29.2529 80.9395C27.8241 81.1818 24.7409 80.385 24.019 82.496C23.267 84.6815 24.5078 86.8577 27.0834 88.8569C29.659 90.856 35.1749 95.4834 35.6712 95.9028C36.1675 96.3222 36.6263 97.3008 35.6712 97.6736C34.7162 98.0464 27.6737 98.531 28.0647 102.66C28.4558 106.789 36.3743 110.908 37.2241 111.374C38.0739 111.84 38.2731 112.306 38.1791 112.902C38.0851 113.499 35.7051 113.368 33.7047 113.629C31.7044 113.89 29.4221 114.589 29.8094 116.947C30.1967 119.305 34.7801 124.483 46.3083 126.561L51.7001 127.092L54.851 121.607C61.0249 109.366 60.7993 101.686 59.5998 99.7939C58.4004 97.9019 56.4791 99.5982 55.039 101.332C53.5989 103.065 52.1212 105.386 51.7001 105.092C51.279 104.799 51.1098 104.314 51.373 103.2C51.6362 102.087 54.2343 91.9511 51.9445 88.9128C49.6546 85.8745 44.8005 92.2121 43.9583 92.8831C43.116 93.5542 42.8114 92.4637 42.8716 91.7321C42.9318 91.0005 43.6462 82.7849 44.0823 79.0569C44.5185 75.3289 43.9733 72.7659 42.1497 72.0669C40.39 71.3772 38.8785 74.8163 37.8069 76.0092C36.7353 77.2022 35.8028 75.2869 35.8028 75.2869C35.8028 75.2869 34.5207 70.0584 31.0314 60.9435C27.5421 51.8285 24.3875 54.2843 24.3875 54.2843" fill="#EBEBEB"/>
<path d="M51.9257 128.672C49.384 121.962 45.0299 109.948 41.2473 99.6588C37.4648 89.3695 34.0356 80.0588 31.5202 73.3391L28.5385 65.3798L27.7301 63.2176L27.5233 62.649C27.4949 62.5826 27.4698 62.5142 27.4481 62.444C27.4481 62.444 27.4782 62.5046 27.5308 62.6304L27.7527 63.1896C27.9444 63.6882 28.2264 64.4105 28.5912 65.3379C29.3168 67.2019 30.3508 69.9093 31.6217 73.2599C34.1635 79.9656 37.6114 89.267 41.3977 99.5562C45.184 109.846 49.5193 121.887 52.0347 128.616" fill="#E0E0E0"/>
<path d="M28.313 83.8241C28.442 83.8604 28.5679 83.9119 28.689 83.9779C28.9221 84.085 29.2605 84.2575 29.6741 84.4718C30.5013 84.9052 31.6331 85.539 32.8739 86.2659L36.0398 88.1299L37.0023 88.6891C37.1232 88.7497 37.239 88.8246 37.3483 88.9128C37.2184 88.8828 37.0921 88.8327 36.9723 88.7637C36.7354 88.6565 36.4007 88.4841 35.9871 88.2651C35.1599 87.7991 34.0357 87.17 32.7987 86.443L29.6215 84.579L28.6589 84.0245C28.5379 83.974 28.4218 83.9068 28.313 83.8241Z" fill="#E0E0E0"/>
<path d="M37.7279 88.54C37.6865 88.54 38.6378 85.5669 39.8523 81.9554C41.0667 78.3439 42.1083 75.4314 42.1308 75.4314C42.1534 75.4314 41.2247 78.4045 40.0064 82.0206C38.7882 85.6368 37.773 88.54 37.7279 88.54Z" fill="#E0E0E0"/>
<path d="M42.9618 104.64C43.0292 104.498 43.1086 104.365 43.1987 104.244C43.3792 103.96 43.6085 103.61 43.8792 103.196C44.4508 102.31 45.2404 101.08 46.0713 99.6867C46.9023 98.2934 47.6204 97.0072 48.1356 96.0659L48.7447 94.9521C48.8137 94.8114 48.893 94.6788 48.9816 94.5561C48.9364 94.7117 48.8744 94.859 48.7973 94.9941C48.6695 95.2737 48.4777 95.6651 48.2333 96.1451C47.7445 97.1097 47.0414 98.4192 46.2029 99.8125C45.3644 101.206 44.5673 102.427 43.9695 103.289C43.6687 103.718 43.4243 104.062 43.2476 104.295C43.164 104.424 43.068 104.54 42.9618 104.64Z" fill="#E0E0E0"/>
<path d="M33.6897 102.725C33.8155 102.715 33.9418 102.724 34.0657 102.753L35.0621 102.907C35.9006 103.051 37.0587 103.261 38.3371 103.503C39.6155 103.746 40.7698 103.969 41.6045 104.156L42.5934 104.379C42.7155 104.397 42.8355 104.433 42.9506 104.487C42.8248 104.497 42.6985 104.487 42.5746 104.459L41.5819 104.305C40.7397 104.16 39.5816 103.951 38.3032 103.708C37.0248 103.466 35.8705 103.242 35.0358 103.056L34.0507 102.832C33.9275 102.813 33.8064 102.777 33.6897 102.725Z" fill="#E0E0E0"/>
<path d="M36.8481 117.688C37.0055 117.683 37.1629 117.697 37.3181 117.73L38.5965 117.926C39.6719 118.098 41.1571 118.35 42.7965 118.644C44.4358 118.937 45.921 119.212 46.9926 119.426L48.2635 119.683C48.4201 119.709 48.5748 119.751 48.726 119.809C48.5673 119.814 48.4087 119.799 48.2522 119.767L46.9776 119.571C45.9022 119.398 44.4133 119.142 42.7739 118.849C41.1345 118.555 39.6493 118.28 38.5777 118.07L37.3106 117.809C37.1538 117.787 36.9989 117.746 36.8481 117.688Z" fill="#E0E0E0"/>
<path d="M48.4552 119.659C48.5392 119.477 48.6361 119.304 48.7447 119.142C48.9553 118.788 49.2335 118.331 49.5682 117.777C50.2638 116.621 51.2188 115.023 52.234 113.219C53.2492 111.416 54.1366 109.757 54.7682 108.559L55.5202 107.129C55.6054 106.948 55.7022 106.777 55.8098 106.616C55.744 106.809 55.6648 106.995 55.5729 107.171C55.4112 107.52 55.1706 108.023 54.866 108.634C54.2569 109.864 53.3846 111.542 52.3656 113.345C51.3466 115.149 50.3803 116.742 49.6584 117.875C49.2824 118.439 49.0004 118.895 48.7898 119.203C48.6905 119.368 48.5784 119.521 48.4552 119.659Z" fill="#E0E0E0"/>
<path d="M136.289 109.347C126.656 103.34 123.031 89.6304 121.903 76.9273C121.715 74.807 121.268 72.6168 121.862 70.6223C122.456 68.6278 124.197 67.0201 125.825 67.6399C127.175 68.1478 127.938 69.872 128.833 71.2514C130.012 73.0942 131.588 74.4854 133.379 75.2637C134.544 75.7669 135.935 75.9533 136.92 75.0307C138.27 73.7631 138.15 71.2188 137.894 69.1218C137.418 65.2105 136.942 61.3023 136.465 57.3972C136.21 55.3002 135.958 53.1613 136.251 51.0736C136.544 48.9859 137.492 46.9309 139.037 46.0827C140.583 45.2346 142.711 46.0268 143.29 48.0213C143.531 48.8508 143.493 49.7641 143.643 50.6262C143.794 51.4883 144.23 52.3924 144.925 52.5182C145.621 52.644 146.241 51.9264 146.674 51.2181C148.178 48.7902 149.043 45.8451 149.836 42.9326C150.629 40.0201 151.378 37.047 152.694 34.4514C154.01 31.8558 155.991 29.6329 158.394 29.0271C160.796 28.4213 163.601 29.8147 164.556 32.6573C165.511 35.4999 164.474 38.7572 163.237 41.4227C161.41 45.3818 159.131 48.992 156.469 52.1407C155.987 52.7046 155.469 53.3151 155.341 54.1306C155.138 55.5938 156.367 56.7914 157.537 57.0524C158.86 57.346 160.21 56.9405 161.552 56.8939C162.895 56.8473 164.41 57.318 165.09 58.7579C166.034 60.7804 164.85 63.2875 163.586 65.0163C161.079 68.4766 158.109 71.3756 154.807 73.5861C153.626 74.3736 152.374 75.1052 151.494 76.3821C150.614 77.6589 150.231 79.6441 151.009 81.0094C151.787 82.3748 153.401 82.5752 154.671 82.0393C155.942 81.5034 157.006 80.4176 158.183 79.6161C160.383 78.1109 163.41 77.7521 165.192 79.9936C166.361 81.4568 166.715 83.7216 166.448 85.7673C166.181 87.813 165.372 89.6677 164.485 91.4106C161.387 97.5012 157.123 102.725 151.994 106.01C146.866 109.296 141.94 110.819 136.293 109.352" fill="#F5F5F5"/>
<path d="M137.992 100.95C138.884 93.7608 140.107 86.6411 141.654 79.6254L142.85 74.094C143.245 72.2812 143.636 70.4825 144.106 68.7536C145.013 65.434 146.069 62.1794 147.268 59.0049C148.396 55.9666 149.55 53.1333 150.652 50.4911C151.754 47.8489 152.825 45.4163 153.871 43.2494C155.51 39.8198 157.367 36.5568 159.424 33.4914C160.15 32.4056 160.736 31.5855 161.139 31.0402L161.597 30.4205C161.647 30.3461 161.703 30.2775 161.763 30.2154C161.723 30.2977 161.677 30.3743 161.624 30.4438L161.184 31.0915C160.808 31.6554 160.229 32.4895 159.518 33.5893C157.504 36.6781 155.679 39.9492 154.059 43.3753C153.025 45.5468 151.972 47.984 150.881 50.6262C149.791 53.2684 148.644 56.1064 147.527 59.1401C146.337 62.3128 145.287 65.5642 144.384 68.8794C143.918 70.6036 143.531 72.3838 143.136 74.2012C142.741 76.0186 142.35 77.8639 141.948 79.7279C140.401 86.7297 139.172 93.8333 138.267 101.005" fill="#E0E0E0"/>
<path d="M144.192 68.7257C144.077 68.4499 143.986 68.1592 143.922 67.8589C143.767 67.2951 143.546 66.4609 143.32 65.4497C142.839 63.3993 142.248 60.5474 141.609 57.3972C140.97 54.2471 140.346 51.4091 139.842 49.3774C139.59 48.3615 139.38 47.5413 139.229 46.9775C139.136 46.6889 139.068 46.389 139.026 46.0827C139.157 46.3464 139.263 46.6278 139.342 46.9215C139.53 47.4714 139.771 48.2823 140.053 49.2935C140.613 51.3066 141.271 54.1445 141.914 57.2994L143.534 65.3751C143.732 66.3444 143.902 67.1584 144.042 67.817C144.12 68.1118 144.17 68.4167 144.192 68.7257Z" fill="#E0E0E0"/>
<path d="M165.372 59.7831C165.096 59.9109 164.81 60.0061 164.519 60.0674C163.97 60.2305 163.169 60.4588 162.191 60.7804C160.229 61.4048 157.54 62.3834 154.615 63.623C151.69 64.8625 149.08 66.144 147.215 67.1273C146.279 67.5933 145.531 68.0313 145.012 68.3156C144.75 68.4845 144.476 68.6218 144.192 68.7257C144.429 68.5137 144.68 68.3296 144.944 68.1758C145.448 67.8496 146.185 67.3929 147.11 66.871C148.96 65.8178 151.566 64.5037 154.499 63.2502C157.001 62.1747 159.546 61.2602 162.124 60.5101C163.113 60.2212 163.921 60.0441 164.481 59.9183C164.774 59.8376 165.073 59.7924 165.372 59.7831Z" fill="#E0E0E0"/>
<path d="M138.206 100.404C138.133 100.316 138.07 100.216 138.018 100.106C137.887 99.8591 137.729 99.5562 137.533 99.1741C137.112 98.3819 136.529 97.2169 135.826 95.7676C134.416 92.8645 132.57 88.7776 130.581 84.2341C128.592 79.6906 126.776 75.6085 125.415 72.696L123.798 69.229L123.362 68.297C123.305 68.1898 123.259 68.0738 123.227 67.9521C123.301 68.0415 123.364 68.1435 123.415 68.255L123.9 69.187C124.321 69.9792 124.904 71.1442 125.607 72.5981C127.017 75.5013 128.867 79.5881 130.871 84.1316C132.875 88.6751 134.672 92.7713 136.033 95.7071L137.65 99.1788C137.827 99.5562 137.97 99.8731 138.086 100.111C138.135 100.203 138.176 100.301 138.206 100.404Z" fill="#E0E0E0"/>
<path d="M165.786 83.6703C165.703 83.7494 165.612 83.8152 165.515 83.866L164.718 84.346L161.767 86.1448C159.274 87.6686 155.848 89.8168 152.069 92.2028C148.291 94.5887 144.843 96.695 142.324 98.1536C141.064 98.8805 140.041 99.4584 139.316 99.8405L138.492 100.269C138.399 100.33 138.299 100.372 138.195 100.395C138.279 100.317 138.37 100.252 138.466 100.199L139.263 99.7007L142.218 97.9019C144.711 96.3828 148.133 94.2345 151.915 91.8439C155.698 89.4534 159.138 87.3517 161.657 85.8931C162.917 85.1662 163.94 84.5883 164.665 84.2062L165.489 83.7775C165.583 83.7231 165.683 83.687 165.786 83.6703Z" fill="#E0E0E0"/>
<path d="M213.651 52.0289C213.651 44.4238 207.206 39.61 200.634 43.4172C199.148 44.2805 197.933 45.7246 197.174 47.5273C195.524 51.4977 196.253 56.0272 197.754 59.7925L202.867 75.8555C203.028 76.3679 203.31 76.808 203.677 77.1183C204.043 77.4286 204.476 77.5947 204.92 77.5947C205.364 77.5947 205.797 77.4286 206.163 77.1183C206.53 76.808 206.812 76.3679 206.973 75.8555L211.989 59.7039C213.722 54.769 213.651 52.0289 213.651 52.0289ZM207.477 58.6461C203.059 61.8289 198.581 55.9433 201.002 50.1369C201.318 49.3623 201.806 48.7156 202.408 48.2729C206.826 45.0902 211.301 50.9757 208.879 56.7821C208.565 57.5564 208.078 58.2031 207.477 58.6461Z" fill="#F5F5F5"/>
<path d="M266.96 206.941C266.96 207.011 210.56 207.062 141.023 207.062C71.4851 207.062 15.0625 207.011 15.0625 206.941C15.0625 206.871 71.4399 206.82 141.023 206.82C210.605 206.82 266.96 206.876 266.96 206.941Z" fill="#1E1D34"/>
<path d="M138.487 206.941L74.8646 206.657C71.1915 206.635 67.6771 205.196 65.0915 202.656C62.5058 200.116 61.0597 196.682 61.0699 193.106L61.7448 37.8206C61.7663 34.2429 63.2442 30.8195 65.8543 28.3011C68.4645 25.7826 71.9939 24.3746 75.6687 24.3858L139.291 24.67C142.962 24.6922 146.475 26.1296 149.061 28.6676C151.646 31.2057 153.093 34.6375 153.086 38.212L152.411 193.497C152.392 197.076 150.915 200.502 148.305 203.023C145.694 205.543 142.163 206.952 138.487 206.941Z" fill="#1E1D34"/>
<path d="M139.2 30.029L126.865 29.9731C126.053 29.9878 125.28 30.3154 124.716 30.8841C124.151 31.4528 123.842 32.2161 123.854 33.0068V35.1877C123.861 35.5791 123.788 35.9679 123.64 36.3319C123.491 36.6958 123.271 37.0277 122.991 37.3086C122.711 37.5895 122.377 37.8139 122.007 37.9689C121.638 38.1239 121.241 38.2065 120.839 38.212L96.7916 38.1048C95.9799 38.0816 95.2106 37.7466 94.6518 37.1729C94.0931 36.5992 93.7903 35.8336 93.8096 35.0432V32.8623C93.8238 32.0772 93.5199 31.3181 92.9636 30.7495C92.4073 30.1809 91.6434 29.8484 90.8372 29.824H86.5006L75.707 29.7448C73.1334 29.7324 70.66 30.7156 68.8307 32.4781C67.0015 34.2407 65.966 36.6384 65.9521 39.144L65.2964 190.715C65.2849 193.221 66.296 195.628 68.1073 197.408C69.9186 199.188 72.3819 200.195 74.9555 200.208L138.453 200.492C139.728 200.497 140.991 200.258 142.171 199.789C143.351 199.319 144.424 198.627 145.33 197.754C146.235 196.88 146.955 195.841 147.448 194.697C147.941 193.552 148.198 192.324 148.203 191.083L148.859 39.5168C148.865 38.2764 148.619 37.047 148.137 35.8988C147.655 34.7507 146.945 33.7063 146.048 32.8253C145.151 31.9443 144.085 31.2439 142.91 30.7641C141.735 30.2843 140.474 30.0345 139.2 30.029Z" fill="#FAFAFA"/>
<path d="M65.8755 57.3413H76.2813L85.5672 66.3864L75.9128 75.7856L65.9856 66.1161L65.8755 57.3413Z" fill="#EBEBEB"/>
<path d="M87.6876 62.416L82.4703 57.3413H94.2068L87.6876 62.416Z" fill="#EBEBEB"/>
<path d="M92.2491 66.5634L101.387 57.6675H133.313C133.313 57.6675 138.2 78.9171 118.953 92.5616L92.2491 66.5634Z" fill="#EBEBEB"/>
<path d="M88.3386 69.3967L78.5646 78.9171L105.613 105.251L115.387 95.4135L88.3386 69.3967Z" fill="#EBEBEB"/>
<path d="M65.7559 84.3134L71.8826 78.1249L65.8755 72.2766L65.7559 84.3134Z" fill="#EBEBEB"/>
<path d="M75.5491 81.7737L66.1388 90.9352V103.666L85.5672 123.019L102.028 108.107L75.5491 81.7737Z" fill="#EBEBEB"/>
<path d="M122.615 95.2318C122.615 95.2318 142.776 80.8417 136.256 57.6675H148.792L148.639 123.075L122.615 95.2318Z" fill="#EBEBEB"/>
<path d="M118.824 99.0064L109.079 108.914L138.966 138.015L148.108 128.583L118.824 99.0064Z" fill="#EBEBEB"/>
<path d="M105.005 111.626L89.6836 126.435L120.327 156.059L135.62 141.664L105.005 111.626Z" fill="#EBEBEB"/>
<path d="M96.9734 185.827L120.399 162.191L142.68 184.303L96.9734 185.827Z" fill="#EBEBEB"/>
<path d="M124.051 159.139L148.462 135.606C148.462 136.65 148.251 184.401 148.251 184.401L124.051 159.139Z" fill="#EBEBEB"/>
<path d="M103.167 145.923L117.005 159.395L89.6837 186.843L77.0616 172.103L103.167 145.923Z" fill="#EBEBEB"/>
<path d="M65.7798 174.014C67.0865 173.888 100.549 143.379 100.549 143.379L65.7798 108.303V174.014Z" fill="#EBEBEB"/>
<path d="M65.2964 180.966L73.3521 174.014L84.5094 186.843H65.2964V181.936" fill="#EBEBEB"/>
<path d="M75.707 48.1052C74.8556 47.4936 74.0554 46.8174 73.3137 46.0827C73.3137 45.7286 73.3137 45.9849 73.3137 45.9057L73.3472 45.8777L73.4047 45.8264L73.5243 45.7193L73.7541 45.5096L74.1897 45.1181L74.9411 44.4657C75.1687 44.2393 75.4263 44.0434 75.707 43.8832C75.5362 44.1366 75.33 44.3656 75.0943 44.5636L74.3763 45.2533L73.9503 45.654L73.7206 45.8684L73.6057 45.9756L73.5435 46.0268L73.5148 46.0548V45.8777C74.3039 46.5635 75.0369 47.3083 75.707 48.1052Z" fill="#1E1D34"/>
<path d="M141.88 44.5496C141.881 44.6505 141.851 44.7493 141.794 44.8335C141.737 44.9178 141.656 44.9836 141.561 45.0226C141.465 45.0616 141.36 45.0721 141.258 45.0526C141.156 45.0332 141.063 44.9847 140.99 44.9134C140.916 44.8421 140.867 44.7512 140.847 44.6522C140.827 44.5532 140.837 44.4507 140.878 44.3577C140.918 44.2647 140.985 44.1854 141.072 44.13C141.158 44.0745 141.26 44.0454 141.363 44.0463C141.501 44.0463 141.632 44.0993 141.729 44.1937C141.826 44.2881 141.88 44.4161 141.88 44.5496Z" fill="#1E1D34"/>
<path d="M141.732 45.9336C141.805 46.0046 141.855 46.0951 141.875 46.1937C141.895 46.2922 141.885 46.3944 141.846 46.4873C141.806 46.5801 141.739 46.6595 141.653 46.7154C141.568 46.7712 141.467 46.8011 141.363 46.8011C141.26 46.8011 141.159 46.7712 141.073 46.7154C140.988 46.6595 140.921 46.5801 140.881 46.4873C140.842 46.3944 140.832 46.2922 140.852 46.1937C140.872 46.0951 140.922 46.0046 140.995 45.9336C141.093 45.8397 141.226 45.7871 141.363 45.7871C141.501 45.7871 141.634 45.8397 141.732 45.9336Z" fill="#1E1D34"/>
<path d="M141.881 48.0306C141.868 48.1563 141.808 48.2731 141.712 48.358C141.616 48.4429 141.491 48.49 141.361 48.49C141.231 48.49 141.106 48.4429 141.01 48.358C140.914 48.2731 140.854 48.1563 140.842 48.0306C140.835 47.9601 140.843 47.889 140.866 47.8218C140.889 47.7547 140.926 47.6929 140.975 47.6405C141.024 47.5881 141.084 47.5462 141.15 47.5175C141.217 47.4889 141.288 47.4741 141.361 47.4741C141.434 47.4741 141.506 47.4889 141.572 47.5175C141.639 47.5462 141.698 47.5881 141.747 47.6405C141.796 47.6929 141.833 47.7547 141.856 47.8218C141.879 47.889 141.888 47.9601 141.881 48.0306Z" fill="#1E1D34"/>
<path d="M119.451 46.614H97.0597V48.4314H119.451V46.614Z" fill="#1E1D34"/>
<path d="M117.015 79.22C117.015 70.7295 107.853 65.3518 98.5099 69.6064C96.3958 70.5679 94.6663 72.1812 93.5894 74.1965C91.2392 78.6282 92.2779 83.6889 94.4079 87.8922L101.683 105.838C101.913 106.41 102.315 106.901 102.836 107.247C103.356 107.593 103.972 107.778 104.603 107.778C105.234 107.778 105.85 107.593 106.371 107.247C106.892 106.901 107.293 106.41 107.523 105.838L114.65 87.799C117.12 82.3002 117.015 79.22 117.015 79.22ZM108.255 86.6294C101.975 90.185 95.6093 83.6144 99.0508 77.1276C99.5043 76.2722 100.196 75.5584 101.047 75.0679C107.331 71.5123 113.698 78.0829 110.251 84.5697C109.8 85.4264 109.108 86.1407 108.255 86.6294Z" fill="#C9C900"/>
<path d="M251.282 150.749H44.3877V183.777H251.282V150.749Z" fill="#C9C900"/>
<g opacity="0.5">
<path opacity="0.5" d="M251.282 150.749H44.3877V183.777H251.282V150.749Z" fill="black"/>
</g>
<path d="M73.5314 205.208C84.5248 204.403 92.837 194.055 92.0971 182.095C91.3573 170.135 81.8457 161.092 70.8522 161.897C59.8588 162.701 51.5466 173.049 52.2865 185.009C53.0263 196.97 62.5379 206.013 73.5314 205.208Z" fill="#1E1D34"/>
<path d="M52.2448 183.185C52.2448 183.205 52.2448 183.225 52.2448 183.241C52.2068 186.092 52.6853 188.922 53.6528 191.571C54.6203 194.22 56.058 196.636 57.8837 198.681C59.7095 200.726 61.8875 202.359 64.2935 203.488C66.6994 204.617 69.2862 205.219 71.9061 205.26C74.5261 205.302 77.1278 204.781 79.5628 203.729C81.9978 202.676 84.2184 201.112 86.0978 199.126C87.9772 197.139 89.4786 194.77 90.5163 192.152C91.5539 189.535 92.1075 186.721 92.1455 183.87C92.1455 183.85 92.1455 183.83 92.1455 183.813L52.2448 183.185Z" fill="#1E1D34"/>
<path d="M58.1851 183.335C58.1441 186.348 58.9256 189.308 60.4307 191.838C61.9358 194.369 64.0969 196.357 66.6408 197.551C69.1846 198.745 71.9968 199.092 74.7217 198.547C77.4466 198.002 79.9617 196.591 81.949 194.49C83.9363 192.39 85.3064 189.696 85.8861 186.749C86.4658 183.801 86.229 180.733 85.2057 177.932C84.1823 175.131 82.4184 172.723 80.137 171.013C77.8556 169.303 75.1593 168.367 72.389 168.324C68.6761 168.267 65.0942 169.816 62.4307 172.63C59.7672 175.445 58.2401 179.295 58.1851 183.335Z" fill="#FAFAFA"/>
<path d="M72.3891 168.32C68.6759 168.261 65.0934 169.81 62.4297 172.625C59.766 175.44 58.2392 179.291 58.1852 183.331L86.194 183.773C86.2468 179.732 84.822 175.834 82.2331 172.936C79.6443 170.038 76.1033 168.378 72.3891 168.32Z" fill="#E0E0E0"/>
<path d="M63.6594 183.42C63.6345 185.256 64.1106 187.059 65.0275 188.6C65.9445 190.141 67.2611 191.352 68.8107 192.08C70.3604 192.807 72.0735 193.018 73.7334 192.686C75.3933 192.354 76.9254 191.494 78.1359 190.214C79.3464 188.935 80.1809 187.294 80.5338 185.498C80.8868 183.703 80.7424 181.834 80.1188 180.127C79.4953 178.421 78.4206 176.955 77.0307 175.913C75.6409 174.871 73.9983 174.301 72.3107 174.276C71.1908 174.258 70.0785 174.48 69.0376 174.93C67.9967 175.38 67.0474 176.049 66.244 176.898C65.4406 177.747 64.7989 178.76 64.3554 179.879C63.9119 180.998 63.6754 182.201 63.6594 183.42Z" fill="#1E1D34"/>
<path d="M225.909 205.2C236.908 204.506 245.308 194.242 244.67 182.275C244.032 170.308 234.598 161.17 223.598 161.864C212.598 162.558 204.198 172.822 204.836 184.789C205.474 196.756 214.909 205.894 225.909 205.2Z" fill="#1E1D34"/>
<path d="M204.8 183.185C204.8 183.205 204.8 183.225 204.8 183.241C204.762 186.092 205.24 188.922 206.208 191.571C207.175 194.22 208.613 196.636 210.439 198.681C212.265 200.726 214.443 202.359 216.849 203.488C219.254 204.617 221.841 205.219 224.461 205.26C227.081 205.302 229.683 204.781 232.118 203.729C234.553 202.676 236.774 201.112 238.653 199.126C240.532 197.139 242.034 194.77 243.071 192.152C244.109 189.535 244.663 186.721 244.701 183.87C244.701 183.85 244.701 183.83 244.701 183.813L204.8 183.185Z" fill="#1E1D34"/>
<path d="M210.74 183.335C210.699 186.348 211.481 189.308 212.986 191.838C214.491 194.369 216.652 196.357 219.196 197.551C221.74 198.745 224.552 199.092 227.277 198.547C230.002 198.002 232.517 196.591 234.504 194.49C236.491 192.39 237.861 189.696 238.441 186.749C239.021 183.801 238.784 180.733 237.761 177.932C236.737 175.131 234.973 172.723 232.692 171.013C230.411 169.303 227.714 168.367 224.944 168.324C221.231 168.267 217.649 169.816 214.986 172.63C212.322 175.445 210.795 179.295 210.74 183.335Z" fill="#FAFAFA"/>
<path d="M224.944 168.32C221.231 168.261 217.648 169.81 214.985 172.625C212.321 175.44 210.794 179.291 210.74 183.331L238.749 183.773C238.802 179.732 237.377 175.834 234.788 172.936C232.199 170.038 228.658 168.378 224.944 168.32Z" fill="#E0E0E0"/>
<path d="M216.203 183.42C216.178 185.256 216.655 187.059 217.571 188.6C218.488 190.141 219.805 191.352 221.355 192.08C222.904 192.807 224.617 193.018 226.277 192.686C227.937 192.354 229.469 191.494 230.68 190.214C231.89 188.935 232.725 187.294 233.078 185.498C233.431 183.703 233.286 181.834 232.663 180.127C232.039 178.421 230.965 176.955 229.575 175.913C228.185 174.871 226.542 174.301 224.855 174.276C223.735 174.258 222.622 174.48 221.582 174.93C220.541 175.38 219.591 176.049 218.788 176.898C217.985 177.747 217.343 178.76 216.899 179.879C216.456 180.998 216.219 182.201 216.203 183.42Z" fill="#1E1D34"/>
<path d="M98.3395 132.169C98.3395 132.169 68.9621 134.526 58.0658 137.183C50.3915 139.053 35.5946 142.287 35.7736 152.413L36.9483 159.675C36.9483 159.675 31.4628 162.401 31.4628 169.363C31.4628 176.324 30.1241 187.116 42.9371 187.55C45.0477 187.619 49.0565 187.55 49.0565 187.55C49.0565 187.55 46.599 157.861 71.6656 156.993C97.1685 156.109 95.4756 187.278 95.4756 187.278H201.914C201.914 187.278 197.543 156.912 224.996 156.851C252.45 156.79 248.273 187.477 248.273 187.477C248.273 187.477 258.371 188.426 263.07 179.193C267.768 169.959 266.549 163.371 266.549 163.371L266.392 157.533C266.363 156.575 266 155.665 265.376 154.987C264.753 154.309 263.917 153.914 263.036 153.881C263.036 153.881 264.871 139.187 262.056 136.644C259.24 134.1 243.813 118.752 243.813 118.752L244.559 118.253C244.835 118.063 245.057 117.792 245.197 117.47C245.338 117.149 245.391 116.791 245.352 116.438C245.313 116.084 245.183 115.75 244.977 115.474C244.77 115.198 244.496 114.992 244.186 114.878C238.328 112.687 226.745 108.351 224.023 107.316C223.615 107.158 223.19 107.06 222.759 107.024C221.133 106.89 216.531 106.574 208.085 106.476C197.797 106.355 156.949 106.476 156.949 106.476C156.949 106.476 142.89 107.734 135.059 111.482C126.848 115.426 98.3395 132.169 98.3395 132.169Z" fill="#C9C900"/>
<g opacity="0.4">
<path opacity="0.4" d="M38.9135 168.551C37.8469 168.316 36.2136 168.296 35.4007 169.079C34.7966 169.663 34.6362 170.608 34.5467 171.48C34.3755 172.675 34.4007 173.894 34.6213 175.079C34.7338 175.671 34.9575 176.231 35.2783 176.725C35.5992 177.218 36.0103 177.634 36.4858 177.947C37.4629 178.523 38.7979 178.43 39.5548 177.541C40.2484 176.73 40.3268 175.513 40.3007 174.43C40.2746 172.864 40.3902 171.537 40.1254 170C40.067 169.673 39.9393 169.366 39.7525 169.103C39.6596 168.945 39.5345 168.813 39.3871 168.717C39.2396 168.621 39.0737 168.563 38.9023 168.547" fill="black"/>
</g>
<path d="M36.9558 159.675C40.0733 159.675 43.0975 159.488 46.2113 159.269C46.5505 159.285 46.8846 159.175 47.1584 158.957C47.2837 158.787 47.3769 158.592 47.4325 158.383C47.4882 158.174 47.5053 157.956 47.4829 157.74C47.4829 155.922 47.4157 153.853 46.1479 152.668C45.3722 151.946 44.3094 151.719 43.2914 151.618C40.7633 151.321 38.2061 151.597 35.7811 152.429L36.9558 159.675Z" fill="#FAFAFA"/>
<path d="M101.722 186.349C101.722 186.349 101.722 186.252 101.699 186.057C101.677 185.862 101.67 185.574 101.647 185.205C101.61 184.45 101.554 183.351 101.483 181.931C101.412 180.511 101.323 178.771 101.136 176.758C100.944 174.48 100.576 172.223 100.036 170.012C99.3555 167.34 98.3458 164.782 97.0344 162.405C95.549 159.661 93.575 157.266 91.2283 155.362C86.1978 151.468 79.3997 149.277 72.2885 149.171C65.1772 149.066 58.3754 151.512 53.468 155.614C51.1157 157.507 49.0551 159.795 47.3635 162.393C45.8866 164.648 44.6857 167.103 43.7911 169.695C43.0532 171.838 42.5464 174.067 42.2809 176.337C42.0729 178.048 42.0117 179.777 42.0981 181.501C42.1593 182.59 42.2839 183.674 42.471 184.747C42.5307 185.108 42.5792 185.388 42.609 185.582C42.6389 185.777 42.65 185.87 42.65 185.87C42.65 185.87 42.6277 185.777 42.5904 185.59L42.43 184.779C42.2271 183.709 42.0925 182.624 42.0273 181.533C41.9259 179.804 41.9758 178.068 42.1765 176.349C42.4335 174.067 42.934 171.826 43.6681 169.671C44.5595 167.058 45.7605 164.583 47.2405 162.308C48.9359 159.689 51.0056 157.383 53.371 155.476C58.3008 151.354 65.1175 148.883 72.2847 148.985C79.4519 149.086 86.2612 151.297 91.3327 155.228C93.6935 157.151 95.6776 159.568 97.1686 162.336C98.4788 164.731 99.4825 167.309 100.152 170C100.688 172.22 101.049 174.487 101.23 176.775C101.405 178.803 101.483 180.531 101.543 181.951C101.602 183.371 101.643 184.475 101.673 185.229C101.673 185.598 101.696 185.882 101.703 186.081C101.711 186.28 101.722 186.349 101.722 186.349Z" fill="white"/>
<path d="M102.84 186.852V186.609L102.818 185.891C102.799 185.25 102.773 184.312 102.736 183.087C102.673 180.625 102.579 177.026 102.46 172.446C102.341 167.866 102.203 162.304 102.042 155.934C102.001 154.34 101.964 152.689 101.919 151.005C101.893 150.145 101.928 149.283 102.024 148.429L102.192 147.123L102.438 145.812C102.824 144.022 103.38 142.28 104.097 140.615C104.836 138.87 105.748 137.218 106.819 135.69L125.252 123.057L130.23 119.649C131.908 118.436 133.67 117.366 135.499 116.448C137.37 115.49 139.29 114.648 141.249 113.929C142.227 113.556 143.23 113.251 144.233 112.927C145.236 112.602 146.258 112.334 147.294 112.115C151.203 111.206 155.177 110.663 159.171 110.493C163.004 110.293 166.844 110.306 170.675 110.533H170.784L170.757 110.651L165.805 134.753C164.89 136.387 164.14 138.124 163.568 139.934C163.004 141.65 162.751 143.468 162.822 145.289C162.949 147.07 162.994 148.814 163.035 150.506C163.076 152.198 163.094 153.837 163.124 155.431C163.21 161.801 163.232 167.354 163.247 171.931C163.262 176.507 163.247 180.105 163.247 182.564C163.247 183.781 163.247 184.726 163.247 185.367C163.247 185.68 163.247 185.919 163.247 186.085C163.247 186.252 163.247 186.329 163.247 186.329C163.247 186.329 163.247 186.243 163.247 186.085C163.247 185.927 163.247 185.68 163.247 185.367C163.247 184.726 163.247 183.789 163.247 182.564C163.247 180.105 163.214 176.507 163.187 171.935C163.161 167.363 163.124 161.792 163.023 155.431C162.994 153.841 162.961 152.2 162.926 150.51C162.882 148.818 162.837 147.082 162.706 145.301C162.631 143.458 162.884 141.616 163.452 139.877C164.021 138.053 164.771 136.302 165.69 134.656V134.684C167.207 127.264 168.867 119.166 170.623 110.578L170.709 110.699C166.886 110.475 163.055 110.465 159.231 110.667C155.246 110.835 151.282 111.378 147.384 112.29C146.351 112.513 145.344 112.825 144.333 113.101C143.323 113.377 142.335 113.73 141.35 114.099C139.391 114.82 137.471 115.662 135.6 116.623C133.78 117.534 132.027 118.598 130.357 119.803L125.375 123.211L106.942 135.816V135.796C105.874 137.313 104.963 138.956 104.228 140.692C103.511 142.345 102.956 144.074 102.572 145.853C101.733 149.33 102.154 152.75 102.162 155.934L102.535 172.446C102.635 177.022 102.714 180.625 102.766 183.083C102.792 184.3 102.807 185.25 102.822 185.891C102.822 186.202 102.822 186.441 102.822 186.609C102.84 186.771 102.84 186.852 102.84 186.852Z" fill="#1E1D34"/>
<path d="M170.541 111.203H170.716L171.227 111.182L173.207 111.13L180.55 110.975L205.303 110.513H205.352L205.381 110.553L208.849 115.174C212.362 119.868 215.711 124.331 218.754 128.388L219.873 129.889C220.235 130.392 220.546 130.936 220.801 131.512C221.263 132.579 221.514 133.74 221.538 134.92C221.562 136.099 221.358 137.271 220.939 138.36L219.82 141.199L216.397 149.816L215.457 152.153L215.207 152.762C215.152 152.896 215.118 152.965 215.118 152.965C215.118 152.965 215.14 152.892 215.189 152.754C215.237 152.616 215.323 152.401 215.42 152.137C215.633 151.593 215.935 150.798 216.326 149.784L219.682 141.143C220.324 139.309 221.454 137.378 221.375 135.025C221.359 133.829 221.104 132.651 220.629 131.572C220.379 131.012 220.074 130.483 219.72 129.994L218.601 128.493L208.685 115.292L205.221 110.671L205.296 110.712L180.539 111.117L173.196 111.211H171.216H170.709L170.541 111.203Z" fill="#1E1D34"/>
<path d="M158.03 147.017C158.03 147.017 158.135 147.017 158.325 146.968C158.605 146.914 158.871 146.798 159.108 146.628C159.484 146.361 159.765 145.963 159.906 145.5C159.991 145.212 160.027 144.909 160.01 144.607C160.002 144.271 159.922 143.94 159.779 143.642C159.612 143.302 159.365 143.017 159.063 142.816C158.76 142.616 158.414 142.507 158.06 142.502H155.547H149.785C149.299 142.503 148.83 142.702 148.473 143.062C148.124 143.407 147.901 143.878 147.846 144.388C147.79 144.881 147.873 145.381 148.085 145.82C148.301 146.233 148.637 146.557 149.04 146.741C149.438 146.89 149.861 146.947 150.281 146.908H151.501H153.693L156.867 146.94L157.728 146.96C157.829 146.958 157.93 146.966 158.03 146.985C157.93 146.997 157.829 147.004 157.728 147.005H156.867L153.693 147.037H151.501H150.281C150.069 147.037 149.864 147.037 149.636 147.037C149.408 147.022 149.184 146.966 148.972 146.871C148.53 146.673 148.161 146.321 147.925 145.869C147.688 145.394 147.595 144.851 147.66 144.315C147.718 143.746 147.967 143.22 148.359 142.838C148.751 142.456 149.259 142.244 149.785 142.242H155.547H158.064C158.444 142.251 158.816 142.371 159.139 142.59C159.462 142.81 159.724 143.12 159.898 143.488C160.048 143.807 160.128 144.16 160.133 144.518C160.146 144.835 160.104 145.151 160.01 145.451C159.853 145.933 159.549 146.342 159.149 146.611C158.902 146.782 158.623 146.889 158.332 146.924C158.235 146.968 158.134 146.999 158.03 147.017Z" fill="#1E1D34"/>
<path d="M213.22 147.017C213.22 147.017 213.324 147.017 213.515 146.968C213.794 146.914 214.061 146.798 214.298 146.628C214.673 146.361 214.955 145.963 215.096 145.5C215.181 145.212 215.217 144.909 215.2 144.607C215.191 144.271 215.112 143.94 214.969 143.642C214.802 143.302 214.555 143.017 214.252 142.816C213.95 142.616 213.604 142.507 213.25 142.502H210.736H204.975C204.488 142.503 204.02 142.702 203.662 143.062C203.313 143.407 203.091 143.878 203.036 144.388C202.979 144.881 203.063 145.381 203.275 145.82C203.491 146.233 203.826 146.557 204.229 146.741C204.628 146.89 205.051 146.947 205.471 146.908H206.69H208.883L212.056 146.94L212.918 146.96C213.019 146.958 213.12 146.966 213.22 146.985C213.12 146.997 213.019 147.004 212.918 147.005H212.056L208.883 147.037H206.69H205.471C205.258 147.037 205.053 147.037 204.826 147.037C204.598 147.022 204.373 146.966 204.162 146.871C203.72 146.673 203.351 146.321 203.114 145.869C202.878 145.394 202.785 144.851 202.849 144.315C202.908 143.746 203.157 143.22 203.549 142.838C203.941 142.456 204.449 142.244 204.975 142.242H210.736H213.254C213.634 142.251 214.005 142.371 214.328 142.59C214.651 142.81 214.914 143.12 215.088 143.488C215.238 143.807 215.318 144.16 215.323 144.518C215.335 144.835 215.293 145.151 215.2 145.451C215.042 145.933 214.739 146.342 214.339 146.611C214.092 146.782 213.813 146.889 213.522 146.924C213.425 146.968 213.324 146.999 213.22 147.017Z" fill="#1E1D34"/>
<path d="M261.582 137.224H250.544C249.802 137.223 249.074 137.444 248.438 137.86C247.803 138.277 247.284 138.875 246.938 139.589C246.653 140.18 246.495 140.833 246.474 141.499C246.454 142.166 246.571 142.829 246.819 143.439L251.144 154.137L262.197 154.019C262.197 154.019 264.55 140.457 261.582 137.224Z" fill="#FAFAFA"/>
<path d="M108.285 135.71L165.238 134.566L202.305 133.828L214.529 126.148C214.761 126.001 214.962 125.802 215.118 125.564C215.275 125.326 215.383 125.054 215.435 124.767C215.488 124.48 215.484 124.185 215.423 123.899C215.363 123.614 215.247 123.347 215.084 123.114L207.474 112.237C207.083 111.677 206.579 111.222 206.001 110.907C205.423 110.592 204.786 110.425 204.14 110.42L162.68 110.054C162.68 110.054 147.071 109.065 134.768 116.546C121.832 124.444 108.285 135.71 108.285 135.71Z" fill="#1E1D34"/>
<path d="M134.384 111.178C134.384 111.178 137.241 112.594 135.384 113.904C133.527 115.215 104.671 135 104.671 135L98.0375 131.735C109.788 124.623 121.654 117.706 134.384 111.178Z" fill="#455A64"/>
<path d="M105.604 135.504L105.425 135.552L104.899 135.678L102.874 136.132C101.114 136.514 98.5631 137.049 95.4158 137.642C89.0765 138.826 80.3057 140.206 70.5468 141.122C68.1043 141.354 65.6991 141.528 63.4169 141.707C61.1347 141.885 58.8899 142.027 56.7792 142.234C52.5542 142.64 48.773 143.305 45.7002 144.299C43.2579 145.038 40.9075 146.098 38.7008 147.455C37.9066 147.91 37.3397 148.356 36.9407 148.624L36.4858 148.936L36.3254 149.037C36.3733 148.995 36.4231 148.956 36.4746 148.92L36.9184 148.587C37.3136 148.307 37.873 147.849 38.6635 147.37C40.8568 145.975 43.202 144.885 45.6443 144.125C48.7245 143.106 52.5169 142.421 56.7457 142.011C58.86 141.792 61.0825 141.638 63.3871 141.471C65.6916 141.305 68.0745 141.11 70.5133 140.879C80.2685 139.962 89.0503 138.607 95.3785 137.459C98.5445 136.887 101.095 136.376 102.859 136.019L104.891 135.613L105.421 135.508L105.604 135.504Z" fill="#1E1D34"/>
<path d="M265.993 163.249C265.993 163.31 262.197 163.354 257.517 163.354C252.837 163.354 249.037 163.31 249.037 163.249C249.037 163.188 252.834 163.143 257.517 163.143C262.201 163.143 265.993 163.192 265.993 163.249Z" fill="#1E1D34"/>
<path d="M196.547 173.789C196.547 173.85 175.12 173.894 148.693 173.894C122.265 173.894 100.834 173.85 100.834 173.789C100.834 173.728 122.258 173.683 148.693 173.683C175.128 173.683 196.547 173.732 196.547 173.789Z" fill="#1E1D34"/>
<path d="M46.5319 163.598C46.5319 163.659 43.5002 163.703 39.7637 163.703C36.0272 163.703 32.9955 163.659 32.9955 163.598C32.9955 163.537 36.0272 163.492 39.7637 163.492C43.5002 163.492 46.5319 163.541 46.5319 163.598Z" fill="#1E1D34"/>
<path d="M243.526 118.331C243.526 118.331 240.983 121.426 241.982 123.698C242.981 125.97 253.315 133.929 253.315 133.929L260.814 135.459L243.526 118.331Z" fill="#455A64"/>
<path d="M172.227 112.785L170.541 132.599L200.716 131.662L212.877 123.97L205.005 112.785H172.227Z" fill="#455A64"/>
<path d="M115.43 133.613C115.43 133.613 133.635 119.308 140.817 116.464C147.749 113.722 151.363 113.032 157.874 112.813C164.097 112.618 167.89 112.813 167.89 112.813L163.079 132.956L115.43 133.613Z" fill="#455A64"/>
<path d="M112.767 133.662C112.767 133.046 112.918 132.441 113.204 131.909C113.489 131.377 113.9 130.938 114.393 130.635L118.577 128.079C119.769 127.349 121.114 126.967 122.481 126.968C123.323 126.969 124.16 127.114 124.961 127.398C125.833 127.726 126.592 128.336 127.137 129.145C127.682 129.955 127.987 130.926 128.011 131.929C128.035 132.603 127.933 133.275 127.712 133.905C127.492 134.535 127.156 135.11 126.726 135.596C126.296 136.082 125.78 136.468 125.21 136.732C124.639 136.995 124.026 137.131 123.406 137.13H115.948C115.104 137.128 114.295 136.762 113.698 136.112C113.102 135.461 112.767 134.58 112.767 133.662Z" fill="#C9C900"/>
<path d="M112.767 133.662C112.767 133.662 112.767 133.816 112.816 134.1C112.872 134.518 112.998 134.921 113.189 135.289C113.49 135.868 113.934 136.345 114.471 136.664C114.806 136.855 115.17 136.978 115.545 137.029C115.973 137.063 116.403 137.073 116.832 137.057L123.212 137.033C123.817 137.051 124.419 136.943 124.987 136.717C125.587 136.473 126.132 136.094 126.587 135.604C127.042 135.115 127.396 134.526 127.627 133.877C127.862 133.192 127.958 132.46 127.907 131.731C127.857 131.012 127.662 130.314 127.337 129.687C127.012 129.06 126.563 128.518 126.024 128.1C125.503 127.708 124.916 127.432 124.297 127.288C122.597 126.851 120.811 127.038 119.218 127.82C118.737 128.055 118.297 128.351 117.861 128.607L116.616 129.361L114.471 130.651C113.932 130.967 113.487 131.445 113.189 132.027C113 132.396 112.874 132.798 112.816 133.215C112.778 133.499 112.782 133.654 112.771 133.654C112.757 133.505 112.757 133.356 112.771 133.207C112.813 132.782 112.929 132.368 113.114 131.99C113.407 131.384 113.857 130.885 114.408 130.554L116.537 129.236L117.775 128.469C118.208 128.209 118.648 127.909 119.14 127.657C120.763 126.845 122.588 126.645 124.327 127.089C124.969 127.228 125.578 127.504 126.121 127.901C126.685 128.335 127.153 128.9 127.494 129.554C127.834 130.208 128.038 130.936 128.09 131.686C128.144 132.447 128.045 133.211 127.799 133.925C127.558 134.604 127.188 135.218 126.712 135.729C126.236 136.24 125.666 136.634 125.039 136.887C124.45 137.118 123.827 137.226 123.201 137.207L116.821 137.187C116.386 137.197 115.952 137.182 115.519 137.143C115.127 137.083 114.747 136.946 114.4 136.737C113.851 136.402 113.401 135.904 113.103 135.301C112.921 134.922 112.805 134.509 112.763 134.084C112.754 133.943 112.756 133.802 112.767 133.662Z" fill="#1E1D34"/>
<path d="M253.024 186.532C253.024 186.532 253.024 186.438 253.024 186.252C253.024 186.065 253.054 185.785 253.076 185.44C253.098 185.095 253.136 184.629 253.158 184.101C253.18 183.574 253.195 182.957 253.214 182.272C253.233 181.586 253.214 180.815 253.214 179.98C253.214 179.144 253.158 178.231 253.054 177.257C252.884 175.051 252.523 172.867 251.976 170.734C251.653 169.49 251.256 168.27 250.786 167.083C250.288 165.8 249.686 164.567 248.989 163.399C247.435 160.824 245.458 158.582 243.157 156.786C240.624 154.786 237.797 153.268 234.796 152.299C231.686 151.265 228.3 150.887 224.855 150.859C221.494 150.826 218.148 151.355 214.935 152.429C213.414 152.952 211.937 153.616 210.52 154.413C209.169 155.194 207.886 156.106 206.687 157.139C204.457 159.039 202.47 161.255 200.78 163.728C200.037 164.862 199.381 166.062 198.818 167.314C198.306 168.474 197.853 169.665 197.461 170.88C196.27 174.542 195.544 178.364 195.306 182.239C195.246 183.615 195.254 184.673 195.287 185.412C195.306 185.769 195.321 186.041 195.328 186.223C195.336 186.406 195.328 186.503 195.328 186.503C195.328 186.503 195.328 186.41 195.298 186.223C195.268 186.037 195.261 185.757 195.235 185.412C195.186 184.354 195.186 183.293 195.235 182.235C195.441 178.338 196.148 174.491 197.334 170.807C197.726 169.586 198.177 168.389 198.684 167.221C199.251 165.959 199.91 164.749 200.653 163.602C202.349 161.113 204.342 158.881 206.579 156.965C207.785 155.924 209.076 155.003 210.434 154.214C211.861 153.41 213.348 152.741 214.879 152.214C218.11 151.127 221.477 150.592 224.858 150.628C228.319 150.656 231.72 151.033 234.856 152.08C237.876 153.058 240.721 154.589 243.269 156.608C244.448 157.552 245.551 158.606 246.565 159.756C247.528 160.835 248.387 162.019 249.127 163.289C249.826 164.468 250.429 165.712 250.928 167.006C251.397 168.192 251.792 169.412 252.11 170.657C252.654 172.8 253.008 174.996 253.165 177.213C253.266 178.186 253.266 179.099 253.307 179.939C253.348 180.779 253.307 181.562 253.307 182.235C253.307 182.909 253.251 183.538 253.229 184.069C253.206 184.6 253.158 185.043 253.128 185.408C253.098 185.773 253.076 186.037 253.061 186.219C253.046 186.402 253.024 186.532 253.024 186.532Z" fill="white"/>
<path d="M162.281 135.71H162.196H161.942L160.969 135.735L157.393 135.804C154.372 135.865 150.203 135.986 145.594 136.124C140.985 136.262 136.812 136.355 133.791 136.38C132.281 136.38 131.058 136.38 130.212 136.38H129.238H128.988C128.959 136.386 128.928 136.386 128.899 136.38C128.929 136.375 128.959 136.375 128.988 136.38H129.238L130.212 136.355L133.788 136.287C136.808 136.226 140.981 136.104 145.59 135.97C150.199 135.836 154.372 135.735 157.393 135.71C158.884 135.71 160.126 135.71 160.969 135.71H161.942H162.196H162.281Z" fill="white"/>
<path d="M157.337 141.808C156.251 141.915 155.16 141.95 154.07 141.913C152.98 141.95 151.889 141.915 150.803 141.808C151.889 141.704 152.98 141.668 154.07 141.703C155.16 141.668 156.251 141.704 157.337 141.808Z" fill="white"/>
<path d="M158.537 120.099C158.556 120.152 154.502 121.99 149.479 124.201C144.456 126.412 140.369 128.165 140.347 128.108C140.325 128.051 144.382 126.217 149.405 124.006C154.428 121.795 158.515 120.047 158.537 120.099Z" fill="white"/>
<path d="M150.319 121.491C150.341 121.548 146.478 123.398 141.693 125.625C136.909 127.852 133.016 129.617 132.994 129.564C132.971 129.511 136.834 127.661 141.619 125.43C146.403 123.199 150.296 121.43 150.319 121.491Z" fill="white"/>
<path d="M202.436 119.333C202.458 119.385 198.401 121.223 193.378 123.434C188.355 125.645 184.268 127.394 184.245 127.341C184.223 127.288 188.28 125.451 193.307 123.239C198.334 121.028 202.406 119.276 202.436 119.333Z" fill="white"/>
<path d="M194.202 120.716C194.224 120.773 190.361 122.623 185.58 124.85C180.8 127.077 176.899 128.842 176.877 128.789C176.854 128.737 180.718 126.887 185.502 124.655C190.286 122.424 194.202 120.68 194.202 120.716Z" fill="white"/>
<path d="M203.23 135.69C203.23 135.747 195.164 135.848 185.215 135.913C175.266 135.978 167.2 135.982 167.2 135.913C167.2 135.844 175.262 135.755 185.215 135.694C195.168 135.633 203.23 135.646 203.23 135.69Z" fill="white"/>
<path d="M212.161 141.471C212.161 141.528 209.901 141.597 207.108 141.625C204.315 141.654 202.055 141.625 202.055 141.573C202.055 141.52 204.315 141.443 207.108 141.414C209.901 141.386 212.161 141.41 212.161 141.471Z" fill="white"/>
<path d="M57.7191 138.469C57.6479 138.495 57.574 138.512 57.4991 138.518L56.8689 138.607C56.5929 138.64 56.2573 138.684 55.8695 138.757C55.4817 138.83 55.0379 138.883 54.5531 138.988C53.5799 139.175 52.4276 139.451 51.1672 139.8C49.8018 140.21 48.4564 140.694 47.1361 141.252C45.7339 141.857 44.4325 142.518 43.2691 143.171C42.1056 143.824 41.0987 144.482 40.2858 145.07C39.8644 145.35 39.499 145.634 39.1671 145.881C38.8352 146.129 38.563 146.331 38.3393 146.51L37.8209 146.916C37.7615 146.966 37.6979 147.009 37.6307 147.046C37.6802 146.985 37.7351 146.931 37.7948 146.883L38.2945 146.449C38.5108 146.263 38.7793 146.043 39.1037 145.788C39.4281 145.532 39.7824 145.248 40.2224 144.976C41.0428 144.372 42.0571 143.711 43.2057 143.033C45.7201 141.571 48.3834 140.434 51.1411 139.646C52.4089 139.289 53.5687 139.025 54.5494 138.859C55.0379 138.761 55.4817 138.713 55.8732 138.656C56.2648 138.599 56.619 138.562 56.8763 138.542L57.514 138.489C57.5818 138.477 57.6504 138.471 57.7191 138.469Z" fill="white"/>
<path d="M124.312 128.899C124.312 128.899 124.204 128.741 123.939 128.522C123.582 128.224 123.156 128.037 122.709 127.982C122.038 127.921 121.362 128 120.717 128.213C118.447 128.835 116.338 130.017 114.553 131.666C113.666 132.477 113.196 133.073 113.17 133.045C113.26 132.89 113.365 132.746 113.483 132.615C113.791 132.242 114.118 131.888 114.46 131.552C115.599 130.448 116.894 129.55 118.294 128.891C119.062 128.525 119.86 128.235 120.676 128.027C121.342 127.816 122.039 127.75 122.727 127.832C123.195 127.902 123.634 128.12 123.988 128.461C124.082 128.553 124.166 128.656 124.238 128.769C124.297 128.85 124.32 128.895 124.312 128.899Z" fill="white"/>
<path d="M244.372 118.185C243.853 118.321 243.318 118.381 242.784 118.363C242.156 118.343 241.532 118.258 240.919 118.112C240.11 117.905 239.316 117.633 238.544 117.3C237.682 116.947 236.765 116.489 235.773 116.038L234.226 115.361C233.692 115.13 233.129 114.931 232.562 114.704C230.073 113.787 227.535 113.035 224.963 112.452C220.285 111.393 215.536 110.752 210.762 110.537C209.845 110.484 209.017 110.484 208.286 110.464H206.422L205.244 110.493H204.83C204.864 110.485 204.9 110.485 204.934 110.493L205.24 110.468L206.422 110.399L208.286 110.363C209.032 110.363 209.845 110.363 210.762 110.411C215.549 110.581 220.313 111.206 225 112.278C227.578 112.854 230.12 113.607 232.611 114.533C233.178 114.76 233.73 114.963 234.278 115.199L235.825 115.892C236.817 116.359 237.731 116.813 238.585 117.174C239.347 117.509 240.131 117.78 240.93 117.986C241.535 118.143 242.152 118.238 242.773 118.27C243.165 118.284 243.557 118.269 243.947 118.225L244.249 118.185H244.372Z" fill="#1E1D34"/>
<path d="M66.7061 116.134C65.2021 107.937 64.1906 106.678 63.3409 103.857C62.4911 101.036 61.1413 99.2041 59.4606 98.556C58.3326 98.1214 52.6662 96.0871 50.696 96.7615C48.7683 97.4443 46.9332 98.363 45.2327 99.4963C43.913 100.368 42.913 101.644 42.3826 103.13L39.3746 111.586L44.6687 116.831L47.3233 111.211L50.2034 117.955L49.7786 124.754L66.2962 129.182C67.7852 126.785 67.5596 120.783 66.7061 116.134Z" fill="#C9C900"/>
<g opacity="0.2">
<path opacity="0.2" d="M62.4159 107.191C61.6865 111.458 61.5699 112.062 60.8405 116.314C60.5886 117.779 59.8554 120.06 58.8101 121.124C58.0355 121.907 57.276 122.66 56.1969 122.915C55.1967 123.151 53.6739 123.177 52.7339 122.765C51.7939 122.353 50.9893 120.517 51.3766 119.577C52.7791 119.876 53.2115 120.326 54.4184 119.577C55.4712 118.91 56.9677 117.434 57.5392 116.329C59.9494 111.683 60.6149 111.518 62.4272 107.191" fill="black"/>
</g>
<path d="M50.4479 115.46C50.1807 115.101 49.9371 114.725 49.7184 114.336L48.0189 111.552L46.2743 108.813C46.0142 108.445 45.7793 108.059 45.5712 107.66C45.6617 107.742 45.7413 107.835 45.808 107.937C45.9509 108.12 46.1502 108.394 46.3871 108.735C46.8684 109.417 47.5151 110.372 48.1844 111.447C48.8536 112.522 49.4364 113.519 49.8388 114.249C50.0418 114.624 50.2148 114.909 50.305 115.119C50.3702 115.224 50.4184 115.339 50.4479 115.46Z" fill="#1E1D34"/>
<path d="M61.9761 123.113C61.8563 123.175 61.7303 123.224 61.6001 123.259C61.446 123.311 61.289 123.353 61.1301 123.387C60.9223 123.443 60.7114 123.487 60.4984 123.518C59.9472 123.616 59.3888 123.667 58.8289 123.672C58.142 123.673 57.4563 123.614 56.7797 123.495C56.1038 123.369 55.4407 123.182 54.7982 122.937C54.2784 122.735 53.7755 122.492 53.2942 122.21C53.0837 122.094 52.9182 121.967 52.7528 121.866C52.6159 121.777 52.4841 121.681 52.358 121.577C52.2433 121.499 52.1386 121.407 52.0459 121.304C52.0685 121.274 52.5347 121.637 53.3619 122.091C53.8469 122.351 54.3494 122.578 54.8659 122.769C56.1352 123.24 57.4781 123.485 58.8327 123.492C59.3847 123.492 59.9362 123.456 60.4833 123.383C61.4008 123.252 61.9648 123.076 61.9761 123.113Z" fill="#1E1D34"/>
<path d="M55.3472 110.342C55.3171 110.488 53.5424 114.01 53.5424 114.01L45.1651 109.611L44.3116 106.015C44.1708 105.437 43.8061 104.939 43.2973 104.629C42.7886 104.318 42.1772 104.221 41.5969 104.359L39.1266 105.367C39.0247 105.407 38.9343 105.471 38.8634 105.554C38.7925 105.637 38.7434 105.736 38.7205 105.843C38.6867 106.022 38.7205 106.217 39.0476 106.176C39.6605 106.127 40.9276 105.992 40.9276 105.992L40.3448 108.042C40.191 108.579 40.2502 109.154 40.5103 109.649L40.8863 110.357L41.7022 111.672H41.6834C41.6834 111.672 49.8275 120.008 54.3997 120.551C57.1483 120.877 60.2615 113.2 60.2615 113.2L55.3472 110.342Z" fill="#B78876"/>
<path d="M40.8674 106.131C40.8674 106.131 40.9314 106.045 41.0705 105.951C41.2568 105.822 41.4789 105.754 41.7059 105.756C41.8244 105.763 41.939 105.801 42.0375 105.867C42.1361 105.933 42.2151 106.024 42.2662 106.131C42.3451 106.3 42.2925 106.412 42.2662 106.405C42.2398 106.397 42.2661 106.3 42.1759 106.172C42.1205 106.091 42.0473 106.024 41.962 105.975C41.8767 105.927 41.7814 105.898 41.6834 105.891C41.4799 105.894 41.28 105.946 41.1005 106.041C40.984 106.097 40.8787 106.146 40.8674 106.131Z" fill="#AA6550"/>
<path d="M41.924 107.409C41.924 107.409 41.8676 107.341 41.7886 107.24C41.6877 107.111 41.5539 107.011 41.4011 106.951C41.2484 106.891 41.0822 106.873 40.9201 106.899C40.7922 106.899 40.7133 106.944 40.7058 106.929C40.6982 106.914 40.7659 106.858 40.9013 106.813C41.0802 106.761 41.2713 106.769 41.4448 106.837C41.6183 106.905 41.7644 107.028 41.8601 107.188C41.9278 107.315 41.9353 107.405 41.924 107.409Z" fill="#AA6550"/>
<path d="M57.0842 99.2265L54.8282 109.937L60.8443 113.538L63.1529 106.955C63.1529 106.955 62.1828 98.9605 57.0842 99.2265Z" fill="#C9C900"/>
<path d="M60.3253 99.4139C60.3253 99.4139 60.2764 99.4551 60.1712 99.5113C60.0659 99.5675 59.9155 99.6499 59.7162 99.751C59.3176 99.9533 58.7311 100.238 57.9979 100.564C56.0918 101.432 54.0849 102.061 52.0232 102.437C49.9486 102.807 47.8191 102.735 45.7741 102.227C45.1621 102.067 44.5656 101.853 43.9919 101.587C43.7851 101.501 43.6159 101.407 43.5294 101.354C43.4755 101.328 43.4239 101.296 43.3752 101.261C43.5954 101.335 43.8113 101.421 44.022 101.519C44.6063 101.755 45.207 101.947 45.8192 102.096C47.8487 102.559 49.951 102.61 52.0007 102.246C54.0485 101.871 56.0467 101.263 57.9565 100.437C58.7085 100.129 59.2838 99.8634 59.6936 99.6874C59.8979 99.5824 60.1089 99.491 60.3253 99.4139Z" fill="#EBEBEB"/>
<path d="M61.9083 100.598C61.8568 100.644 61.8 100.684 61.7391 100.718L61.2428 101.036C60.9804 101.207 60.7094 101.365 60.4307 101.508C60.1073 101.677 59.7463 101.883 59.3215 102.07L58.6672 102.37C58.4378 102.475 58.1897 102.561 57.9378 102.662C57.4377 102.868 56.8812 103.037 56.3022 103.224C53.7634 103.987 51.11 104.3 48.4626 104.149C47.8534 104.101 47.2744 104.067 46.7405 103.981C46.4698 103.939 46.2103 103.913 45.9622 103.868L45.2515 103.726C44.8003 103.647 44.398 103.527 44.0446 103.437C43.7406 103.364 43.4407 103.276 43.1459 103.171L42.5857 102.977C42.5186 102.959 42.4541 102.932 42.3939 102.898C42.4633 102.902 42.5317 102.916 42.597 102.939L43.1685 103.097C43.4129 103.171 43.7137 103.258 44.0709 103.333C44.4281 103.407 44.8229 103.524 45.2816 103.591L45.9885 103.718C46.2329 103.763 46.4923 103.786 46.7405 103.82C47.2744 103.898 47.8685 103.928 48.4513 103.969C51.0791 104.103 53.7105 103.792 56.2345 103.052C56.8098 102.872 57.3625 102.711 57.8626 102.508C58.1107 102.411 58.3589 102.329 58.5883 102.231L59.2463 101.943C59.6711 101.77 60.0321 101.568 60.3743 101.411C60.7164 101.253 60.9796 101.1 61.1977 100.972L61.7166 100.688C61.7762 100.649 61.8407 100.619 61.9083 100.598Z" fill="#EBEBEB"/>
<path d="M60.8293 113.538C60.6608 113.467 60.4975 113.384 60.3405 113.29L59.017 112.541L54.505 109.945L54.4486 109.911V109.847C54.6103 109.05 54.7832 108.188 54.9637 107.304C55.2344 105.97 55.4976 104.704 55.7157 103.557C55.8398 102.98 55.9413 102.433 56.0541 101.913C56.1561 101.431 56.3178 100.964 56.5354 100.523C56.8506 99.8668 57.4085 99.358 58.0921 99.1029C58.2771 99.0394 58.4716 99.0078 58.6673 99.0093C58.7346 99.0047 58.8021 99.0123 58.8666 99.0317C58.6101 99.0403 58.3564 99.0884 58.1146 99.1741C57.4688 99.4455 56.9483 99.9481 56.6557 100.583C56.4524 101.019 56.3022 101.478 56.2083 101.95C56.1068 102.463 56.0015 103.014 55.8887 103.587C55.6556 104.749 55.3999 106.015 55.1367 107.334C54.9562 108.222 54.7795 109.079 54.6178 109.877L54.5727 109.78L59.0584 112.436L60.3556 113.223C60.522 113.314 60.6805 113.42 60.8293 113.538Z" fill="#1E1D34"/>
<path d="M62.6679 106.637C62.701 106.97 62.6909 107.306 62.6378 107.637C62.559 108.438 62.4157 109.231 62.2091 110.009C62.0027 110.787 61.7362 111.549 61.412 112.286C61.2944 112.6 61.1364 112.897 60.942 113.17C61.034 112.851 61.1484 112.538 61.2842 112.234C61.8549 110.743 62.2633 109.196 62.5024 107.618C62.5366 107.288 62.5919 106.96 62.6679 106.637Z" fill="#1E1D34"/>
<path d="M30.0498 166.215L29.9821 171.932C29.9821 171.932 24.124 173.787 24.0112 174.843L35.1333 175.367L35.6071 166.462L30.0498 166.215Z" fill="#455A64"/>
<path d="M33.464 171.614C33.5695 171.651 33.6574 171.726 33.7109 171.824C33.7643 171.923 33.7795 172.037 33.7535 172.146C33.7203 172.252 33.6471 172.342 33.5491 172.397C33.451 172.451 33.3357 172.466 33.2271 172.438C33.1156 172.397 33.0231 172.317 32.9669 172.213C32.9108 172.108 32.895 171.987 32.9225 171.872C32.9698 171.765 33.0568 171.68 33.1655 171.635C33.2741 171.591 33.3959 171.59 33.5053 171.632" fill="#E0E0E0"/>
<path d="M35.1334 175.367V174.468L24.4625 174.3C24.4625 174.3 23.9549 174.491 23.9963 174.843L35.1334 175.367Z" fill="#E0E0E0"/>
<path d="M29.8055 171.868C29.8055 171.921 30.0762 171.958 30.3319 172.146C30.5876 172.333 30.7079 172.565 30.7755 172.546C30.8432 172.528 30.7756 172.213 30.4409 171.992C30.1063 171.771 29.7942 171.816 29.8055 171.868Z" fill="#1E1D34"/>
<path d="M28.6135 172.292C28.6135 172.344 28.8316 172.449 28.9895 172.685C29.1474 172.921 29.2038 173.168 29.2602 173.168C29.3166 173.168 29.3618 172.865 29.1399 172.573C28.9181 172.281 28.6173 172.243 28.6135 172.292Z" fill="#1E1D34"/>
<path d="M27.8842 173.652C27.933 173.652 28.0233 173.401 27.8842 173.097C27.745 172.794 27.5082 172.666 27.4856 172.723C27.463 172.779 27.6097 172.932 27.7074 173.183C27.8052 173.434 27.824 173.644 27.8842 173.652Z" fill="#1E1D34"/>
<path d="M29.9635 170.565C29.9861 170.617 30.238 170.565 30.5463 170.587C30.8546 170.61 31.084 170.733 31.1141 170.688C31.1441 170.643 30.9261 170.437 30.5651 170.4C30.2041 170.362 29.9409 170.523 29.9635 170.565Z" fill="#1E1D34"/>
<g opacity="0.3">
<path opacity="0.3" d="M30.0386 167.347L30.0236 168.366L35.4944 168.575L35.5432 167.658L30.0386 167.347Z" fill="black"/>
</g>
<path d="M30.0011 169.411C30.1807 169.47 30.3732 169.479 30.5576 169.437C30.7601 169.411 30.9584 169.359 31.1479 169.283C31.2611 169.242 31.3705 169.19 31.475 169.13C31.54 169.1 31.5997 169.059 31.6517 169.01C31.6894 168.973 31.7136 168.924 31.7204 168.872C31.7273 168.82 31.7163 168.767 31.6893 168.721C31.6635 168.683 31.629 168.65 31.5886 168.627C31.5481 168.604 31.5029 168.59 31.4562 168.587C31.3855 168.583 31.3146 168.589 31.2457 168.605C31.1262 168.628 31.0092 168.662 30.896 168.706C30.7046 168.783 30.5259 168.888 30.3658 169.017C30.0951 169.246 29.9898 169.445 30.0161 169.456C30.0425 169.467 30.1741 169.31 30.4448 169.126C30.604 169.02 30.7758 168.935 30.9561 168.871C31.0616 168.836 31.1697 168.808 31.2795 168.789C31.3998 168.763 31.5013 168.766 31.5277 168.819C31.554 168.871 31.5277 168.849 31.5277 168.883C31.4887 168.917 31.4458 168.948 31.3998 168.972C31.2983 169.029 31.1968 169.081 31.099 169.126C30.9219 169.202 30.7381 169.263 30.5501 169.306C30.365 169.329 30.1816 169.364 30.0011 169.411Z" fill="#1E1D34"/>
<path d="M30.08 169.493C30.1918 169.34 30.2511 169.155 30.2492 168.965C30.2701 168.76 30.2548 168.554 30.2041 168.354C30.1738 168.235 30.1309 168.12 30.0762 168.01C30.0498 167.935 30.0044 167.869 29.9444 167.817C29.8844 167.765 29.8119 167.729 29.7341 167.714C29.685 167.712 29.6364 167.724 29.5943 167.75C29.5522 167.775 29.5184 167.812 29.4972 167.856C29.464 167.919 29.4412 167.988 29.4295 168.058C29.4107 168.183 29.4107 168.309 29.4295 168.433C29.4501 168.642 29.5224 168.843 29.6401 169.017C29.8431 169.317 30.0687 169.392 30.0725 169.373C30.0762 169.355 29.907 169.235 29.7529 168.95C29.6647 168.787 29.6134 168.607 29.6025 168.422C29.5964 168.314 29.6053 168.205 29.6288 168.1C29.6514 167.983 29.7002 167.89 29.7454 167.905C29.7905 167.92 29.8882 167.998 29.9296 168.096C29.9806 168.194 30.0221 168.297 30.0537 168.403C30.1077 168.584 30.1355 168.772 30.1364 168.961C30.1063 169.283 30.0386 169.482 30.08 169.493Z" fill="#1E1D34"/>
<path d="M52.7227 124.814C52.7227 124.814 35.344 117.546 29.9672 117.243C26.5832 117.048 24.0414 119.206 24.5001 122.683C24.7295 124.425 29.531 144.786 29.531 144.786L36.848 141.459L33.3286 127.377L47.6166 134.292L52.7227 124.814Z" fill="#1E1D34"/>
<path d="M31.144 123.814C31.0876 123.863 31.6628 124.601 32.272 125.578C32.8811 126.556 33.2872 127.399 33.3549 127.373C33.4225 127.347 33.1105 126.444 32.4901 125.447C31.8697 124.451 31.2079 123.769 31.144 123.814Z" fill="#455A64"/>
<path d="M29.7228 124.623C29.6852 124.687 30.5613 125.241 31.6028 125.998C32.6444 126.755 33.4264 127.418 33.4828 127.365C33.5392 127.313 32.7872 126.537 31.742 125.788C30.6967 125.039 29.7529 124.563 29.7228 124.623Z" fill="#455A64"/>
<path d="M66.2776 129.182C66.2776 129.182 64.093 131.988 62.01 132.756C59.378 133.719 40.029 142.819 40.029 142.819C40.029 142.819 36.5172 168.815 36.7954 167.729L28.6926 167.534L29.5725 143.591C29.6777 140.526 32.1443 137.005 34.7951 135.439L52.7228 124.814L66.2776 129.182Z" fill="#1E1D34"/>
<path d="M29.4182 147.974C29.444 147.866 29.4553 147.755 29.4521 147.644C29.4521 147.405 29.4822 147.094 29.501 146.704C29.547 145.552 29.6549 144.402 29.8243 143.261C30.0617 141.575 30.6619 139.96 31.584 138.526C32.1546 137.702 32.8585 136.977 33.667 136.383C34.5445 135.746 35.4626 135.167 36.4156 134.648C40.3147 132.423 43.6799 130.153 46.169 128.598C47.4098 127.811 48.425 127.186 49.1169 126.759L49.9215 126.264C50.0188 126.21 50.1108 126.148 50.196 126.077C50.0924 126.114 49.9929 126.162 49.899 126.219C49.7072 126.32 49.4252 126.47 49.068 126.672C48.3498 127.073 47.3271 127.68 46.06 128.444C43.5446 129.965 40.1606 132.209 36.284 134.439C35.3212 134.963 34.3942 135.55 33.5091 136.196C32.6803 136.808 31.9609 137.555 31.381 138.406C30.4534 139.877 29.8617 141.533 29.6476 143.257C29.4927 144.406 29.4124 145.564 29.407 146.723C29.407 147.098 29.407 147.423 29.407 147.667C29.4015 147.769 29.4053 147.872 29.4182 147.974Z" fill="#455A64"/>
<path d="M59.126 131.921C58.9758 131.689 58.81 131.467 58.6297 131.258C58.2562 130.717 57.9969 130.106 57.8677 129.462C57.7384 128.818 57.7418 128.154 57.8777 127.512C57.9612 127.248 58.0266 126.979 58.0732 126.706C57.8907 126.923 57.7619 127.18 57.6972 127.455C57.5047 128.121 57.4763 128.822 57.6145 129.501C57.7494 130.179 58.0489 130.815 58.4868 131.352C58.829 131.782 59.111 131.943 59.126 131.921Z" fill="#455A64"/>
<path d="M31.6705 167.534C31.6837 167.491 31.6913 167.447 31.693 167.403C31.693 167.298 31.7231 167.17 31.7419 167.009C31.7833 166.635 31.8359 166.14 31.9036 165.511C32.0352 164.177 32.2232 162.278 32.4563 159.94C32.5653 158.764 32.6894 157.475 32.8323 156.093C32.9752 154.71 33.1068 153.23 33.2083 151.672C33.3098 150.113 33.4753 148.484 33.761 146.802C34.0401 145.076 34.5457 143.394 35.265 141.8C36.0161 140.225 37.0081 138.775 38.2053 137.503C39.3272 136.32 40.5556 135.241 41.8751 134.281C44.1365 132.694 46.4852 131.235 48.9101 129.909C50.9668 128.733 52.6061 127.729 53.6928 126.972C54.2417 126.597 54.6553 126.294 54.9336 126.08L55.2457 125.837C55.3158 125.782 55.3497 125.752 55.3472 125.747C55.3053 125.764 55.2661 125.787 55.2306 125.814L54.9035 126.039C54.6177 126.238 54.1929 126.53 53.6401 126.893C52.5347 127.62 50.8878 128.598 48.8198 129.756C46.3751 131.062 44.0097 132.51 41.736 134.094C40.3989 135.056 39.1552 136.141 38.0211 137.334C36.8024 138.624 35.7938 140.095 35.0319 141.695C34.3096 143.309 33.8039 145.011 33.5279 146.757C33.2459 148.442 33.103 150.08 32.9865 151.627C32.8699 153.174 32.7533 154.665 32.6105 156.048C32.4676 157.43 32.3773 158.719 32.2758 159.899C32.0765 162.24 31.8998 164.14 31.8058 165.477C31.7557 166.122 31.7181 166.621 31.693 166.976C31.693 167.137 31.6742 167.268 31.6667 167.369C31.6592 167.47 31.6629 167.534 31.6705 167.534Z" fill="#455A64"/>
<path d="M50.7599 83.5817C50.487 82.8816 49.9726 82.3012 49.309 81.9449C48.6454 81.5885 47.876 81.4795 47.139 81.6374C46.8148 81.7556 46.4757 81.8287 46.1314 81.8547C45.714 81.7834 45.3039 81.6756 44.9056 81.5325C44.4543 81.4596 43.9919 81.5565 43.6083 81.8044C43.2247 82.0523 42.9473 82.4334 42.8301 82.8737C42.4769 82.7882 42.1092 82.7804 41.7527 82.8509C41.3962 82.9215 41.0594 83.0686 40.7658 83.282C40.4779 83.5042 40.2735 83.8164 40.1855 84.1685C40.0975 84.5206 40.1311 84.8919 40.2808 85.2226C40.4274 85.4961 40.6568 85.7134 40.8034 85.9944C41.0253 86.4552 40.9238 87.0097 41.0779 87.4929C41.2226 87.8444 41.4637 88.1481 41.7736 88.3694C42.0834 88.5907 42.4496 88.7206 42.8301 88.7442C43.5956 88.7834 44.3616 88.6753 45.0861 88.4258" fill="#1E1D34"/>
<path d="M47.2595 98.3986C47.1655 97.6718 47.1053 97.1623 47.1053 97.1623C47.1053 97.1623 44.6801 97.1623 43.7213 94.1652C43.2363 92.6667 42.9129 90.1641 42.7174 88.0961C42.6747 87.6556 42.7219 87.211 42.8563 86.7891C42.9906 86.3673 43.2093 85.9769 43.4992 85.6416C43.789 85.3062 44.144 85.0328 44.5428 84.8378C44.9416 84.6428 45.3758 84.5303 45.8194 84.5071L52.2565 84.1737L52.3957 85.1665L54.0914 97.4995C54.1527 97.9466 54.1247 98.4014 54.009 98.8378C53.8933 99.2741 53.6922 99.6833 53.4172 100.042C53.1422 100.401 52.7987 100.701 52.4066 100.927C52.0145 101.153 51.5814 101.3 51.1323 101.358C50.6828 101.418 50.2259 101.389 49.7877 101.273C49.3495 101.156 48.9388 100.955 48.5789 100.68C48.2191 100.405 47.9173 100.062 47.6909 99.6703C47.4645 99.2789 47.3179 98.8467 47.2595 98.3986Z" fill="#B78876"/>
<path d="M43.616 89.8606C43.6318 89.9631 43.6869 90.0555 43.7696 90.1183C43.8523 90.1812 43.9563 90.2097 44.0596 90.1978C44.1108 90.1946 44.1608 90.181 44.2065 90.1579C44.2522 90.1348 44.2927 90.1025 44.3254 90.0632C44.3582 90.0239 44.3825 89.9784 44.3969 89.9294C44.4114 89.8804 44.4156 89.8289 44.4093 89.7782C44.3953 89.6749 44.3407 89.5814 44.2575 89.5182C44.1743 89.4549 44.0693 89.4272 43.9656 89.4411C43.9145 89.4442 43.8645 89.4578 43.8188 89.481C43.7731 89.5041 43.7326 89.5363 43.6999 89.5756C43.6671 89.6149 43.6428 89.6605 43.6284 89.7095C43.6139 89.7585 43.6097 89.81 43.616 89.8606Z" fill="#1E1D34"/>
<path d="M43.4505 89.3062C43.5069 89.3474 43.7701 89.0814 44.2025 89.014C44.6349 88.9465 44.9545 89.1114 45.0109 89.0514C45.0673 88.9915 44.9658 88.9391 44.8154 88.8641C44.6115 88.7645 44.3811 88.7317 44.1574 88.7705C43.936 88.8034 43.7314 88.9073 43.5746 89.0664C43.4505 89.1863 43.4204 89.2875 43.4505 89.3062Z" fill="#1E1D34"/>
<path d="M47.6467 89.1788C47.6625 89.281 47.7177 89.373 47.8006 89.4353C47.8835 89.4976 47.9874 89.5252 48.0904 89.5122C48.1415 89.5095 48.1915 89.4964 48.2374 89.4737C48.2833 89.451 48.324 89.4192 48.3571 89.3803C48.3902 89.3413 48.415 89.2961 48.4299 89.2473C48.4448 89.1984 48.4495 89.1471 48.4438 89.0964C48.428 88.9939 48.3729 88.9016 48.2902 88.8387C48.2075 88.7759 48.1035 88.7474 48.0001 88.7592C47.9487 88.7619 47.8983 88.7752 47.8521 88.7981C47.806 88.821 47.7651 88.8532 47.7319 88.8925C47.6988 88.9319 47.6741 88.9776 47.6594 89.0268C47.6448 89.0761 47.6404 89.1278 47.6467 89.1788Z" fill="#1E1D34"/>
<path d="M47.6393 88.7218C47.6957 88.7667 47.9589 88.497 48.3913 88.4333C48.8237 88.3696 49.1433 88.527 49.1997 88.467C49.2561 88.4071 49.1545 88.3584 49.0041 88.2797C48.7992 88.1833 48.5699 88.1507 48.3461 88.186C48.1256 88.2215 47.9218 88.325 47.7633 88.482C47.6393 88.6019 47.6129 88.6993 47.6393 88.7218Z" fill="#1E1D34"/>
<path d="M46.5976 92.1085C46.3618 92.0768 46.1228 92.0768 45.887 92.1085C45.7779 92.1085 45.6727 92.1085 45.6426 92.0373C45.608 91.9288 45.608 91.8123 45.6426 91.7039C45.7027 91.4266 45.7667 91.1344 45.8343 90.831C46.0179 90.0862 46.1436 89.3284 46.2104 88.5644C45.964 89.2977 45.7767 90.0493 45.6501 90.8122C45.5899 91.1194 45.5298 91.4116 45.4771 91.6926C45.4246 91.8315 45.4246 91.9846 45.4771 92.1235C45.4991 92.159 45.5287 92.1891 45.5638 92.2118C45.599 92.2345 45.6387 92.2491 45.6802 92.2546C45.7426 92.2624 45.8058 92.2624 45.8682 92.2546C46.1166 92.2368 46.3617 92.1877 46.5976 92.1085Z" fill="#1E1D34"/>
<path d="M47.1052 97.1623C48.5584 96.9545 49.9251 96.3488 51.0532 95.4127C51.0532 95.4127 50.3839 97.6905 47.2594 97.8816L47.1052 97.1623Z" fill="#AA6550"/>
<path d="M47.8948 92.2021C47.8234 92.2021 47.8948 92.6667 47.5564 93.0563C47.218 93.4459 46.7142 93.4721 46.7179 93.5358C46.7217 93.5995 46.842 93.6108 47.0526 93.5808C47.3235 93.5445 47.5721 93.4114 47.7519 93.2062C47.928 93.0118 48.0199 92.7559 48.0076 92.4943C47.9963 92.2995 47.9249 92.1946 47.8948 92.2021Z" fill="#1E1D34"/>
<path d="M47.2632 87.0809C47.3233 87.1895 47.7407 87.0809 48.2483 87.0471C48.7559 87.0134 49.1808 87.0996 49.2296 86.9872C49.2785 86.8748 49.1657 86.8373 48.9852 86.7512C48.7459 86.6471 48.4857 86.5994 48.2249 86.6117C47.9641 86.6241 47.7096 86.6962 47.4812 86.8224C47.3158 86.9235 47.2368 87.0284 47.2632 87.0809Z" fill="#1E1D34"/>
<path d="M43.4092 88.0549C43.4994 88.1373 43.7852 87.9912 44.1273 87.9313C44.4695 87.8713 44.7891 87.8938 44.8417 87.7814C44.8643 87.729 44.8004 87.6391 44.6575 87.5716C44.4652 87.4864 44.251 87.4628 44.0446 87.5042C43.8387 87.5404 43.6493 87.64 43.5032 87.7889C43.3941 87.9088 43.3678 88.0137 43.4092 88.0549Z" fill="#1E1D34"/>
<path d="M42.379 86.7437C42.379 86.7437 44.0823 87.3169 46.0375 86.0131C47.3196 85.159 48.8763 84.6232 49.2635 84.8555C49.6508 85.0878 49.9027 86.4814 51.3127 86.7287C51.3127 86.7287 51.5609 89.4261 52.625 89.1938C53.377 89.0289 52.9408 86.0543 52.625 84.3572C52.559 84.0291 52.3847 83.7325 52.1298 83.5145C51.875 83.2966 51.5542 83.1699 51.2187 83.1547L49.2372 83.076L46.7631 83.7653L44.1086 84.4846L42.0857 85.3275L42.379 86.7437Z" fill="#1E1D34"/>
<path d="M52.3881 88.0961C52.4257 88.0699 54.0688 87.2082 54.3734 88.9952C54.6779 90.7822 52.8167 90.7148 52.8017 90.6661C52.7866 90.6174 52.3881 88.0961 52.3881 88.0961Z" fill="#B78876"/>
<path d="M53.234 89.8944C53.234 89.8944 53.2716 89.9131 53.328 89.9281C53.4071 89.9468 53.4905 89.9348 53.5611 89.8944C53.6634 89.8013 53.7394 89.6831 53.7816 89.5517C53.8238 89.4202 53.8308 89.28 53.8017 89.1451C53.78 88.9914 53.7248 88.8444 53.64 88.7142C53.6127 88.6616 53.5733 88.6161 53.5249 88.5816C53.4765 88.5471 53.4206 88.5245 53.3618 88.5157C53.3245 88.5125 53.2872 88.5224 53.2563 88.5435C53.2254 88.5647 53.2029 88.5959 53.1926 88.6318C53.1926 88.6843 53.1926 88.718 53.1926 88.7255C53.1926 88.733 53.1512 88.6993 53.1512 88.6243C53.1544 88.5784 53.173 88.5349 53.2039 88.5007C53.2473 88.4555 53.3066 88.4286 53.3693 88.4258C53.4458 88.4272 53.5206 88.4483 53.5865 88.487C53.6524 88.5258 53.7071 88.5808 53.7453 88.6468C53.8482 88.7883 53.9141 88.9531 53.9371 89.1264C53.9744 89.2841 53.9635 89.4493 53.9059 89.6008C53.8483 89.7524 53.7466 89.8833 53.6137 89.9768C53.5679 89.9984 53.5178 90.0097 53.4671 90.0097C53.4164 90.0097 53.3663 89.9984 53.3204 89.9768C53.2452 89.9393 53.2302 89.9019 53.234 89.8944Z" fill="#AA6550"/>
<path d="M43.24 82.2143C43.24 82.2143 43.3002 82.3117 43.428 82.4541C43.6111 82.656 43.8446 82.8059 44.1048 82.8887C44.4913 83.0131 44.9044 83.0312 45.3005 82.9411C45.7929 82.8219 46.2766 82.6692 46.7481 82.4841C47.2362 82.2925 47.7577 82.1996 48.2821 82.2106C48.7257 82.2266 49.1454 82.4148 49.4515 82.7351C49.66 82.9441 49.7867 83.2205 49.8087 83.5143C49.8243 83.6209 49.8059 83.7297 49.7561 83.8253C49.7373 83.8253 49.7561 83.7129 49.7335 83.5218C49.6866 83.2564 49.5547 83.0132 49.3575 82.8287C49.0678 82.5521 48.6834 82.3954 48.2821 82.3904C47.7815 82.3908 47.2853 82.4849 46.8195 82.6676C46.3402 82.8576 45.8459 83.008 45.3418 83.1172C44.9162 83.2049 44.4744 83.1712 44.0672 83.0198C43.7908 82.9187 43.5502 82.7389 43.3754 82.5028C43.24 82.3305 43.24 82.2181 43.24 82.2143Z" fill="#455A64"/>
<path d="M49.2973 83.9264C49.2973 83.9264 49.2071 83.8328 49.0191 83.7016C48.7509 83.5382 48.4423 83.4525 48.128 83.4544C47.6513 83.4526 47.1814 83.5671 46.7593 83.7878C46.2318 84.0717 45.6868 84.3219 45.1275 84.5371C44.5968 84.7012 44.038 84.7549 43.4856 84.695C42.9333 84.6351 42.3992 84.4627 41.9164 84.1887C41.6244 84.0249 41.3572 83.8206 41.1231 83.5818C41.0319 83.5006 40.9556 83.4042 40.8975 83.297C41.2304 83.5902 41.5933 83.8476 41.9803 84.065C42.9311 84.5622 44.0403 84.6659 45.0673 84.3535C45.6187 84.1313 46.1583 83.8812 46.6841 83.6042C47.1329 83.378 47.6331 83.2721 48.1355 83.297C48.4769 83.3101 48.8056 83.4293 49.0755 83.638C49.1741 83.7125 49.2508 83.8121 49.2973 83.9264Z" fill="#455A64"/>
<path d="M43.7288 114.369L34.9981 106.955L32.1179 107.603C32.1179 107.603 35.1522 113.89 37.3481 116.194C37.3481 116.194 39.5176 119.086 43.0971 117.835C46.6766 116.583 43.7288 114.369 43.7288 114.369Z" fill="#B78876"/>
<path d="M34.3363 98.7882H30.6251C30.4851 98.7958 30.3485 98.8344 30.2253 98.9011C30.1021 98.9679 29.9954 99.0612 29.9129 99.1742C29.8305 99.2873 29.7743 99.4172 29.7486 99.5545C29.7228 99.6919 29.7281 99.8333 29.7641 99.9683L33.4978 107.21C33.5686 107.348 33.6763 107.464 33.809 107.544C33.9418 107.625 34.0943 107.667 34.2498 107.667H38.7618C38.8679 107.655 38.9694 107.618 39.0572 107.557C39.1451 107.497 39.2166 107.416 39.2654 107.321C39.3141 107.227 39.3387 107.121 39.3367 107.015C39.3348 106.909 39.3065 106.805 39.2543 106.712L35.656 99.6199C35.5335 99.3742 35.3457 99.1667 35.113 99.02C34.8802 98.8734 34.6116 98.7932 34.3363 98.7882Z" fill="#455A64"/>
<path d="M34.0881 99.2265H30.377C30.2705 99.2259 30.1656 99.2525 30.0724 99.304C29.9792 99.3554 29.9009 99.4299 29.845 99.5202C29.7891 99.6105 29.7575 99.7137 29.7532 99.8197C29.7489 99.9258 29.7721 100.031 29.8205 100.126L33.4639 107.21C33.5354 107.347 33.6433 107.463 33.7759 107.543C33.9084 107.624 34.0606 107.667 34.2159 107.667H38.6903C38.7518 107.665 38.8116 107.647 38.8647 107.616C38.9177 107.585 38.9624 107.542 38.9946 107.489C39.0269 107.437 39.0459 107.378 39.0499 107.317C39.0538 107.256 39.0427 107.195 39.0174 107.139L35.4154 100.051C35.2937 99.8034 35.1048 99.595 34.8701 99.4493C34.6355 99.3036 34.3646 99.2264 34.0881 99.2265Z" fill="#1E1D34"/>
<path d="M33.7723 102.186L31.5163 103.085L31.035 104.899L32.1217 107.596L36.096 108.18L34.9304 106.993L35.077 105.955C35.077 105.955 36.205 105.607 36.205 105.438C36.205 105.269 36.0659 104.689 35.8967 104.67C35.4516 104.771 35.0153 104.908 34.592 105.078C34.592 105.078 35.9719 103.988 35.9343 103.812C35.8967 103.636 35.7463 103.19 35.4718 103.138C35.1973 103.085 32.9639 104.138 32.9639 104.138L32.5879 104.958L32.2721 103.644C32.2721 103.644 34.2611 103.089 33.7723 102.186Z" fill="#B78876"/>
<path d="M34.058 106.442C34.058 106.442 34.0016 106.367 33.9791 106.217C33.9553 106.026 33.977 105.833 34.0423 105.652C34.1076 105.471 34.2148 105.308 34.3551 105.176C34.4679 105.078 34.5544 105.045 34.5619 105.056C34.3903 105.245 34.2495 105.46 34.1445 105.693C34.0776 105.937 34.0484 106.189 34.058 106.442Z" fill="#AA6550"/>
<path d="M32.9828 106.049C33.0268 105.855 33.057 105.658 33.073 105.46C33.0822 105.239 33.1201 105.02 33.1858 104.809C33.2288 104.673 33.3038 104.549 33.4045 104.448C33.5053 104.347 33.6288 104.272 33.7649 104.228C34.3025 104.033 34.7913 103.876 35.1448 103.76C35.3338 103.688 35.5288 103.635 35.7276 103.599C35.5525 103.698 35.3672 103.778 35.1749 103.838C34.8252 103.973 34.3364 104.146 33.8062 104.337C33.6824 104.379 33.5695 104.448 33.4753 104.539C33.3919 104.627 33.3278 104.732 33.2873 104.846C33.2185 105.049 33.1743 105.259 33.1557 105.472C33.1485 105.676 33.0889 105.874 32.9828 106.049Z" fill="#AA6550"/>
<path d="M32.4638 105.644C32.4282 105.498 32.4282 105.345 32.4638 105.198C32.5052 104.958 32.5616 104.771 32.5954 104.775C32.6307 104.921 32.6307 105.074 32.5954 105.221C32.5541 105.46 32.4977 105.648 32.4638 105.644Z" fill="#AA6550"/>
<path d="M32.4037 100.594C32.4037 100.687 32.4315 100.779 32.4835 100.856C32.5356 100.934 32.6096 100.994 32.6962 101.03C32.7827 101.066 32.878 101.075 32.9699 101.057C33.0618 101.039 33.1462 100.994 33.2125 100.928C33.2787 100.862 33.3238 100.778 33.3421 100.686C33.3604 100.594 33.351 100.5 33.3152 100.413C33.2793 100.327 33.2186 100.253 33.1407 100.201C33.0628 100.15 32.9712 100.122 32.8775 100.122C32.8151 100.121 32.7533 100.133 32.6956 100.157C32.6379 100.18 32.5854 100.215 32.5413 100.259C32.4973 100.303 32.4624 100.355 32.4387 100.413C32.4151 100.47 32.4032 100.532 32.4037 100.594Z" fill="#FAFAFA"/>
<path d="M19.4016 176.782C19.9905 177.008 20.5365 177.379 21.0069 177.873C21.4772 178.367 21.8622 178.974 22.1388 179.657C22.687 181.029 22.9738 182.539 22.9773 184.07C23.0525 187.015 22.0674 190.184 20.9056 192.761C18.6834 190.99 17.796 187.332 17.4351 185.468C16.8711 182.495 17.3035 176.698 19.4016 176.777" fill="#C9C900"/>
<path d="M23.7594 197.141C23.5278 196.336 23.4718 195.47 23.5973 194.629C23.7227 193.789 24.0251 193.004 24.4738 192.355C24.9317 191.717 25.4878 191.198 26.1096 190.829C26.7313 190.46 27.4062 190.249 28.0947 190.207C28.7264 190.151 29.4332 190.254 29.8656 190.832C30.0557 191.116 30.181 191.458 30.2285 191.823C30.2761 192.187 30.2443 192.561 30.1364 192.905C29.9116 193.591 29.5445 194.191 29.0723 194.644C27.5194 196.284 25.7748 197.514 23.7594 197.141Z" fill="#C9C900"/>
<path d="M22.2779 206.494C22.2609 206.293 22.2609 206.089 22.2779 205.888C22.2779 205.455 22.308 204.9 22.3268 204.234C22.3415 202.398 22.5955 200.577 23.0788 198.842C23.5843 197.104 24.4537 195.563 25.598 194.378C25.9453 194.03 26.3238 193.733 26.726 193.493C26.8689 193.404 26.9892 193.362 27.0644 193.32C27.1396 193.278 27.1847 193.269 27.1885 193.278C26.2608 193.847 25.4335 194.638 24.7545 195.606C24.0755 196.574 23.5583 197.699 23.233 198.917C22.7625 200.635 22.5002 202.43 22.4547 204.243C22.4171 204.937 22.3832 205.501 22.3531 205.893C22.3415 206.095 22.3163 206.296 22.2779 206.494Z" fill="#1E1D34"/>
<path d="M19.3865 181.232C19.409 181.316 19.4266 181.401 19.4392 181.488C19.4717 181.681 19.5131 181.928 19.5632 182.229C19.6685 182.872 19.8114 183.809 19.9768 184.965C20.3115 187.295 20.7288 190.487 21.1387 194.038C21.5485 197.589 21.8531 200.813 22.0486 203.153C22.1464 204.322 22.2178 205.268 22.2629 205.925C22.2805 206.236 22.2955 206.488 22.308 206.68C22.3188 206.767 22.3188 206.855 22.308 206.941C22.2893 206.856 22.2767 206.769 22.2704 206.68C22.2516 206.489 22.2253 206.242 22.1915 205.93C22.1238 205.254 22.0336 204.318 21.9208 203.171C21.6952 200.841 21.368 197.617 20.9657 194.066C20.5634 190.515 20.1573 187.332 19.8565 185.002C19.7061 183.86 19.5858 182.928 19.4805 182.253C19.4429 181.945 19.4128 181.698 19.3865 181.507C19.3767 181.416 19.3767 181.323 19.3865 181.232Z" fill="#1E1D34"/>
<path d="M20.5558 199.523C20.1135 197.81 19.3484 196.252 18.3238 194.978C17.2993 193.704 16.0447 192.751 14.6639 192.197C13.957 191.922 13.0697 191.824 12.5959 192.528C12.1221 193.232 12.3778 194.303 12.7425 195.1C13.527 196.746 14.6875 198.068 16.0775 198.897C17.4674 199.726 19.0245 200.027 20.5521 199.76" fill="#C9C900"/>
<path d="M15.2918 194.891C15.443 194.923 15.5915 194.973 15.7354 195.04C15.9083 195.103 16.0778 195.179 16.243 195.268C16.4386 195.375 16.6679 195.468 16.901 195.627C17.1587 195.783 17.4097 195.956 17.653 196.144C17.9394 196.358 18.2168 196.59 18.484 196.838C19.7145 197.984 20.7006 199.484 21.3566 201.209C21.4992 201.584 21.6247 201.968 21.7326 202.361C21.8315 202.699 21.9131 203.044 21.977 203.395C22.0355 203.684 22.0806 203.976 22.1124 204.271C22.1451 204.491 22.1664 204.714 22.1763 204.937C22.1919 205.126 22.1944 205.317 22.1838 205.506C22.1425 205.506 22.1162 204.691 21.8492 203.428C21.7781 203.085 21.6927 202.748 21.5935 202.416C21.4856 202.032 21.3601 201.655 21.2175 201.289C20.8841 200.46 20.4794 199.679 20.0106 198.959C19.5284 198.241 18.9865 197.588 18.3938 197.011C18.1341 196.762 17.8643 196.531 17.5854 196.316C17.3427 196.121 17.0917 195.942 16.8334 195.781C15.9122 195.161 15.2767 194.932 15.2918 194.891Z" fill="#1E1D34"/>
</svg>
