<svg width="233" height="168" viewBox="0 0 233 168" fill="none" xmlns="http://www.w3.org/2000/svg">
<path d="M53.2562 50.3245C53.7493 50.6319 54.2335 50.945 54.7169 51.2684C59.8238 64.1442 62.7397 77.7872 63.3431 91.6296C63.4175 93.2304 63.4552 94.8287 63.4563 96.4246C63.5003 108.392 61.7624 120.299 58.3 131.752C58.1173 132.355 57.9307 132.956 57.74 133.554C57.6034 133.983 57.4644 134.417 57.3135 134.842C57.1531 135.061 56.9951 135.275 56.8372 135.489C56.826 135.499 56.8163 135.515 56.805 135.524C56.7413 135.611 56.6776 135.697 56.6204 135.782C56.3473 136.149 56.0701 136.515 55.797 136.882L56.027 136.897L56.6036 136.934L56.6012 136.938C56.4076 136.934 56.2101 136.928 56.0149 136.917C55.944 136.917 55.8667 136.919 55.7943 136.913C55.7297 136.912 55.6613 136.908 55.5967 136.907C47.2833 136.681 38.7755 136.265 31.2104 132.858C23.2921 129.289 16.5754 121.573 16.9167 112.882C16.9647 111.744 17.1371 110.614 17.4306 109.514C17.5532 109.054 17.698 108.602 17.8531 108.152C18.7974 105.392 20.4579 102.935 22.664 101.032C24.8702 99.1286 27.5422 97.8487 30.4056 97.3235C33.2689 96.7983 36.2201 97.0468 38.9559 98.0435C41.6916 99.0401 44.1131 100.749 45.9714 102.994C43.7021 94.0572 33.9601 89.4967 25.1858 86.724C16.405 83.953 6.52584 81.0545 2.03982 73.002C-0.464808 68.5209 -0.525115 63.2999 1.10919 58.4788C1.15895 58.3348 1.2112 58.1867 1.26738 58.041C3.3257 52.3685 7.4441 47.6832 12.7997 44.9213C22.8341 39.9426 35.0271 41.6992 45.3087 46.1429C48.0595 47.3335 50.7163 48.7313 53.2562 50.3245Z" fill="#F2F2F2"/>
<path d="M24.4957 108.188C32.3828 108.915 39.8273 112.165 45.7288 117.459C50.755 122.018 54.4638 127.849 56.4658 134.34C56.5823 134.711 56.6884 135.081 56.788 135.454C56.9873 135.074 57.1809 134.685 57.3722 134.3C57.4953 134.053 57.6209 133.803 57.7401 133.554C57.6034 133.983 57.4644 134.417 57.3135 134.842C57.1531 135.061 56.9951 135.275 56.8372 135.489C56.826 135.499 56.8163 135.515 56.805 135.524C56.7413 135.611 56.6777 135.697 56.6204 135.782C56.3473 136.149 56.0701 136.515 55.797 136.882L56.027 136.897L56.6036 136.934L56.6012 136.938C56.4077 136.934 56.2101 136.928 56.015 136.917C55.944 136.917 55.8668 136.919 55.7944 136.913C55.7705 136.8 55.7404 136.689 55.7103 136.578C53.6668 128.195 48.6648 120.836 41.6285 115.861C34.5921 110.886 25.9969 108.632 17.4307 109.513C17.5532 109.054 17.698 108.602 17.8531 108.152C20.0642 107.97 22.2868 107.983 24.4957 108.188Z" fill="white"/>
<path d="M50.7011 75.1317C53.8657 77.5077 56.6669 80.3343 59.0161 83.5218C60.2401 85.2211 61.3035 87.0309 62.1926 88.9277C62.6141 89.8078 62.9978 90.7141 63.3432 91.6296C63.4176 93.2305 63.4553 94.8288 63.4564 96.4247C63.1631 95.2183 62.8056 94.0284 62.3856 92.8602C62.1671 92.2187 61.9244 91.5899 61.6666 90.9683C58.7746 84.007 53.5351 78.5106 47.3557 74.3318C40.7339 69.8604 33.2688 66.5038 25.7033 64.0078C17.9499 61.438 9.91145 59.8303 1.76769 59.2206C1.58377 59.2057 1.41268 59.1203 1.29005 58.9821C1.16742 58.8439 1.1027 58.6637 1.10935 58.4789C1.1031 58.3179 1.15986 58.1608 1.26754 58.0411C1.32475 57.9849 1.3943 57.943 1.47061 57.9187C1.54693 57.8943 1.62788 57.8883 1.70695 57.901C2.71192 57.9763 3.71429 58.056 4.7166 58.1624C13.0564 59.0233 21.257 60.9202 29.1295 63.8096C36.7293 66.5885 44.2506 70.1922 50.7011 75.1317Z" fill="white"/>
<path d="M9.37833 36.6315C10.9178 36.6315 12.1658 35.3809 12.1658 33.8381C12.1658 32.2953 10.9178 31.0447 9.37833 31.0447C7.83883 31.0447 6.59082 32.2953 6.59082 33.8381C6.59082 35.3809 7.83883 36.6315 9.37833 36.6315Z" fill="#F2F2F2"/>
<path d="M180.626 59.626H54.0894L84.1996 167.631H180.626V59.626Z" fill="white"/>
<path d="M180.993 168H53.7212V59.2573H180.993V168ZM54.4569 168L180.258 167.263V59.9946H54.4569V168Z" fill="#434255"/>
<path d="M133.175 80.6372H101.541V167.631H133.175V80.6372Z" fill="#C9C900"/>
<path d="M133.175 80.6372H101.541V167.631H133.175V80.6372Z" fill="#C9C900"/>
<path opacity="0.2" d="M54.457 67.5513V85.0747L180.626 93.1703L180.254 71.5478L54.457 67.5513Z" fill="#434255"/>
<path d="M187.982 49.6733H46.7324V80.6373H187.982V49.6733Z" fill="white"/>
<path d="M188.35 81.0059H46.3647V49.3047H188.35V81.0059ZM47.1004 80.2687H187.615V50.0419H47.1004V80.2687Z" fill="#3F3D56"/>
<path d="M133.175 46.7244H101.541V80.2687H133.175V46.7244Z" fill="#C9C900"/>
<path d="M113.97 17.4768C122.321 29.8814 114.453 49.8325 114.453 49.8325C114.453 49.8325 93.0467 49.6717 84.6962 37.2671C76.3458 24.8624 84.2134 4.91138 84.2134 4.91138C84.2134 4.91138 105.62 5.07219 113.97 17.4768Z" fill="#C9C900"/>
<path d="M117.802 17.4768C109.451 29.8814 117.319 49.8325 117.319 49.8325C117.319 49.8325 138.725 49.6717 147.076 37.2671C155.426 24.8624 147.559 4.91138 147.559 4.91138C147.559 4.91138 126.152 5.07219 117.802 17.4768Z" fill="#C9C900"/>
<path d="M95.2871 26.819C97.1155 26.819 98.5977 25.3337 98.5977 23.5014C98.5977 21.6692 97.1155 20.1838 95.2871 20.1838C93.4587 20.1838 91.9766 21.6692 91.9766 23.5014C91.9766 25.3337 93.4587 26.819 95.2871 26.819Z" fill="#3F3D56"/>
<path d="M115.15 60.3632C116.979 60.3632 118.461 58.8778 118.461 57.0456C118.461 55.2134 116.979 53.728 115.15 53.728C113.322 53.728 111.84 55.2134 111.84 57.0456C111.84 58.8778 113.322 60.3632 115.15 60.3632Z" fill="#3F3D56"/>
<path d="M115.15 132.981C116.979 132.981 118.461 131.496 118.461 129.664C118.461 127.831 116.979 126.346 115.15 126.346C113.322 126.346 111.84 127.831 111.84 129.664C111.84 131.496 113.322 132.981 115.15 132.981Z" fill="#3F3D56"/>
<path d="M104.115 37.8775C105.334 37.8775 106.322 36.8873 106.322 35.6658C106.322 34.4443 105.334 33.4541 104.115 33.4541C102.896 33.4541 101.908 34.4443 101.908 35.6658C101.908 36.8873 102.896 37.8775 104.115 37.8775Z" fill="#3F3D56"/>
<path d="M137.221 19.078C138.44 19.078 139.428 18.0878 139.428 16.8663C139.428 15.6448 138.44 14.6545 137.221 14.6545C136.002 14.6545 135.014 15.6448 135.014 16.8663C135.014 18.0878 136.002 19.078 137.221 19.078Z" fill="#3F3D56"/>
<path d="M122.875 71.0533C124.094 71.0533 125.082 70.0631 125.082 68.8416C125.082 67.6201 124.094 66.6299 122.875 66.6299C121.656 66.6299 120.668 67.6201 120.668 68.8416C120.668 70.0631 121.656 71.0533 122.875 71.0533Z" fill="#3F3D56"/>
<path d="M109.633 99.8055C110.852 99.8055 111.84 98.8153 111.84 97.5938C111.84 96.3723 110.852 95.3821 109.633 95.3821C108.414 95.3821 107.426 96.3723 107.426 97.5938C107.426 98.8153 108.414 99.8055 109.633 99.8055Z" fill="#3F3D56"/>
<path d="M121.036 109.758C122.255 109.758 123.243 108.768 123.243 107.546C123.243 106.325 122.255 105.335 121.036 105.335C119.817 105.335 118.829 106.325 118.829 107.546C118.829 108.768 119.817 109.758 121.036 109.758Z" fill="#3F3D56"/>
<path d="M118.461 151.412C119.68 151.412 120.668 150.422 120.668 149.2C120.668 147.979 119.68 146.989 118.461 146.989C117.242 146.989 116.254 147.979 116.254 149.2C116.254 150.422 117.242 151.412 118.461 151.412Z" fill="#3F3D56"/>
<path d="M228.89 110.336H161.562V167.804H228.89V110.336Z" fill="white"/>
<path d="M229.086 168H161.366V110.14H229.086V168ZM161.758 167.608H228.694V110.532H161.758V167.608Z" fill="#3F3D56"/>
<path d="M203.642 121.516H186.81V167.804H203.642V121.516Z" fill="#C9C900"/>
<path d="M203.642 121.516H186.81V167.804H203.642V121.516Z" fill="#C9C900"/>
<path opacity="0.2" d="M161.758 114.553V123.877L228.89 128.184L228.692 116.68L161.758 114.553Z" fill="#434255"/>
<path d="M232.804 105.041H157.647V121.516H232.804V105.041Z" fill="white"/>
<path d="M233 121.712H157.452V104.844H233V121.712ZM157.843 121.32H232.608V105.237H157.843V121.32Z" fill="#3F3D56"/>
<path d="M203.642 103.471H186.81V121.32H203.642V103.471Z" fill="#C9C900"/>
<path d="M193.424 87.9092C197.867 94.5095 193.68 105.125 193.68 105.125C193.68 105.125 182.29 105.04 177.847 98.4393C173.404 91.839 177.59 81.2234 177.59 81.2234C177.59 81.2234 188.98 81.309 193.424 87.9092Z" fill="#C9C900"/>
<path d="M195.463 87.9092C191.019 94.5095 195.206 105.125 195.206 105.125C195.206 105.125 206.596 105.04 211.039 98.4393C215.482 91.839 211.296 81.2234 211.296 81.2234C211.296 81.2234 199.906 81.309 195.463 87.9092Z" fill="#C9C900"/>
<path d="M183.483 92.8801C184.456 92.8801 185.244 92.0897 185.244 91.1148C185.244 90.1399 184.456 89.3496 183.483 89.3496C182.51 89.3496 181.721 90.1399 181.721 91.1148C181.721 92.0897 182.51 92.8801 183.483 92.8801Z" fill="#3F3D56"/>
<path d="M194.052 110.728C195.024 110.728 195.813 109.938 195.813 108.963C195.813 107.988 195.024 107.198 194.052 107.198C193.079 107.198 192.29 107.988 192.29 108.963C192.29 109.938 193.079 110.728 194.052 110.728Z" fill="#3F3D56"/>
<path d="M194.052 149.367C195.024 149.367 195.813 148.577 195.813 147.602C195.813 146.627 195.024 145.837 194.052 145.837C193.079 145.837 192.29 146.627 192.29 147.602C192.29 148.577 193.079 149.367 194.052 149.367Z" fill="#3F3D56"/>
<path d="M188.18 98.764C188.829 98.764 189.354 98.2372 189.354 97.5872C189.354 96.9373 188.829 96.4104 188.18 96.4104C187.532 96.4104 187.006 96.9373 187.006 97.5872C187.006 98.2372 187.532 98.764 188.18 98.764Z" fill="#3F3D56"/>
<path d="M205.795 88.7611C206.444 88.7611 206.969 88.2342 206.969 87.5843C206.969 86.9343 206.444 86.4075 205.795 86.4075C205.146 86.4075 204.621 86.9343 204.621 87.5843C204.621 88.2342 205.146 88.7611 205.795 88.7611Z" fill="#3F3D56"/>
<path d="M198.162 116.416C198.81 116.416 199.336 115.89 199.336 115.24C199.336 114.59 198.81 114.063 198.162 114.063C197.513 114.063 196.987 114.59 196.987 115.24C196.987 115.89 197.513 116.416 198.162 116.416Z" fill="#3F3D56"/>
<path d="M191.116 131.715C191.764 131.715 192.29 131.188 192.29 130.538C192.29 129.888 191.764 129.361 191.116 129.361C190.467 129.361 189.941 129.888 189.941 130.538C189.941 131.188 190.467 131.715 191.116 131.715Z" fill="#3F3D56"/>
<path d="M197.183 137.011C197.832 137.011 198.357 136.484 198.357 135.834C198.357 135.184 197.832 134.657 197.183 134.657C196.535 134.657 196.009 135.184 196.009 135.834C196.009 136.484 196.535 137.011 197.183 137.011Z" fill="#3F3D56"/>
<path d="M195.813 159.174C196.462 159.174 196.987 158.647 196.987 157.997C196.987 157.347 196.462 156.82 195.813 156.82C195.164 156.82 194.639 157.347 194.639 157.997C194.639 158.647 195.164 159.174 195.813 159.174Z" fill="#3F3D56"/>
<path d="M113.041 141.327C113.629 140.084 110.902 137.553 106.95 135.674C102.997 133.796 99.3157 133.281 98.7272 134.524C98.1387 135.768 100.866 138.299 104.818 140.177C108.771 142.056 112.452 142.571 113.041 141.327Z" fill="#1E1D34"/>
<path d="M145.662 154.135C146.715 153.251 145.292 149.81 142.484 146.449C139.675 143.088 136.545 141.079 135.492 141.963C134.439 142.846 135.862 146.287 138.67 149.648C141.479 153.01 144.609 155.018 145.662 154.135Z" fill="#1E1D34"/>
<path d="M123.727 161.168C132.476 161.168 139.569 154.06 139.569 145.292C139.569 136.524 132.476 129.417 123.727 129.417C114.978 129.417 107.885 136.524 107.885 145.292C107.885 154.06 114.978 161.168 123.727 161.168Z" fill="#1E1D34"/>
<path d="M130.432 157.751H125.62V166.392H130.432V157.751Z" fill="#1E1D34"/>
<path d="M120.807 157.751H115.994V166.392H120.807V157.751Z" fill="#1E1D34"/>
<path d="M126.422 168C128.637 168 130.432 167.325 130.432 166.493C130.432 165.66 128.637 164.986 126.422 164.986C124.207 164.986 122.411 165.66 122.411 166.493C122.411 167.325 124.207 168 126.422 168Z" fill="#1E1D34"/>
<path d="M116.796 167.799C119.011 167.799 120.807 167.124 120.807 166.292C120.807 165.459 119.011 164.785 116.796 164.785C114.581 164.785 112.786 165.459 112.786 166.292C112.786 167.124 114.581 167.799 116.796 167.799Z" fill="#1E1D34"/>
<path d="M118.753 125.336C120.167 119.627 126.411 116.268 132.699 117.833C138.987 119.397 142.938 125.294 141.523 131.002C140.109 136.711 135.416 136.73 129.128 135.165C122.84 133.6 117.338 131.045 118.753 125.336Z" fill="#E6E6E6"/>
<path d="M121.359 147.235C124.276 147.235 126.64 144.865 126.64 141.942C126.64 139.019 124.276 136.649 121.359 136.649C118.442 136.649 116.077 139.019 116.077 141.942C116.077 144.865 118.442 147.235 121.359 147.235Z" fill="white"/>
<path d="M119.188 141.809C120.16 141.809 120.948 141.019 120.948 140.045C120.948 139.071 120.16 138.281 119.188 138.281C118.215 138.281 117.427 139.071 117.427 140.045C117.427 141.019 118.215 141.809 119.188 141.809Z" fill="#3F3D56"/>
<path d="M124.672 152.97C124.755 153.426 124.747 153.893 124.65 154.346C124.552 154.799 124.366 155.228 124.103 155.61C123.84 155.991 123.505 156.316 123.116 156.567C122.728 156.818 122.293 156.99 121.839 157.073C121.384 157.156 120.917 157.149 120.465 157.051C120.013 156.953 119.584 156.767 119.204 156.503C118.824 156.24 118.499 155.903 118.249 155.514C117.998 155.125 117.826 154.69 117.744 154.234L117.742 154.227C117.396 152.309 118.876 151.631 120.789 151.283C122.703 150.936 124.326 151.052 124.672 152.97Z" fill="white"/>
<path d="M155.756 25.7291C159.799 24.0556 162.652 21.6677 162.127 20.3957C161.603 19.1237 157.9 19.4492 153.857 21.1228C149.814 22.7964 146.961 25.1842 147.485 26.4562C148.01 27.7282 151.712 27.4027 155.756 25.7291Z" fill="#1E1D34"/>
<path d="M194.584 36.6861C195.637 35.8026 194.214 32.3615 191.406 29.0002C188.598 25.639 185.467 23.6303 184.414 24.5138C183.361 25.3973 184.784 28.8384 187.593 32.1997C190.401 35.5609 193.531 37.5696 194.584 36.6861Z" fill="#1E1D34"/>
<path d="M172.649 43.7189C181.399 43.7189 188.491 36.6112 188.491 27.8434C188.491 19.0757 181.399 11.968 172.649 11.968C163.9 11.968 156.808 19.0757 156.808 27.8434C156.808 36.6112 163.9 43.7189 172.649 43.7189Z" fill="#1E1D34"/>
<path d="M179.355 40.3027H174.542V48.9438H179.355V40.3027Z" fill="#1E1D34"/>
<path d="M169.729 40.3027H164.917V48.9438H169.729V40.3027Z" fill="#1E1D34"/>
<path d="M175.344 50.5512C177.559 50.5512 179.355 49.8764 179.355 49.044C179.355 48.2116 177.559 47.5369 175.344 47.5369C173.129 47.5369 171.333 48.2116 171.333 49.044C171.333 49.8764 173.129 50.5512 175.344 50.5512Z" fill="#1E1D34"/>
<path d="M165.719 50.3503C167.934 50.3503 169.729 49.6755 169.729 48.8431C169.729 48.0107 167.934 47.3359 165.719 47.3359C163.504 47.3359 161.708 48.0107 161.708 48.8431C161.708 49.6755 163.504 50.3503 165.719 50.3503Z" fill="#1E1D34"/>
<path d="M167.675 7.88757C169.09 2.17877 175.334 -1.18074 181.622 0.383899C187.91 1.94854 191.86 7.84485 190.446 13.5536C189.031 19.2624 184.338 19.2809 178.05 17.7162C171.762 16.1516 166.261 13.5964 167.675 7.88757Z" fill="#C9C900"/>
<path d="M170.281 29.7864C173.198 29.7864 175.563 27.4167 175.563 24.4935C175.563 21.5704 173.198 19.2007 170.281 19.2007C167.364 19.2007 165 21.5704 165 24.4935C165 27.4167 167.364 29.7864 170.281 29.7864Z" fill="white"/>
<path d="M168.111 26.9409C169.083 26.9409 169.871 26.151 169.871 25.1766C169.871 24.2023 169.083 23.4124 168.111 23.4124C167.138 23.4124 166.35 24.2023 166.35 25.1766C166.35 26.151 167.138 26.9409 168.111 26.9409Z" fill="#3F3D56"/>
<path d="M173.594 35.521C173.762 36.4417 173.557 37.3912 173.026 38.1608C172.494 38.9304 171.68 39.4568 170.761 39.6245C169.842 39.7921 168.895 39.587 168.127 39.0545C167.359 38.522 166.833 37.7056 166.666 36.7849L166.665 36.7781C166.318 34.8605 167.798 34.1819 169.711 33.8347C171.625 33.4876 173.248 33.6034 173.594 35.521Z" fill="white"/>
<path d="M37.1094 161.168C45.8586 161.168 52.9512 154.06 52.9512 145.292C52.9512 136.524 45.8586 129.417 37.1094 129.417C28.3602 129.417 21.2676 136.524 21.2676 145.292C21.2676 154.06 28.3602 161.168 37.1094 161.168Z" fill="#1E1D34"/>
<path d="M34.7028 157.751H29.8901V166.392H34.7028V157.751Z" fill="#1E1D34"/>
<path d="M44.3283 157.751H39.5156V166.392H44.3283V157.751Z" fill="#1E1D34"/>
<path d="M33.9007 168C36.1157 168 37.9113 167.325 37.9113 166.493C37.9113 165.66 36.1157 164.986 33.9007 164.986C31.6857 164.986 29.8901 165.66 29.8901 166.493C29.8901 167.325 31.6857 168 33.9007 168Z" fill="#1E1D34"/>
<path d="M43.5262 167.799C45.7412 167.799 47.5368 167.124 47.5368 166.292C47.5368 165.459 45.7412 164.785 43.5262 164.785C41.3112 164.785 39.5156 165.459 39.5156 166.292C39.5156 167.124 41.3112 167.799 43.5262 167.799Z" fill="#1E1D34"/>
<path d="M21.742 130.528C20.4629 124.788 24.5518 118.987 30.8749 117.572C37.1981 116.157 43.3609 119.664 44.6401 125.405C45.9192 131.145 41.7287 133.263 35.4056 134.678C29.0824 136.092 23.0212 136.269 21.742 130.528Z" fill="#C9C900"/>
<path d="M54.1803 138.355C57.6111 134.914 59.5186 131.25 58.4407 130.17C57.3628 129.091 53.7078 131.005 50.277 134.446C46.8462 137.887 44.9387 141.551 46.0166 142.631C47.0945 143.71 50.7495 141.796 54.1803 138.355Z" fill="#1E1D34"/>
<path d="M24.3401 143.736C25.418 142.657 23.5105 138.993 20.0797 135.552C16.6489 132.111 12.9939 130.197 11.916 131.276C10.8381 132.356 12.7456 136.02 16.1764 139.461C19.6072 142.901 23.2623 144.816 24.3401 143.736Z" fill="#1E1D34"/>
<path d="M36.4426 148.468C39.4328 148.468 41.8569 146.039 41.8569 143.042C41.8569 140.046 39.4328 137.617 36.4426 137.617C33.4524 137.617 31.0283 140.046 31.0283 143.042C31.0283 146.039 33.4524 148.468 36.4426 148.468Z" fill="white"/>
<path d="M36.443 144.851C37.4397 144.851 38.2477 144.041 38.2477 143.042C38.2477 142.043 37.4397 141.234 36.443 141.234C35.4462 141.234 34.6382 142.043 34.6382 143.042C34.6382 144.041 35.4462 144.851 36.443 144.851Z" fill="#3F3D56"/>
<path d="M40.7409 153.077C40.8237 153.533 40.8161 154.001 40.7185 154.454C40.6209 154.907 40.4353 155.336 40.1722 155.717C39.9091 156.098 39.5736 156.423 39.185 156.675C38.7964 156.926 38.3623 157.098 37.9073 157.181C37.4524 157.264 36.9856 157.256 36.5337 157.158C36.0817 157.06 35.6533 156.874 35.2731 156.611C34.8928 156.347 34.5682 156.011 34.3176 155.621C34.067 155.232 33.8953 154.797 33.8125 154.341L33.8113 154.334C33.4649 152.417 34.9444 151.738 36.8579 151.391C38.7715 151.044 40.3945 151.16 40.7409 153.077Z" fill="white"/>
</svg>
