<svg width="226" height="226" viewBox="0 0 226 226" fill="none" xmlns="http://www.w3.org/2000/svg">
<path opacity="0.5" d="M184.927 46.556C173.681 20.914 146.688 11.2593 125.389 28.476C117.073 35.1927 111.884 45.8825 101.7 50.172C92.1447 54.1948 80.0401 53.0106 69.7074 55.1892C47.7041 59.7996 18.08 77.292 20.34 104.245C21.3299 116.051 29.2941 129.164 33.231 140.21C37.751 152.921 40.463 168.822 52.4275 176.42C72.9392 189.465 97.6817 178.802 116.159 168.284C126.103 162.63 131.577 159.154 142.285 161.093C152.197 162.901 161.124 169.229 170.811 161.721C178.083 156.085 178.685 144.663 184.791 137.955C191.671 130.397 198.645 129.851 202.22 118.492C206.555 104.71 200.168 96.0997 195.852 83.7872C191.535 71.4748 190.224 58.6199 184.927 46.556Z" fill="#C0C039"/>
<g opacity="0.7">
<path opacity="0.7" d="M184.927 46.556C173.681 20.914 146.688 11.2593 125.389 28.476C117.073 35.1927 111.884 45.8825 101.7 50.172C92.1447 54.1948 80.0401 53.0106 69.7074 55.1892C47.7041 59.7996 18.08 77.292 20.34 104.245C21.3299 116.051 29.2941 129.164 33.231 140.21C37.751 152.921 40.463 168.822 52.4275 176.42C72.9392 189.465 97.6817 178.802 116.159 168.284C126.103 162.63 131.577 159.154 142.285 161.093C152.197 162.901 161.124 169.229 170.811 161.721C178.083 156.085 178.685 144.663 184.791 137.955C191.671 130.397 198.645 129.851 202.22 118.492C206.555 104.71 200.168 96.0997 195.852 83.7872C191.535 71.4748 190.224 58.6199 184.927 46.556Z" fill="white"/>
</g>
<path d="M99.3541 197.831C137.942 197.831 169.224 195.883 169.224 193.479C169.224 191.075 137.942 189.126 99.3541 189.126C60.7659 189.126 29.4839 191.075 29.4839 193.479C29.4839 195.883 60.7659 197.831 99.3541 197.831Z" fill="#C0C039"/>
<path opacity="0.8" d="M99.3541 197.831C137.942 197.831 169.224 195.883 169.224 193.479C169.224 191.075 137.942 189.126 99.3541 189.126C60.7659 189.126 29.4839 191.075 29.4839 193.479C29.4839 195.883 60.7659 197.831 99.3541 197.831Z" fill="white"/>
<path d="M151.858 27.9607H81.6041C76.7537 27.9607 72.8217 31.8927 72.8217 36.7431V185.062C72.8217 189.913 76.7537 193.845 81.6041 193.845H151.858C156.709 193.845 160.641 189.913 160.641 185.062V36.7431C160.641 31.8927 156.709 27.9607 151.858 27.9607Z" fill="#1E1D34"/>
<path d="M156.736 46.1763H76.7225V175.629H156.736V46.1763Z" fill="white" stroke="#1E1D34" stroke-width="1.33739" stroke-miterlimit="10"/>
<path d="M128.995 98.5955C135.768 91.8226 135.768 80.8414 128.995 74.0685C122.222 67.2955 111.241 67.2955 104.468 74.0685C97.6947 80.8414 97.6947 91.8226 104.468 98.5955C111.241 105.368 122.222 105.368 128.995 98.5955Z" fill="#C0C039"/>
<path d="M139.501 167.489H93.9663C93.8638 167.489 93.7622 167.47 93.6674 167.431C93.5726 167.392 93.4863 167.335 93.4136 167.262C93.341 167.19 93.2833 167.104 93.2439 167.01C93.2046 166.915 93.1843 166.814 93.1843 166.711C93.1837 166.608 93.2036 166.506 93.2426 166.411C93.2817 166.316 93.3393 166.23 93.412 166.157C93.4848 166.084 93.5712 166.027 93.6663 165.988C93.7615 165.948 93.8634 165.929 93.9663 165.929H139.501C139.603 165.929 139.705 165.949 139.799 165.989C139.894 166.028 139.98 166.086 140.052 166.159C140.124 166.231 140.182 166.317 140.22 166.412C140.259 166.507 140.279 166.609 140.278 166.711C140.278 166.917 140.196 167.115 140.05 167.261C139.905 167.407 139.707 167.489 139.501 167.489Z" fill="#C0C039"/>
<path d="M140.983 113.425H92.4792C91.4782 113.425 90.6667 114.236 90.6667 115.237V120.955C90.6667 121.956 91.4782 122.768 92.4792 122.768H140.983C141.984 122.768 142.796 121.956 142.796 120.955V115.237C142.796 114.236 141.984 113.425 140.983 113.425Z" fill="#C0C039"/>
<path d="M140.983 130.899H92.4792C91.4782 130.899 90.6667 131.711 90.6667 132.712V138.43C90.6667 139.431 91.4782 140.242 92.4792 140.242H140.983C141.984 140.242 142.796 139.431 142.796 138.43V132.712C142.796 131.711 141.984 130.899 140.983 130.899Z" fill="#C0C039"/>
<path d="M125.367 94.9833L120.264 92.0453V89.618C121.003 88.7241 121.538 87.6798 121.832 86.558C122.008 86.6204 122.193 86.6525 122.379 86.6529C123.012 86.6529 123.414 84.6912 123.482 83.29C124.219 81.7306 123.215 80.8176 123.215 80.8176C123.215 80.8176 123.631 80.4018 123.907 78.7339C124.183 77.066 122.935 77.7621 121.963 76.2343C120.991 74.7066 120.295 73.0432 117.104 73.0432C116.225 73.0143 115.357 73.2506 114.614 73.7213C113.871 74.1921 113.286 74.8756 112.937 75.6829C112.142 75.6857 111.351 75.7782 110.577 75.9586C109.601 76.2343 109.325 79.43 110.157 80.682C110.529 81.3663 110.728 82.1314 110.736 82.9104C110.514 82.6392 110.284 82.5668 110.157 83.1816C109.881 84.5692 110.993 86.5128 110.993 86.5128L111.567 86.3501C111.856 87.549 112.414 88.6665 113.199 89.618V92.0453L108.096 94.9833C107.5 95.3274 107.005 95.8221 106.661 96.4179C106.316 97.0138 106.135 97.6896 106.134 98.3778V100.059C109.169 102.404 112.896 103.676 116.731 103.676C120.566 103.676 124.293 102.404 127.328 100.059V98.3778C127.329 97.6895 127.148 97.0132 126.803 96.4172C126.459 95.8213 125.963 95.3267 125.367 94.9833Z" fill="#1E1D34"/>
<path d="M97.2704 137.919C97.1534 137.917 97.0416 137.87 96.9585 137.788C96.914 137.748 96.8785 137.699 96.8544 137.645C96.8302 137.59 96.818 137.531 96.8184 137.471C96.8198 137.39 96.8432 137.31 96.8862 137.241L97.6998 135.939L96.1133 135.989C96.0535 135.992 95.9936 135.984 95.9375 135.963C95.8814 135.941 95.8304 135.909 95.7878 135.867C95.7141 135.784 95.6734 135.677 95.6734 135.566C95.6734 135.455 95.7141 135.348 95.7878 135.266C95.8295 135.222 95.8802 135.188 95.9365 135.166C95.9927 135.144 96.0531 135.135 96.1133 135.139L97.6772 135.198L96.8726 133.9C96.8289 133.83 96.8054 133.749 96.8048 133.665C96.8044 133.606 96.8167 133.547 96.8408 133.492C96.865 133.438 96.9005 133.389 96.945 133.349C97.028 133.267 97.1398 133.22 97.2568 133.218C97.3338 133.218 97.4091 133.241 97.474 133.282C97.5388 133.324 97.5904 133.383 97.623 133.453L98.3959 134.85L99.1598 133.462C99.196 133.388 99.2518 133.325 99.3211 133.281C99.3904 133.236 99.4706 133.211 99.553 133.209C99.6101 133.209 99.6666 133.221 99.7187 133.245C99.7708 133.268 99.8175 133.302 99.8558 133.345C99.9388 133.431 99.9843 133.546 99.9824 133.665C99.9822 133.743 99.9619 133.819 99.9236 133.887L99.1055 135.198L100.692 135.139C100.752 135.135 100.813 135.144 100.869 135.166C100.925 135.188 100.976 135.222 101.017 135.266C101.095 135.346 101.137 135.453 101.135 135.564C101.135 135.676 101.093 135.784 101.017 135.867C100.975 135.909 100.924 135.941 100.868 135.963C100.812 135.984 100.752 135.992 100.692 135.989L99.0965 135.939L99.892 137.227C99.9366 137.299 99.9601 137.382 99.9598 137.467C99.9598 137.587 99.9122 137.702 99.8274 137.786C99.7426 137.871 99.6277 137.919 99.5078 137.919C99.4303 137.918 99.3548 137.894 99.2905 137.851C99.2263 137.807 99.1761 137.746 99.1462 137.675L98.3914 136.319L97.641 137.675C97.6078 137.746 97.5555 137.806 97.4901 137.849C97.4247 137.892 97.3487 137.916 97.2704 137.919Z" fill="#1E1D34"/>
<path d="M104.602 137.919C104.485 137.917 104.373 137.87 104.29 137.788C104.245 137.748 104.21 137.699 104.186 137.645C104.162 137.59 104.149 137.531 104.15 137.471C104.151 137.39 104.175 137.31 104.218 137.241L105.031 135.939L103.449 135.989C103.389 135.991 103.329 135.982 103.272 135.961C103.215 135.94 103.163 135.908 103.119 135.867C103.059 135.805 103.019 135.726 103.005 135.641C102.99 135.556 103.001 135.469 103.036 135.391C103.072 135.312 103.13 135.246 103.204 135.201C103.278 135.156 103.363 135.135 103.449 135.139L105.009 135.198L104.204 133.9C104.16 133.83 104.137 133.749 104.136 133.665C104.136 133.606 104.148 133.547 104.172 133.492C104.196 133.438 104.232 133.389 104.276 133.349C104.359 133.267 104.471 133.22 104.588 133.218C104.665 133.218 104.741 133.241 104.805 133.282C104.87 133.324 104.922 133.383 104.954 133.453L105.727 134.85L106.491 133.462C106.527 133.388 106.583 133.325 106.652 133.281C106.722 133.236 106.802 133.211 106.884 133.209C106.942 133.209 106.998 133.221 107.05 133.244C107.103 133.267 107.149 133.302 107.187 133.345C107.229 133.387 107.262 133.437 107.285 133.492C107.307 133.547 107.319 133.606 107.318 133.665C107.317 133.744 107.295 133.82 107.255 133.887L106.437 135.198L108.028 135.148C108.087 135.144 108.147 135.153 108.203 135.175C108.258 135.197 108.308 135.231 108.349 135.275C108.426 135.355 108.468 135.462 108.466 135.573C108.466 135.685 108.424 135.793 108.349 135.876C108.307 135.918 108.257 135.95 108.202 135.971C108.146 135.992 108.087 136.001 108.028 135.998L106.428 135.948L107.223 137.236C107.268 137.308 107.291 137.391 107.291 137.476C107.291 137.596 107.244 137.711 107.159 137.795C107.074 137.88 106.959 137.928 106.839 137.928C106.762 137.927 106.686 137.903 106.622 137.86C106.558 137.816 106.508 137.755 106.478 137.684L105.723 136.328L104.972 137.684C104.938 137.753 104.885 137.811 104.82 137.853C104.755 137.894 104.679 137.917 104.602 137.919Z" fill="#1E1D34"/>
<path d="M111.938 137.919C111.819 137.918 111.706 137.871 111.621 137.788C111.577 137.748 111.541 137.699 111.517 137.645C111.493 137.59 111.481 137.531 111.481 137.471C111.483 137.39 111.506 137.31 111.549 137.241L112.363 135.939L110.781 135.989C110.695 135.992 110.611 135.97 110.539 135.925C110.466 135.881 110.408 135.815 110.373 135.738C110.337 135.66 110.326 135.574 110.34 135.49C110.354 135.406 110.392 135.328 110.451 135.266C110.493 135.222 110.545 135.188 110.602 135.166C110.659 135.144 110.72 135.135 110.781 135.139L112.34 135.198L111.535 133.9C111.492 133.83 111.468 133.749 111.468 133.665C111.469 133.606 111.482 133.548 111.506 133.493C111.53 133.439 111.565 133.39 111.608 133.349C111.692 133.266 111.806 133.218 111.924 133.218C112 133.219 112.075 133.242 112.139 133.284C112.203 133.325 112.254 133.384 112.286 133.453L113.059 134.85L113.823 133.462C113.859 133.388 113.915 133.325 113.984 133.281C114.053 133.236 114.133 133.211 114.216 133.209C114.273 133.209 114.33 133.221 114.382 133.244C114.434 133.267 114.481 133.302 114.519 133.345C114.561 133.387 114.594 133.437 114.616 133.492C114.639 133.547 114.65 133.606 114.65 133.665C114.648 133.744 114.626 133.82 114.586 133.887L113.768 135.198L115.359 135.139C115.418 135.133 115.477 135.14 115.533 135.159C115.588 135.178 115.639 135.208 115.682 135.249C115.725 135.289 115.759 135.338 115.781 135.392C115.803 135.447 115.814 135.505 115.811 135.564C115.812 135.675 115.772 135.783 115.698 135.867C115.656 135.909 115.605 135.941 115.549 135.963C115.493 135.984 115.433 135.992 115.373 135.989L113.777 135.939L114.568 137.227C114.613 137.299 114.636 137.382 114.636 137.467C114.635 137.526 114.622 137.585 114.598 137.639C114.574 137.693 114.539 137.742 114.496 137.783C114.457 137.825 114.409 137.859 114.356 137.883C114.304 137.906 114.246 137.918 114.189 137.919C114.112 137.917 114.037 137.894 113.974 137.85C113.91 137.807 113.861 137.746 113.832 137.675L113.072 136.319L112.322 137.675C112.288 137.748 112.234 137.81 112.166 137.853C112.098 137.897 112.018 137.919 111.938 137.919Z" fill="#1E1D34"/>
<path d="M119.269 137.919C119.151 137.918 119.037 137.871 118.953 137.788C118.868 137.704 118.819 137.591 118.817 137.471C118.816 137.39 118.838 137.31 118.881 137.241L119.694 135.939L118.112 135.989C118.052 135.991 117.991 135.982 117.935 135.961C117.878 135.94 117.826 135.908 117.782 135.867C117.708 135.784 117.668 135.677 117.668 135.566C117.668 135.455 117.708 135.348 117.782 135.266C117.826 135.223 117.878 135.19 117.934 135.169C117.991 135.147 118.051 135.137 118.112 135.139L119.676 135.198L118.876 133.9C118.832 133.83 118.809 133.749 118.808 133.665C118.81 133.606 118.823 133.548 118.847 133.493C118.871 133.439 118.905 133.39 118.948 133.349C119.033 133.266 119.146 133.218 119.265 133.218C119.342 133.218 119.417 133.241 119.482 133.282C119.547 133.324 119.598 133.383 119.631 133.453L120.399 134.85L121.163 133.462C121.199 133.388 121.255 133.325 121.324 133.281C121.394 133.236 121.474 133.211 121.556 133.209C121.614 133.209 121.67 133.221 121.722 133.244C121.775 133.267 121.821 133.302 121.859 133.345C121.901 133.387 121.934 133.437 121.957 133.492C121.979 133.547 121.991 133.606 121.99 133.665C121.989 133.744 121.967 133.82 121.927 133.887L121.109 135.198L122.7 135.139C122.758 135.133 122.818 135.14 122.873 135.159C122.929 135.178 122.98 135.208 123.023 135.249C123.065 135.289 123.099 135.338 123.121 135.392C123.144 135.447 123.154 135.505 123.152 135.564C123.153 135.675 123.113 135.783 123.039 135.867C122.996 135.909 122.945 135.941 122.889 135.963C122.833 135.984 122.773 135.992 122.713 135.989L121.118 135.939L121.909 137.227C121.954 137.299 121.977 137.382 121.977 137.467C121.977 137.526 121.965 137.585 121.941 137.64C121.917 137.695 121.881 137.743 121.837 137.783C121.797 137.825 121.75 137.859 121.697 137.883C121.644 137.906 121.587 137.918 121.529 137.919C121.452 137.917 121.378 137.894 121.314 137.85C121.251 137.807 121.201 137.746 121.172 137.675L120.413 136.319L119.662 137.675C119.628 137.749 119.572 137.812 119.502 137.856C119.433 137.899 119.351 137.921 119.269 137.919Z" fill="#1E1D34"/>
<path d="M126.601 137.919C126.482 137.918 126.368 137.871 126.284 137.788C126.214 137.717 126.17 137.625 126.157 137.526C126.145 137.427 126.166 137.327 126.216 137.241L127.026 135.939L125.444 135.989C125.383 135.991 125.323 135.982 125.266 135.961C125.21 135.94 125.158 135.908 125.114 135.867C125.04 135.784 124.999 135.677 124.999 135.566C124.999 135.455 125.04 135.348 125.114 135.266C125.157 135.223 125.209 135.19 125.266 135.169C125.322 135.147 125.383 135.137 125.444 135.139L127.007 135.198L126.203 133.9C126.159 133.83 126.136 133.749 126.135 133.665C126.137 133.546 126.186 133.433 126.271 133.349C126.355 133.266 126.469 133.218 126.587 133.218C126.664 133.218 126.739 133.241 126.804 133.282C126.869 133.324 126.921 133.383 126.953 133.453L127.722 134.85L128.486 133.462C128.522 133.388 128.578 133.325 128.647 133.281C128.716 133.236 128.796 133.211 128.879 133.209C128.937 133.209 128.994 133.221 129.047 133.244C129.1 133.267 129.147 133.302 129.186 133.345C129.269 133.431 129.315 133.546 129.313 133.665C129.311 133.744 129.289 133.82 129.249 133.887L128.431 135.198L130.022 135.139C130.081 135.133 130.14 135.14 130.196 135.159C130.251 135.178 130.302 135.208 130.345 135.249C130.388 135.289 130.422 135.338 130.444 135.392C130.466 135.447 130.477 135.505 130.474 135.564C130.475 135.675 130.435 135.783 130.361 135.867C130.319 135.909 130.268 135.941 130.212 135.963C130.156 135.984 130.096 135.992 130.036 135.989L128.44 135.939L129.231 137.227C129.276 137.299 129.299 137.382 129.299 137.467C129.3 137.526 129.287 137.586 129.263 137.64C129.239 137.695 129.203 137.743 129.159 137.783C129.12 137.825 129.072 137.859 129.019 137.883C128.966 137.906 128.909 137.918 128.852 137.919C128.775 137.917 128.7 137.894 128.637 137.85C128.573 137.807 128.524 137.746 128.495 137.675L127.735 136.319L126.985 137.675C126.951 137.748 126.897 137.81 126.829 137.853C126.761 137.897 126.681 137.919 126.601 137.919Z" fill="#1E1D34"/>
<path d="M133.932 137.919C133.815 137.917 133.703 137.87 133.62 137.788C133.576 137.748 133.54 137.699 133.516 137.645C133.492 137.59 133.48 137.531 133.48 137.471C133.481 137.39 133.505 137.31 133.548 137.241L134.357 135.939L132.775 135.989C132.717 135.993 132.658 135.985 132.603 135.966C132.548 135.947 132.498 135.916 132.455 135.876C132.413 135.836 132.379 135.788 132.356 135.734C132.334 135.68 132.322 135.622 132.323 135.564C132.323 135.509 132.333 135.454 132.354 135.403C132.375 135.351 132.406 135.305 132.445 135.266C132.487 135.222 132.537 135.188 132.594 135.166C132.65 135.144 132.71 135.135 132.77 135.139L134.334 135.198L133.53 133.9C133.486 133.83 133.463 133.749 133.462 133.665C133.464 133.546 133.512 133.433 133.598 133.349C133.682 133.266 133.795 133.218 133.914 133.218C133.991 133.218 134.066 133.241 134.131 133.282C134.196 133.324 134.248 133.383 134.28 133.453L135.049 134.85L135.817 133.462C135.853 133.389 135.908 133.326 135.976 133.282C136.045 133.237 136.124 133.212 136.206 133.209C136.264 133.209 136.321 133.221 136.374 133.244C136.427 133.267 136.474 133.302 136.513 133.345C136.596 133.431 136.641 133.546 136.64 133.665C136.639 133.743 136.619 133.819 136.581 133.887L135.763 135.198L137.349 135.139C137.409 135.135 137.47 135.144 137.526 135.166C137.582 135.188 137.633 135.222 137.675 135.266C137.752 135.346 137.794 135.453 137.792 135.564C137.792 135.676 137.75 135.784 137.675 135.867C137.632 135.909 137.581 135.941 137.525 135.963C137.469 135.984 137.409 135.992 137.349 135.989L135.754 135.939L136.545 137.227C136.589 137.299 136.613 137.382 136.612 137.467C136.611 137.586 136.562 137.7 136.477 137.783C136.395 137.867 136.283 137.916 136.165 137.919C136.088 137.917 136.013 137.894 135.95 137.85C135.886 137.807 135.837 137.746 135.808 137.675L135.049 136.319L134.298 137.675C134.266 137.745 134.214 137.805 134.15 137.848C134.085 137.892 134.01 137.916 133.932 137.919Z" fill="#1E1D34"/>
<g style="mix-blend-mode:multiply">
<path d="M156.736 46.3481H76.7225V51.3608H156.736V46.3481Z" fill="#C0C039"/>
</g>
<path d="M125.43 37.1137H108.028C107.714 37.1137 107.413 36.9889 107.191 36.7669C106.969 36.5448 106.844 36.2436 106.844 35.9295C106.844 35.6154 106.969 35.3142 107.191 35.0921C107.413 34.87 107.714 34.7452 108.028 34.7452H125.43C125.744 34.7452 126.045 34.87 126.267 35.0921C126.489 35.3142 126.614 35.6154 126.614 35.9295C126.614 36.2436 126.489 36.5448 126.267 36.7669C126.045 36.9889 125.744 37.1137 125.43 37.1137Z" fill="#C0C039" stroke="#1E1D34" stroke-width="1.33739" stroke-linecap="round" stroke-linejoin="round"/>
<path d="M121.475 182.942C121.476 182.003 121.198 181.085 120.677 180.304C120.156 179.523 119.415 178.914 118.547 178.554C117.68 178.194 116.725 178.1 115.804 178.283C114.883 178.466 114.037 178.918 113.373 179.582C112.709 180.246 112.257 181.092 112.074 182.013C111.891 182.934 111.985 183.889 112.345 184.756C112.705 185.624 113.314 186.365 114.095 186.886C114.876 187.407 115.795 187.685 116.734 187.684C117.991 187.683 119.196 187.183 120.085 186.294C120.974 185.405 121.474 184.2 121.475 182.942Z" fill="#C0C039"/>
<path d="M119.138 180.538H114.329V185.347H119.138V180.538Z" fill="#C0C039" stroke="#1E1D34" stroke-width="1.33739" stroke-linecap="round" stroke-linejoin="round"/>
<path d="M174.02 128.368C174.02 128.368 167.719 112.358 173.328 110.455C179.168 108.471 178.911 119.043 178.685 124.196C178.21 135.207 176.994 137.254 176.086 134.565L174.02 128.368ZM172.126 140.857C173.857 143.117 174.345 140.775 171.222 130.203C169.758 125.231 166.576 115.174 161.694 118.948C157.007 122.564 168.162 135.672 168.162 135.672L172.126 140.857ZM168.781 150.032C170.431 151.497 170.463 149.648 166.544 142.014C164.704 138.439 160.813 131.202 157.626 134.782C154.566 138.235 164.994 146.629 164.994 146.629L168.781 150.032ZM165.165 160.944C166.815 162.413 166.847 160.559 162.928 152.93C161.088 149.354 157.197 142.113 154.01 145.698C150.968 149.16 161.364 157.554 161.364 157.554L165.165 160.944ZM175.607 138.732C172.967 139.763 175.064 140.884 186.088 140.852C191.259 140.852 201.818 140.617 199.567 134.872C197.411 129.353 181.709 136.382 181.709 136.382L175.607 138.732ZM172.601 146.073C169.807 146.556 171.643 148.075 182.454 150.236C187.521 151.253 197.913 153.129 196.851 147.072C195.834 141.232 179.046 145.002 179.046 145.002L172.601 146.073ZM169.238 155.036C166.86 155.38 168.379 156.704 177.469 158.783C181.731 159.759 190.477 161.59 189.718 156.424C188.995 151.452 174.712 154.263 174.712 154.263L169.238 155.036ZM166.684 163.339C164.356 163.931 166.006 165.088 175.272 166.191C179.611 166.707 188.502 167.602 187.205 162.544C185.953 157.689 172.049 161.988 172.049 161.988L166.684 163.339ZM180.307 129.724C178.951 132.761 181.767 132.3 191.341 123.947C195.825 120.029 204.819 111.829 197.696 107.748C190.857 103.824 183.503 122.754 183.503 122.754L180.307 129.724ZM167.037 174.156C165.604 174.992 167.01 175.317 173.582 174.006C176.664 173.396 182.933 172.04 180.814 169.364C178.762 166.788 170.354 172.212 170.354 172.212L167.037 174.156Z" fill="#C0C039"/>
<path opacity="0.3" d="M174.02 128.368C174.02 128.368 167.719 112.358 173.328 110.455C179.168 108.471 178.911 119.043 178.685 124.196C178.21 135.207 176.994 137.254 176.086 134.565L174.02 128.368ZM172.126 140.857C173.857 143.117 174.345 140.775 171.222 130.203C169.758 125.231 166.576 115.174 161.694 118.948C157.007 122.564 168.162 135.672 168.162 135.672L172.126 140.857ZM168.781 150.032C170.431 151.497 170.463 149.648 166.544 142.014C164.704 138.439 160.813 131.202 157.626 134.782C154.566 138.235 164.994 146.629 164.994 146.629L168.781 150.032ZM165.165 160.944C166.815 162.413 166.847 160.559 162.928 152.93C161.088 149.354 157.197 142.113 154.01 145.698C150.968 149.16 161.364 157.554 161.364 157.554L165.165 160.944ZM175.607 138.732C172.967 139.763 175.064 140.884 186.088 140.852C191.259 140.852 201.818 140.617 199.567 134.872C197.411 129.353 181.709 136.382 181.709 136.382L175.607 138.732ZM172.601 146.073C169.807 146.556 171.643 148.075 182.454 150.236C187.521 151.253 197.913 153.129 196.851 147.072C195.834 141.232 179.046 145.002 179.046 145.002L172.601 146.073ZM169.238 155.036C166.86 155.38 168.379 156.704 177.469 158.783C181.731 159.759 190.477 161.59 189.718 156.424C188.995 151.452 174.712 154.263 174.712 154.263L169.238 155.036ZM166.684 163.339C164.356 163.931 166.006 165.088 175.272 166.191C179.611 166.707 188.502 167.602 187.205 162.544C185.953 157.689 172.049 161.988 172.049 161.988L166.684 163.339ZM180.307 129.724C178.951 132.761 181.767 132.3 191.341 123.947C195.825 120.029 204.819 111.829 197.696 107.748C190.857 103.824 183.503 122.754 183.503 122.754L180.307 129.724ZM167.037 174.156C165.604 174.992 167.01 175.317 173.582 174.006C176.664 173.396 182.933 172.04 180.814 169.364C178.762 166.788 170.354 172.212 170.354 172.212L167.037 174.156Z" fill="white"/>
<path d="M176.8 135.821L175.701 117.547L176.8 135.821ZM173.324 141.851L166.381 126.135L173.324 141.851ZM191.241 137.281L174.603 139.668L191.241 137.281ZM169.726 150.322L160.718 138.764L169.726 150.322ZM171.308 146.778L183.72 147.402L171.308 146.778ZM168.37 155.642L177.862 156.582L168.37 155.642ZM166.078 161.274L161.364 154.182L166.078 161.274ZM165.536 163.778L176.696 163.882L165.536 163.778ZM163.276 184.714C163.351 184.709 163.42 184.673 163.469 184.617C163.518 184.56 163.543 184.486 163.538 184.411C162.828 173.753 166.951 156.297 173.563 141.969C177.79 132.811 194.355 114.813 194.532 114.632C194.585 114.578 194.615 114.506 194.615 114.431C194.615 114.355 194.585 114.283 194.532 114.229C194.506 114.203 194.475 114.182 194.441 114.168C194.406 114.154 194.37 114.147 194.333 114.147C194.296 114.147 194.259 114.154 194.225 114.168C194.191 114.182 194.16 114.203 194.134 114.229C193.967 114.41 177.333 132.477 173.071 141.716C166.336 156.392 162.268 173.532 162.991 184.448C162.997 184.52 163.029 184.587 163.082 184.636C163.135 184.686 163.204 184.713 163.276 184.714ZM176.795 136.102C176.87 136.097 176.94 136.063 176.99 136.007C177.04 135.951 177.066 135.878 177.062 135.803L175.982 117.52C175.98 117.483 175.971 117.446 175.955 117.413C175.939 117.379 175.916 117.349 175.888 117.324C175.861 117.299 175.828 117.28 175.793 117.268C175.758 117.256 175.721 117.251 175.683 117.253C175.609 117.258 175.539 117.292 175.489 117.348C175.439 117.404 175.413 117.477 175.417 117.552L176.515 135.826C176.519 135.898 176.55 135.966 176.602 136.015C176.654 136.065 176.723 136.093 176.795 136.093V136.102ZM173.423 142.109C173.491 142.078 173.544 142.022 173.571 141.953C173.598 141.884 173.597 141.807 173.568 141.738L166.621 126.022C166.591 125.954 166.535 125.9 166.465 125.873C166.396 125.846 166.318 125.848 166.25 125.877C166.182 125.907 166.128 125.963 166.101 126.033C166.074 126.102 166.075 126.18 166.105 126.248L173.048 141.964C173.07 142.015 173.106 142.058 173.152 142.088C173.197 142.119 173.251 142.135 173.306 142.136C173.353 142.138 173.399 142.129 173.441 142.109H173.423ZM174.626 139.939L191.255 137.562C191.295 137.561 191.334 137.552 191.371 137.534C191.407 137.517 191.439 137.492 191.465 137.462C191.491 137.431 191.511 137.396 191.522 137.357C191.533 137.319 191.536 137.278 191.531 137.238C191.526 137.199 191.512 137.16 191.49 137.126C191.469 137.092 191.441 137.063 191.408 137.041C191.374 137.018 191.337 137.003 191.297 136.996C191.257 136.99 191.217 136.991 191.178 137.001L174.549 139.379C174.475 139.384 174.405 139.418 174.356 139.474C174.307 139.53 174.282 139.603 174.287 139.677C174.291 139.751 174.326 139.821 174.382 139.87C174.437 139.919 174.511 139.944 174.585 139.939H174.626ZM169.884 150.548C169.943 150.501 169.982 150.433 169.991 150.359C170 150.285 169.98 150.209 169.934 150.15L160.921 138.57C160.875 138.51 160.807 138.471 160.732 138.461C160.657 138.451 160.581 138.472 160.521 138.518C160.461 138.564 160.422 138.632 160.412 138.707C160.402 138.782 160.423 138.858 160.469 138.918L169.5 150.516C169.526 150.55 169.56 150.577 169.598 150.596C169.637 150.615 169.679 150.624 169.721 150.624C169.789 150.621 169.853 150.594 169.902 150.548H169.884ZM183.969 147.415C183.971 147.341 183.944 147.268 183.893 147.213C183.842 147.158 183.772 147.125 183.697 147.121L171.308 146.493C171.238 146.498 171.173 146.528 171.124 146.578C171.075 146.628 171.046 146.694 171.043 146.764C171.04 146.833 171.062 146.902 171.106 146.956C171.15 147.01 171.212 147.047 171.281 147.058L183.693 147.686C183.768 147.689 183.84 147.662 183.895 147.611C183.95 147.56 183.983 147.49 183.987 147.415H183.969ZM178.124 156.609C178.129 156.572 178.125 156.534 178.115 156.498C178.105 156.462 178.087 156.429 178.063 156.4C178.04 156.371 178.011 156.346 177.978 156.329C177.945 156.311 177.908 156.3 177.871 156.297L168.379 155.361C168.342 155.358 168.305 155.361 168.27 155.372C168.234 155.383 168.201 155.4 168.173 155.424C168.144 155.447 168.12 155.476 168.103 155.509C168.086 155.542 168.075 155.578 168.072 155.615C168.065 155.689 168.088 155.762 168.136 155.82C168.183 155.877 168.251 155.914 168.325 155.922L177.817 156.862H177.844C177.917 156.867 177.989 156.843 178.045 156.796C178.1 156.749 178.135 156.682 178.142 156.609H178.124ZM166.214 161.509C166.277 161.467 166.32 161.402 166.336 161.329C166.351 161.255 166.336 161.178 166.295 161.115L161.604 154.024C161.561 153.962 161.496 153.92 161.422 153.906C161.349 153.892 161.273 153.906 161.21 153.947C161.148 153.988 161.104 154.053 161.089 154.127C161.073 154.2 161.088 154.277 161.129 154.34L165.821 161.432C165.848 161.471 165.883 161.502 165.925 161.524C165.967 161.546 166.013 161.558 166.06 161.558C166.122 161.562 166.182 161.544 166.232 161.509H166.214ZM176.981 163.882C176.979 163.807 176.95 163.736 176.898 163.683C176.845 163.63 176.775 163.599 176.7 163.597L165.54 163.493C165.466 163.493 165.395 163.522 165.342 163.575C165.29 163.628 165.26 163.699 165.26 163.773C165.259 163.811 165.265 163.848 165.279 163.883C165.293 163.917 165.313 163.949 165.339 163.976C165.365 164.002 165.397 164.023 165.431 164.037C165.466 164.052 165.503 164.059 165.54 164.058L176.7 164.162C176.738 164.164 176.777 164.158 176.812 164.145C176.848 164.131 176.881 164.111 176.909 164.085C176.937 164.059 176.959 164.027 176.974 163.992C176.99 163.958 176.998 163.92 176.999 163.882H176.981ZM162.006 180.569C162.028 180.52 163.931 175.277 169.654 174.025C169.727 174.008 169.792 173.963 169.832 173.9C169.873 173.836 169.887 173.759 169.871 173.686C169.852 173.613 169.807 173.551 169.744 173.511C169.681 173.472 169.605 173.458 169.532 173.473C163.497 174.793 161.495 180.33 161.472 180.384C161.449 180.456 161.455 180.533 161.487 180.601C161.52 180.668 161.578 180.72 161.649 180.746H161.739C161.799 180.751 161.859 180.737 161.911 180.705C161.962 180.673 162.002 180.626 162.024 180.569H162.006ZM163.276 184.714C163.351 184.709 163.42 184.673 163.469 184.617C163.518 184.56 163.543 184.486 163.538 184.411C162.828 173.753 166.951 156.297 173.563 141.969C177.79 132.811 194.355 114.813 194.532 114.632C194.585 114.578 194.615 114.506 194.615 114.431C194.615 114.355 194.585 114.283 194.532 114.229C194.506 114.203 194.475 114.182 194.441 114.168C194.406 114.154 194.37 114.147 194.333 114.147C194.296 114.147 194.259 114.154 194.225 114.168C194.191 114.182 194.16 114.203 194.134 114.229C193.967 114.41 177.333 132.477 173.071 141.716C166.336 156.392 162.268 173.532 162.991 184.448C162.997 184.52 163.029 184.587 163.082 184.636C163.135 184.686 163.204 184.713 163.276 184.714ZM176.795 136.102C176.87 136.097 176.94 136.063 176.99 136.007C177.04 135.951 177.066 135.878 177.062 135.803L175.982 117.52C175.98 117.483 175.971 117.446 175.955 117.413C175.939 117.379 175.916 117.349 175.888 117.324C175.861 117.299 175.828 117.28 175.793 117.268C175.758 117.256 175.721 117.251 175.683 117.253C175.609 117.258 175.539 117.292 175.489 117.348C175.439 117.404 175.413 117.477 175.417 117.552L176.515 135.826C176.519 135.898 176.55 135.966 176.602 136.015C176.654 136.065 176.723 136.093 176.795 136.093V136.102ZM173.423 142.109C173.491 142.078 173.544 142.022 173.571 141.953C173.598 141.884 173.597 141.807 173.568 141.738L166.621 126.022C166.591 125.954 166.535 125.9 166.465 125.873C166.396 125.846 166.318 125.848 166.25 125.877C166.182 125.907 166.128 125.963 166.101 126.033C166.074 126.102 166.075 126.18 166.105 126.248L173.048 141.964C173.07 142.015 173.106 142.058 173.152 142.088C173.197 142.119 173.251 142.135 173.306 142.136C173.353 142.138 173.399 142.129 173.441 142.109H173.423ZM174.626 139.939L191.255 137.562C191.295 137.561 191.334 137.552 191.371 137.534C191.407 137.517 191.439 137.492 191.465 137.462C191.491 137.431 191.511 137.396 191.522 137.357C191.533 137.319 191.536 137.278 191.531 137.238C191.526 137.199 191.512 137.16 191.49 137.126C191.469 137.092 191.441 137.063 191.408 137.041C191.374 137.018 191.337 137.003 191.297 136.996C191.257 136.99 191.217 136.991 191.178 137.001L174.549 139.379C174.475 139.384 174.405 139.418 174.356 139.474C174.307 139.53 174.282 139.603 174.287 139.677C174.291 139.751 174.326 139.821 174.382 139.87C174.437 139.919 174.511 139.944 174.585 139.939H174.626ZM169.884 150.548C169.943 150.501 169.982 150.433 169.991 150.359C170 150.285 169.98 150.209 169.934 150.15L160.921 138.57C160.898 138.54 160.87 138.515 160.837 138.496C160.805 138.478 160.769 138.466 160.732 138.461C160.695 138.456 160.657 138.459 160.621 138.468C160.585 138.478 160.551 138.495 160.521 138.518C160.491 138.541 160.466 138.569 160.448 138.601C160.429 138.634 160.417 138.67 160.412 138.707C160.407 138.744 160.41 138.782 160.42 138.818C160.429 138.854 160.446 138.888 160.469 138.918L169.5 150.516C169.526 150.55 169.56 150.577 169.598 150.596C169.637 150.615 169.679 150.624 169.721 150.624C169.789 150.621 169.853 150.594 169.902 150.548H169.884ZM183.969 147.415C183.971 147.341 183.944 147.268 183.893 147.213C183.842 147.158 183.772 147.125 183.697 147.121L171.308 146.493C171.238 146.498 171.173 146.528 171.124 146.578C171.075 146.628 171.046 146.694 171.043 146.764C171.04 146.833 171.062 146.902 171.106 146.956C171.15 147.01 171.212 147.047 171.281 147.058L183.693 147.686C183.768 147.689 183.84 147.662 183.895 147.611C183.95 147.56 183.983 147.49 183.987 147.415H183.969ZM178.124 156.609C178.129 156.572 178.125 156.534 178.115 156.498C178.105 156.462 178.087 156.429 178.063 156.4C178.04 156.371 178.011 156.346 177.978 156.329C177.945 156.311 177.908 156.3 177.871 156.297L168.379 155.361C168.342 155.358 168.305 155.361 168.27 155.372C168.234 155.383 168.201 155.4 168.173 155.424C168.144 155.447 168.12 155.476 168.103 155.509C168.086 155.542 168.075 155.578 168.072 155.615C168.065 155.689 168.088 155.762 168.136 155.82C168.183 155.877 168.251 155.914 168.325 155.922L177.817 156.862H177.844C177.917 156.867 177.989 156.843 178.045 156.796C178.1 156.749 178.135 156.682 178.142 156.609H178.124ZM166.214 161.509C166.277 161.467 166.32 161.402 166.336 161.329C166.351 161.255 166.336 161.178 166.295 161.115L161.604 154.024C161.561 153.962 161.496 153.92 161.422 153.906C161.349 153.892 161.273 153.906 161.21 153.947C161.148 153.988 161.104 154.053 161.089 154.127C161.073 154.2 161.088 154.277 161.129 154.34L165.821 161.432C165.848 161.471 165.883 161.502 165.925 161.524C165.967 161.546 166.013 161.558 166.06 161.558C166.122 161.562 166.182 161.544 166.232 161.509H166.214ZM176.981 163.882C176.979 163.807 176.95 163.736 176.898 163.683C176.845 163.63 176.775 163.599 176.7 163.597L165.54 163.493C165.466 163.493 165.395 163.522 165.342 163.575C165.29 163.628 165.26 163.699 165.26 163.773C165.259 163.811 165.265 163.848 165.279 163.883C165.293 163.917 165.313 163.949 165.339 163.976C165.365 164.002 165.397 164.023 165.431 164.037C165.466 164.052 165.503 164.059 165.54 164.058L176.7 164.162C176.738 164.164 176.777 164.158 176.812 164.145C176.848 164.131 176.881 164.111 176.909 164.085C176.937 164.059 176.959 164.027 176.974 163.992C176.99 163.958 176.998 163.92 176.999 163.882H176.981ZM162.006 180.569C162.028 180.52 163.931 175.277 169.654 174.025C169.727 174.008 169.792 173.963 169.832 173.9C169.873 173.836 169.887 173.759 169.871 173.686C169.852 173.613 169.807 173.551 169.744 173.511C169.681 173.472 169.605 173.458 169.532 173.473C163.497 174.793 161.495 180.33 161.472 180.384C161.449 180.456 161.455 180.533 161.487 180.601C161.52 180.668 161.578 180.72 161.649 180.746H161.739C161.799 180.751 161.859 180.737 161.911 180.705C161.962 180.673 162.002 180.626 162.024 180.569H162.006Z" fill="#C0C039"/>
<path opacity="0.2" d="M176.8 135.821L175.701 117.547L176.8 135.821ZM173.324 141.851L166.381 126.135L173.324 141.851ZM191.241 137.281L174.603 139.668L191.241 137.281ZM169.726 150.322L160.718 138.764L169.726 150.322ZM171.308 146.778L183.72 147.402L171.308 146.778ZM168.37 155.642L177.862 156.582L168.37 155.642ZM166.078 161.274L161.364 154.182L166.078 161.274ZM165.536 163.778L176.696 163.882L165.536 163.778ZM163.276 184.714C163.351 184.709 163.42 184.673 163.469 184.617C163.518 184.56 163.543 184.486 163.538 184.411C162.828 173.753 166.951 156.297 173.563 141.969C177.79 132.811 194.355 114.813 194.532 114.632C194.585 114.578 194.615 114.506 194.615 114.431C194.615 114.355 194.585 114.283 194.532 114.229C194.506 114.203 194.475 114.182 194.441 114.168C194.406 114.154 194.37 114.147 194.333 114.147C194.296 114.147 194.259 114.154 194.225 114.168C194.191 114.182 194.16 114.203 194.134 114.229C193.967 114.41 177.333 132.477 173.071 141.716C166.336 156.392 162.268 173.532 162.991 184.448C162.997 184.52 163.029 184.587 163.082 184.636C163.135 184.686 163.204 184.713 163.276 184.714ZM176.795 136.102C176.87 136.097 176.94 136.063 176.99 136.007C177.04 135.951 177.066 135.878 177.062 135.803L175.982 117.52C175.98 117.483 175.971 117.446 175.955 117.413C175.939 117.379 175.916 117.349 175.888 117.324C175.861 117.299 175.828 117.28 175.793 117.268C175.758 117.256 175.721 117.251 175.683 117.253C175.609 117.258 175.539 117.292 175.489 117.348C175.439 117.404 175.413 117.477 175.417 117.552L176.515 135.826C176.519 135.898 176.55 135.966 176.602 136.015C176.654 136.065 176.723 136.093 176.795 136.093V136.102ZM173.423 142.109C173.491 142.078 173.544 142.022 173.571 141.953C173.598 141.884 173.597 141.807 173.568 141.738L166.621 126.022C166.591 125.954 166.535 125.9 166.465 125.873C166.396 125.846 166.318 125.848 166.25 125.877C166.182 125.907 166.128 125.963 166.101 126.033C166.074 126.102 166.075 126.18 166.105 126.248L173.048 141.964C173.07 142.015 173.106 142.058 173.152 142.088C173.197 142.119 173.251 142.135 173.306 142.136C173.353 142.138 173.399 142.129 173.441 142.109H173.423ZM174.626 139.939L191.255 137.562C191.295 137.561 191.334 137.552 191.371 137.534C191.407 137.517 191.439 137.492 191.465 137.462C191.491 137.431 191.511 137.396 191.522 137.357C191.533 137.319 191.536 137.278 191.531 137.238C191.526 137.199 191.512 137.16 191.49 137.126C191.469 137.092 191.441 137.063 191.408 137.041C191.374 137.018 191.337 137.003 191.297 136.996C191.257 136.99 191.217 136.991 191.178 137.001L174.549 139.379C174.475 139.384 174.405 139.418 174.356 139.474C174.307 139.53 174.282 139.603 174.287 139.677C174.291 139.751 174.326 139.821 174.382 139.87C174.437 139.919 174.511 139.944 174.585 139.939H174.626ZM169.884 150.548C169.943 150.501 169.982 150.433 169.991 150.359C170 150.285 169.98 150.209 169.934 150.15L160.921 138.57C160.875 138.51 160.807 138.471 160.732 138.461C160.657 138.451 160.581 138.472 160.521 138.518C160.461 138.564 160.422 138.632 160.412 138.707C160.402 138.782 160.423 138.858 160.469 138.918L169.5 150.516C169.526 150.55 169.56 150.577 169.598 150.596C169.637 150.615 169.679 150.624 169.721 150.624C169.789 150.621 169.853 150.594 169.902 150.548H169.884ZM183.969 147.415C183.971 147.341 183.944 147.268 183.893 147.213C183.842 147.158 183.772 147.125 183.697 147.121L171.308 146.493C171.238 146.498 171.173 146.528 171.124 146.578C171.075 146.628 171.046 146.694 171.043 146.764C171.04 146.833 171.062 146.902 171.106 146.956C171.15 147.01 171.212 147.047 171.281 147.058L183.693 147.686C183.768 147.689 183.84 147.662 183.895 147.611C183.95 147.56 183.983 147.49 183.987 147.415H183.969ZM178.124 156.609C178.129 156.572 178.125 156.534 178.115 156.498C178.105 156.462 178.087 156.429 178.063 156.4C178.04 156.371 178.011 156.346 177.978 156.329C177.945 156.311 177.908 156.3 177.871 156.297L168.379 155.361C168.342 155.358 168.305 155.361 168.27 155.372C168.234 155.383 168.201 155.4 168.173 155.424C168.144 155.447 168.12 155.476 168.103 155.509C168.086 155.542 168.075 155.578 168.072 155.615C168.065 155.689 168.088 155.762 168.136 155.82C168.183 155.877 168.251 155.914 168.325 155.922L177.817 156.862H177.844C177.917 156.867 177.989 156.843 178.045 156.796C178.1 156.749 178.135 156.682 178.142 156.609H178.124ZM166.214 161.509C166.277 161.467 166.32 161.402 166.336 161.329C166.351 161.255 166.336 161.178 166.295 161.115L161.604 154.024C161.561 153.962 161.496 153.92 161.422 153.906C161.349 153.892 161.273 153.906 161.21 153.947C161.148 153.988 161.104 154.053 161.089 154.127C161.073 154.2 161.088 154.277 161.129 154.34L165.821 161.432C165.848 161.471 165.883 161.502 165.925 161.524C165.967 161.546 166.013 161.558 166.06 161.558C166.122 161.562 166.182 161.544 166.232 161.509H166.214ZM176.981 163.882C176.979 163.807 176.95 163.736 176.898 163.683C176.845 163.63 176.775 163.599 176.7 163.597L165.54 163.493C165.466 163.493 165.395 163.522 165.342 163.575C165.29 163.628 165.26 163.699 165.26 163.773C165.259 163.811 165.265 163.848 165.279 163.883C165.293 163.917 165.313 163.949 165.339 163.976C165.365 164.002 165.397 164.023 165.431 164.037C165.466 164.052 165.503 164.059 165.54 164.058L176.7 164.162C176.738 164.164 176.777 164.158 176.812 164.145C176.848 164.131 176.881 164.111 176.909 164.085C176.937 164.059 176.959 164.027 176.974 163.992C176.99 163.958 176.998 163.92 176.999 163.882H176.981ZM162.006 180.569C162.028 180.52 163.931 175.277 169.654 174.025C169.727 174.008 169.792 173.963 169.832 173.9C169.873 173.836 169.887 173.759 169.871 173.686C169.852 173.613 169.807 173.551 169.744 173.511C169.681 173.472 169.605 173.458 169.532 173.473C163.497 174.793 161.495 180.33 161.472 180.384C161.449 180.456 161.455 180.533 161.487 180.601C161.52 180.668 161.578 180.72 161.649 180.746H161.739C161.799 180.751 161.859 180.737 161.911 180.705C161.962 180.673 162.002 180.626 162.024 180.569H162.006ZM163.276 184.714C163.351 184.709 163.42 184.673 163.469 184.617C163.518 184.56 163.543 184.486 163.538 184.411C162.828 173.753 166.951 156.297 173.563 141.969C177.79 132.811 194.355 114.813 194.532 114.632C194.585 114.578 194.615 114.506 194.615 114.431C194.615 114.355 194.585 114.283 194.532 114.229C194.506 114.203 194.475 114.182 194.441 114.168C194.406 114.154 194.37 114.147 194.333 114.147C194.296 114.147 194.259 114.154 194.225 114.168C194.191 114.182 194.16 114.203 194.134 114.229C193.967 114.41 177.333 132.477 173.071 141.716C166.336 156.392 162.268 173.532 162.991 184.448C162.997 184.52 163.029 184.587 163.082 184.636C163.135 184.686 163.204 184.713 163.276 184.714ZM176.795 136.102C176.87 136.097 176.94 136.063 176.99 136.007C177.04 135.951 177.066 135.878 177.062 135.803L175.982 117.52C175.98 117.483 175.971 117.446 175.955 117.413C175.939 117.379 175.916 117.349 175.888 117.324C175.861 117.299 175.828 117.28 175.793 117.268C175.758 117.256 175.721 117.251 175.683 117.253C175.609 117.258 175.539 117.292 175.489 117.348C175.439 117.404 175.413 117.477 175.417 117.552L176.515 135.826C176.519 135.898 176.55 135.966 176.602 136.015C176.654 136.065 176.723 136.093 176.795 136.093V136.102ZM173.423 142.109C173.491 142.078 173.544 142.022 173.571 141.953C173.598 141.884 173.597 141.807 173.568 141.738L166.621 126.022C166.591 125.954 166.535 125.9 166.465 125.873C166.396 125.846 166.318 125.848 166.25 125.877C166.182 125.907 166.128 125.963 166.101 126.033C166.074 126.102 166.075 126.18 166.105 126.248L173.048 141.964C173.07 142.015 173.106 142.058 173.152 142.088C173.197 142.119 173.251 142.135 173.306 142.136C173.353 142.138 173.399 142.129 173.441 142.109H173.423ZM174.626 139.939L191.255 137.562C191.295 137.561 191.334 137.552 191.371 137.534C191.407 137.517 191.439 137.492 191.465 137.462C191.491 137.431 191.511 137.396 191.522 137.357C191.533 137.319 191.536 137.278 191.531 137.238C191.526 137.199 191.512 137.16 191.49 137.126C191.469 137.092 191.441 137.063 191.408 137.041C191.374 137.018 191.337 137.003 191.297 136.996C191.257 136.99 191.217 136.991 191.178 137.001L174.549 139.379C174.475 139.384 174.405 139.418 174.356 139.474C174.307 139.53 174.282 139.603 174.287 139.677C174.291 139.751 174.326 139.821 174.382 139.87C174.437 139.919 174.511 139.944 174.585 139.939H174.626ZM169.884 150.548C169.943 150.501 169.982 150.433 169.991 150.359C170 150.285 169.98 150.209 169.934 150.15L160.921 138.57C160.898 138.54 160.87 138.515 160.837 138.496C160.805 138.478 160.769 138.466 160.732 138.461C160.695 138.456 160.657 138.459 160.621 138.468C160.585 138.478 160.551 138.495 160.521 138.518C160.491 138.541 160.466 138.569 160.448 138.601C160.429 138.634 160.417 138.67 160.412 138.707C160.407 138.744 160.41 138.782 160.42 138.818C160.429 138.854 160.446 138.888 160.469 138.918L169.5 150.516C169.526 150.55 169.56 150.577 169.598 150.596C169.637 150.615 169.679 150.624 169.721 150.624C169.789 150.621 169.853 150.594 169.902 150.548H169.884ZM183.969 147.415C183.971 147.341 183.944 147.268 183.893 147.213C183.842 147.158 183.772 147.125 183.697 147.121L171.308 146.493C171.238 146.498 171.173 146.528 171.124 146.578C171.075 146.628 171.046 146.694 171.043 146.764C171.04 146.833 171.062 146.902 171.106 146.956C171.15 147.01 171.212 147.047 171.281 147.058L183.693 147.686C183.768 147.689 183.84 147.662 183.895 147.611C183.95 147.56 183.983 147.49 183.987 147.415H183.969ZM178.124 156.609C178.129 156.572 178.125 156.534 178.115 156.498C178.105 156.462 178.087 156.429 178.063 156.4C178.04 156.371 178.011 156.346 177.978 156.329C177.945 156.311 177.908 156.3 177.871 156.297L168.379 155.361C168.342 155.358 168.305 155.361 168.27 155.372C168.234 155.383 168.201 155.4 168.173 155.424C168.144 155.447 168.12 155.476 168.103 155.509C168.086 155.542 168.075 155.578 168.072 155.615C168.065 155.689 168.088 155.762 168.136 155.82C168.183 155.877 168.251 155.914 168.325 155.922L177.817 156.862H177.844C177.917 156.867 177.989 156.843 178.045 156.796C178.1 156.749 178.135 156.682 178.142 156.609H178.124ZM166.214 161.509C166.277 161.467 166.32 161.402 166.336 161.329C166.351 161.255 166.336 161.178 166.295 161.115L161.604 154.024C161.561 153.962 161.496 153.92 161.422 153.906C161.349 153.892 161.273 153.906 161.21 153.947C161.148 153.988 161.104 154.053 161.089 154.127C161.073 154.2 161.088 154.277 161.129 154.34L165.821 161.432C165.848 161.471 165.883 161.502 165.925 161.524C165.967 161.546 166.013 161.558 166.06 161.558C166.122 161.562 166.182 161.544 166.232 161.509H166.214ZM176.981 163.882C176.979 163.807 176.95 163.736 176.898 163.683C176.845 163.63 176.775 163.599 176.7 163.597L165.54 163.493C165.466 163.493 165.395 163.522 165.342 163.575C165.29 163.628 165.26 163.699 165.26 163.773C165.259 163.811 165.265 163.848 165.279 163.883C165.293 163.917 165.313 163.949 165.339 163.976C165.365 164.002 165.397 164.023 165.431 164.037C165.466 164.052 165.503 164.059 165.54 164.058L176.7 164.162C176.738 164.164 176.777 164.158 176.812 164.145C176.848 164.131 176.881 164.111 176.909 164.085C176.937 164.059 176.959 164.027 176.974 163.992C176.99 163.958 176.998 163.92 176.999 163.882H176.981ZM162.006 180.569C162.028 180.52 163.931 175.277 169.654 174.025C169.727 174.008 169.792 173.963 169.832 173.9C169.873 173.836 169.887 173.759 169.871 173.686C169.852 173.613 169.807 173.551 169.744 173.511C169.681 173.472 169.605 173.458 169.532 173.473C163.497 174.793 161.495 180.33 161.472 180.384C161.449 180.456 161.455 180.533 161.487 180.601C161.52 180.668 161.578 180.72 161.649 180.746H161.739C161.799 180.751 161.859 180.737 161.911 180.705C161.962 180.673 162.002 180.626 162.024 180.569H162.006Z" fill="#7B7896"/>
<path d="M170.657 176.746H157.861V179.394H158.977L161.287 193.845H167.231L169.541 179.394H170.657V176.746Z" fill="#C0C039"/>
<path opacity="0.3" d="M170.657 176.746H157.861V179.394H158.977L161.287 193.845H167.231L169.541 179.394H170.657V176.746Z" fill="white"/>
<path d="M55.4514 96.6511L40.567 91.7921L39.2427 88.2937L36.2188 88.1988L30.7315 87.1591L31.3914 88.2937L38.298 93.3063L40.002 94.1561L55.5689 102.288L55.4514 96.6511Z" fill="white" stroke="#1E1D34" stroke-width="1.00396" stroke-miterlimit="10"/>
<path d="M39.2426 88.2937L37.8234 87.4439L34.9893 88.4835L35.4594 89.0485L39.2426 88.2937Z" fill="white" stroke="#1E1D34" stroke-width="1.00396" stroke-linejoin="round"/>
<path d="M55.4514 96.6511L40.567 91.7921L39.2427 88.2937L36.2188 88.1988L30.7315 87.1591L31.3914 88.2937L38.298 93.3063L40.002 94.1561L55.5689 102.288L55.4514 96.6511Z" fill="white"/>
<path opacity="0.5" d="M55.4514 96.6511L40.567 91.7921L39.2427 88.2937L36.2188 88.1988L30.7315 87.1591L31.3914 88.2937L38.298 93.3063L40.002 94.1561L55.5689 102.288L55.4514 96.6511Z" fill="#C0C039" stroke="#1E1D34" stroke-width="1.00396" stroke-miterlimit="10"/>
<path d="M55.4514 96.6511L40.567 91.7921L39.2427 88.2937L36.2188 88.1988L30.7315 87.1591L31.3914 88.2937L38.298 93.3063L40.002 94.1561L55.5689 102.288L55.4514 96.6511Z" stroke="#1E1D34" stroke-width="1.00396" stroke-miterlimit="10"/>
<path d="M39.2426 88.2937L37.8234 87.4439L34.9893 88.4835L35.4594 89.0485L39.2426 88.2937Z" fill="white"/>
<path opacity="0.5" d="M39.2426 88.2937L37.8234 87.4439L34.9893 88.4835L35.4594 89.0485L39.2426 88.2937Z" fill="#C0C039" stroke="#1E1D34" stroke-width="1.00396" stroke-linejoin="round"/>
<path d="M39.2426 88.2937L37.8234 87.4439L34.9893 88.4835L35.4594 89.0485L39.2426 88.2937Z" stroke="#1E1D34" stroke-width="1.00396" stroke-linejoin="round"/>
<path d="M58.6108 65.1151C58.6108 65.1151 58.3803 67.1491 58.9544 68.4554C59.5284 69.7617 62.715 74.1868 62.715 74.1868L56.7667 78.9554C56.7667 78.9554 54.2987 73.9834 53.8287 73.1788C53.3586 72.3742 52.7936 68.9119 54.3259 66.4304C55.8582 63.949 58.0639 63.28 58.6108 65.1151Z" fill="white"/>
<g style="mix-blend-mode:multiply" opacity="0.5">
<path d="M55.5553 71.651L58.1362 77.0027L56.7621 78.9599L54.1677 74.3269L55.5553 71.651Z" fill="#C0C039"/>
</g>
<path d="M58.6108 65.1151C58.6108 65.1151 58.3803 67.1491 58.9544 68.4554C59.5284 69.7617 62.715 74.1868 62.715 74.1868L56.7667 78.9554C56.7667 78.9554 54.2987 73.9834 53.8287 73.1788C53.3586 72.3742 52.7936 68.9119 54.3259 66.4304C55.8582 63.949 58.0639 63.28 58.6108 65.1151Z" stroke="#1E1D34" stroke-width="1.00396" stroke-miterlimit="10"/>
<path d="M60.455 61.3906C60.0889 59.1306 57.499 54.5338 53.3903 54.7101C50.7235 54.8276 49.476 55.3655 48.3188 56.0209C47.3756 56.5766 46.4965 57.2344 45.6972 57.9826C43.6904 60.3917 42.9852 61.0516 43.374 62.8958C43.3421 63.6314 43.4573 64.3659 43.713 65.0564C44.3277 66.6971 44.748 67.7684 45.2814 68.5503C45.1187 69.3142 44.6938 71.3301 44.6712 71.7912C44.6486 72.2522 46.0272 71.9313 46.7233 71.755C48.016 74.6478 50.3845 76.6547 51.1212 76.8852C52.4049 77.2875 54.4344 75.1766 55.5101 73.5404C56.5859 71.9042 55.7723 70.0645 55.7768 69.3323C55.7814 68.6 58.195 66.9909 59.09 66.4802C59.9849 65.9694 60.8166 63.6461 60.455 61.3906Z" fill="white"/>
<g style="mix-blend-mode:multiply" opacity="0.5">
<path d="M43.392 62.8958C43.3601 63.6314 43.4753 64.3659 43.731 65.0564C44.3457 66.6971 44.7661 67.7684 45.2994 68.5503C45.1367 69.3142 44.7118 71.3301 44.6892 71.7912C44.6666 72.2522 46.0452 71.9313 46.7413 71.755C48.034 74.6478 50.4025 76.6547 51.1393 76.8852C52.4229 77.2875 54.4524 75.1766 55.5282 73.5404C55.7969 73.1319 55.9714 72.6687 56.0389 72.1844C55.9802 71.972 55.9395 71.8409 55.9395 71.8409C55.9395 71.8409 55.3338 74.1687 54.1315 73.8658C52.9292 73.563 51.0895 71.1538 50.0635 70.3222C49.0375 69.4905 49.4578 68.3966 49.2544 67.1582C49.051 65.9197 46.0136 64.8304 45.8102 64.1207C45.6068 63.4111 46.3164 60.4731 46.3164 60.4731C46.3164 60.4731 47.469 58.9363 47.2204 59.5691C47.0447 60.1178 46.981 60.6962 47.033 61.2699C47.085 61.8437 47.2517 62.4012 47.5233 62.9094C47.7138 63.3103 48.016 63.6477 48.3937 63.881C48.7713 64.1144 49.2083 64.2337 49.6522 64.2247L50.7551 58.76L48.4273 56.8345L45.7153 57.9645C43.6903 60.3917 42.9987 61.0516 43.392 62.8958Z" fill="#C0C039"/>
</g>
<path d="M60.455 61.3906C60.0889 59.1306 57.499 54.5338 53.3903 54.7101C50.7235 54.8276 49.476 55.3655 48.3188 56.0209C47.3756 56.5766 46.4965 57.2344 45.6972 57.9826C43.6904 60.3917 42.9852 61.0516 43.374 62.8958C43.3421 63.6314 43.4573 64.3659 43.713 65.0564C44.3277 66.6971 44.748 67.7684 45.2814 68.5503C45.1187 69.3142 44.6938 71.3301 44.6712 71.7912C44.6486 72.2522 46.0272 71.9313 46.7233 71.755C48.016 74.6478 50.3845 76.6547 51.1212 76.8852C52.4049 77.2875 54.4344 75.1766 55.5101 73.5404C56.5859 71.9042 55.7723 70.0645 55.7768 69.3323C55.7814 68.6 58.195 66.9909 59.09 66.4802C59.9849 65.9694 60.8166 63.6461 60.455 61.3906Z" stroke="#1E1D34" stroke-miterlimit="10"/>
<path d="M45.8419 67.1853L46.2939 68.478C46.2939 68.478 47.2657 68.7989 48.4499 67.5062" stroke="#1E1D34" stroke-miterlimit="10" stroke-linecap="round"/>
<path d="M49.1821 73.224C49.1821 73.224 50.2579 73.1155 50.6918 71.6058" stroke="#1E1D34" stroke-miterlimit="10" stroke-linecap="round"/>
<path d="M45.087 66.105C45.087 66.105 45.408 65.1332 47.347 65.1332" stroke="#1E1D34" stroke-miterlimit="10" stroke-linecap="round"/>
<path d="M55.0265 52.9111C53.6175 52.7085 52.1966 52.5998 50.7731 52.5857C50.7731 52.5857 46.5153 50.1313 42.4247 52.7484C38.3341 55.3655 40.3003 59.9488 40.3003 61.0923C40.3003 62.2359 38.9895 62.2404 39.8076 63.7139C40.6257 65.1874 43.392 64.3738 43.392 64.3738C43.4212 63.8181 43.5681 63.2748 43.8229 62.7801C44.0777 62.2853 44.4346 61.8502 44.87 61.5036C46.3435 60.3601 47.5187 60.1115 48.0069 60.4414C48.0069 60.4414 47.6815 62.8958 48.1696 63.8766C48.1696 63.8766 49.8059 64.6948 50.2985 64.6948C50.7912 64.6948 49.9776 65.3863 51.6093 66.001C51.9066 66.1078 52.2246 66.1442 52.5383 66.1073C52.852 66.0705 53.1529 65.9614 53.4173 65.7886C53.6569 64.7942 54.1812 63.2981 55.1575 63.6461C56.5904 64.1569 57.8967 67.6825 55.9576 68.8848C58.2899 69.3097 61.1149 65.1829 61.2822 61.4223C61.4494 57.6616 57.4492 53.336 55.0265 52.9111Z" fill="#1E1D34"/>
<path d="M48.0792 58.8278C48.0792 58.8278 49.2815 58.1814 50.7551 59.5646C52.2286 60.9477 55.0943 62.7964 58.8911 61.7794" stroke="white" stroke-width="0.5" stroke-linecap="round" stroke-linejoin="round"/>
<path d="M47.912 57.7204C47.912 57.7204 48.7391 56.4277 50.1223 56.4277C51.5054 56.4277 54.7372 58.3668 57.3181 58.3668" stroke="white" stroke-width="0.5" stroke-linecap="round" stroke-linejoin="round"/>
<path d="M46.9718 60.2109C46.9718 60.2109 45.4034 58.2764 43.9299 59.8448C42.4563 61.4132 43.392 62.8958 43.392 62.8958" stroke="white" stroke-width="0.5" stroke-linecap="round" stroke-linejoin="round"/>
<path d="M40.7026 61.5037C41.6014 60.6931 42.1601 59.5724 42.2665 58.3668C42.4518 56.3373 45.2226 54.5835 46.9718 56.2469" stroke="white" stroke-width="0.5" stroke-linecap="round" stroke-linejoin="round"/>
<path d="M43.5592 54.1225C43.5592 54.1225 46.33 51.4466 48.6352 54.8592" stroke="white" stroke-width="0.5" stroke-linecap="round" stroke-linejoin="round"/>
<path d="M66.1095 185.686C66.1095 185.686 67.8136 188.335 67.6237 190.039L67.4384 191.743C67.4384 191.743 61.1872 193.456 59.8629 193.456C58.5385 193.456 51.528 192.792 51.528 192.792L51.2252 191.589C51.204 191.5 51.214 191.407 51.2535 191.325C51.293 191.242 51.3596 191.176 51.4421 191.137L57.6933 188.222L59.664 186.066L66.1095 185.686Z" fill="white" stroke="#1E1D34" stroke-width="1.00396" stroke-miterlimit="10"/>
<path d="M60.8121 192.123C62.5071 192.254 65.7253 191.219 67.5921 190.559L67.461 191.743C67.461 191.743 61.1872 193.456 59.8629 193.456C58.5385 193.456 51.528 192.792 51.528 192.792L51.311 191.933C52.432 191.937 58.5702 191.951 60.8121 192.123Z" fill="#C0C039" stroke="#1E1D34" stroke-width="1.00396" stroke-miterlimit="10"/>
<path d="M57.7023 188.222L48.6035 192.181C48.6035 192.181 47.8261 194.13 48.6035 194.518C49.381 194.907 66.331 194.518 66.331 194.518C66.331 194.518 67.5016 191.44 65.653 189.374C63.8043 187.309 57.7023 188.222 57.7023 188.222Z" fill="white" stroke="#1E1D34" stroke-width="1.00396" stroke-miterlimit="10"/>
<path d="M66.331 194.518C66.331 194.518 49.381 194.907 48.6036 194.518C48.2284 194.328 48.2148 193.781 48.3007 193.262H66.6293C66.5694 193.689 66.4695 194.11 66.331 194.518Z" fill="#C0C039" stroke="#1E1D34" stroke-width="1.00396" stroke-miterlimit="10"/>
<path d="M53.3993 119.423C53.3993 119.423 51.0217 129.959 50.1223 136.549C49.2228 143.139 48.6939 156.342 48.8838 157.856C49.0736 159.371 58.5385 184.741 58.5385 184.741L59.4832 187.001L66.1095 185.677C66.1095 185.677 63.0811 176.022 61.9466 170.72C60.8121 165.418 58.3306 156.708 58.3306 155.194C58.3306 153.68 64.2066 124.761 64.6269 122.863C65.0473 120.964 66.9547 118.049 66.9547 118.049L54.2671 117.791L53.3993 119.423Z" fill="#C0C039" stroke="#1E1D34" stroke-width="1.00396" stroke-miterlimit="10"/>
<path d="M53.3993 119.423C53.3993 119.423 52.0071 129.046 52.5812 135.736C53.1552 142.425 54.3892 156.668 54.3892 158.788C54.3892 160.907 57.8108 173.568 58.0052 177.546C58.308 183.291 57.8831 186.134 57.8831 186.134L57.6797 188.217C57.6797 188.217 61.6709 188.787 62.5433 189.035C63.5508 189.295 64.5906 189.408 65.6304 189.37C65.6304 189.37 67.0813 182.983 67.0813 177.541C67.0813 172.099 65.8745 160.898 65.2733 156.36C64.6722 151.822 66.5661 134.316 67.6418 131.048C68.7176 127.78 71.068 120.86 69.486 117.326C67.904 113.791 53.3993 119.423 53.3993 119.423Z" fill="#C0C039" stroke="#1E1D34" stroke-width="1.00396" stroke-miterlimit="10"/>
<path d="M71.2442 115.554L71.0996 119.857C71.0996 119.857 68.5232 120.368 65.0518 120.969C62.1862 121.466 54.9903 120.838 52.5676 120.603C52.3468 120.583 52.1427 120.477 51.9996 120.308C51.8566 120.139 51.7862 119.92 51.8037 119.699L52.0388 115.811L71.2442 115.554Z" fill="#1E1D34"/>
<path d="M61.1737 72.659C61.1737 72.659 57.1057 77.0569 55.5734 79.7915C54.0411 82.5261 53.4354 86.7162 52.8614 90.0158C52.2873 93.3154 53.8422 101.063 53.4038 104.62L52.0161 115.825C52.0161 115.825 51.7178 116.584 52.7167 117.416C53.7157 118.248 58.5927 118.551 62.9997 118.772C64.6089 118.853 69.4136 117.818 70.2001 117.769C71.1493 117.71 71.1809 116.503 71.2216 115.554C71.4115 111.093 72.216 99.2004 72.7449 94.0205C73.8342 83.4573 67.8723 73.2601 61.1737 72.659Z" fill="white" stroke="#1E1D34" stroke-width="1.00396" stroke-miterlimit="10"/>
<g style="mix-blend-mode:multiply">
<path d="M72.2477 100.028C72.4285 97.6817 72.6093 95.5528 72.7675 94.0205C72.8127 93.5685 72.8398 93.1165 72.8624 92.6645L62.0551 94.4725L52.771 91.3085C52.772 93.2296 52.8807 95.1491 53.0964 97.058L62.2042 99.6072L72.2477 100.028Z" fill="#C0C039"/>
</g>
<g style="mix-blend-mode:multiply">
<path d="M60.7714 73.102C60.1566 73.7845 58.9362 75.1721 57.7746 76.6456L64.636 83.62L66.896 82.716L60.7714 73.102Z" fill="#C0C039"/>
</g>
<path d="M61.1737 72.659C61.1737 72.659 57.1057 77.0569 55.5734 79.7916C55.119 80.6226 54.751 81.498 54.475 82.4041L62.6562 72.9528C62.1729 72.8064 61.6763 72.708 61.1737 72.659Z" fill="#1E1D34"/>
<g style="mix-blend-mode:multiply">
<path d="M53.1778 88.2349L62.0551 91.1548L72.8353 89.9163C72.6663 87.2309 72.0697 84.5896 71.068 82.0922L62.376 85.5772L54.6061 82.0561C53.9708 84.0756 53.4932 86.1414 53.1778 88.2349Z" fill="#C0C039"/>
</g>
<g style="mix-blend-mode:multiply">
<path d="M68.4599 111.093C63.9574 111.849 59.3375 111.471 55.0175 109.994L52.8524 109.253L52.1789 114.677L54.6468 115.368C59.3384 116.68 64.242 117.058 69.0792 116.48L71.0725 116.241C71.1762 116.021 71.2346 115.783 71.2443 115.54C71.2985 114.333 71.3934 112.58 71.5155 110.568L68.4599 111.093Z" fill="#C0C039"/>
</g>
<g style="mix-blend-mode:multiply">
<path d="M69.6668 103.707C65.1641 104.466 60.543 104.087 56.2243 102.604L53.4671 101.659C53.5355 102.644 53.5219 103.633 53.4264 104.615L53.1055 107.223L55.8536 107.992C60.5434 109.305 65.4455 109.684 70.2815 109.108L71.6375 108.946C71.7505 107.138 71.8815 105.212 72.0217 103.309L69.6668 103.707Z" fill="#C0C039"/>
</g>
<path d="M27.2607 84.5927L36.0002 91.6195L36.3769 91.151L27.6373 84.1242L27.2607 84.5927Z" fill="#1E1D34"/>
<path d="M65.3818 77.5361C65.3818 77.5361 68.5865 79.7192 68.6588 84.8766C68.6904 87.1366 68.4554 89.2474 67.9356 92.9493C67.4158 96.6512 64.1885 108.706 61.6754 110.17C59.1623 111.635 55.2615 108.869 55.2615 108.869L36.395 96.3438L31.8343 92.66L29.5743 88.3931L30.284 87.0371L35.8481 91.304L32.8513 88.5332L33.4389 87.7874L34.5237 88.5423L37.6877 89.7265L38.3793 94.2465L39.3556 94.9155L57.404 101.51C57.404 101.51 57.178 91.7967 57.3452 89.939C57.5125 88.0812 57.743 83.4121 59.7318 80.0266" fill="white"/>
<g style="mix-blend-mode:multiply" opacity="0.5">
<path d="M57.2775 94.1697C57.2775 97.5235 57.3905 101.51 57.3905 101.51L39.3602 94.9426L38.3839 94.2736L37.6923 89.7536L34.5283 88.5694L33.448 87.801L32.8604 88.5468L35.8481 91.304L30.284 87.0371L29.6105 88.3705L31.8705 92.6374L36.4312 96.3438L37.5793 97.1077L62.5071 105.14L57.2775 94.1697Z" fill="#C0C039"/>
</g>
<path d="M65.3818 77.5361C65.3818 77.5361 68.5865 79.7192 68.6588 84.8766C68.6904 87.1366 68.4554 89.2474 67.9356 92.9493C67.4158 96.6512 64.1885 108.706 61.6754 110.17C59.1623 111.635 55.2615 108.869 55.2615 108.869L36.395 96.3438L31.8343 92.66L29.5743 88.3931L30.284 87.0371L35.8481 91.304L32.8513 88.5332L33.4389 87.7874L34.5237 88.5423L37.6877 89.7265L38.3793 94.2465L39.3556 94.9155L57.404 101.51C57.404 101.51 57.178 91.7967 57.3452 89.939C57.5125 88.0812 57.743 83.4121 59.7318 80.0266" stroke="#1E1D34" stroke-width="1.00396" stroke-miterlimit="10"/>
<path d="M57.404 101.51L64.2925 106.482L66.0779 103.318C66.0779 103.318 67.3119 102.346 67.4927 101.614C67.6735 100.882 67.4429 99.6931 67.6283 98.9609C67.8136 98.2286 68.7357 97.5416 68.8215 95.7697C68.9074 93.9979 68.8215 92.5199 68.8215 92.5199C68.8215 92.5199 70.3131 86.3862 70.1504 83.7194C69.9877 81.0526 67.4158 76.3383 65.3547 76.2343C63.2936 76.1304 60.6132 76.4422 58.534 79.5881C56.4548 82.7341 56.8797 91.9187 56.5543 92.4927C56.2288 93.0668 56.6808 95.9008 56.6808 95.9008C56.5002 96.0356 56.3503 96.2072 56.2412 96.4044C56.1321 96.6016 56.0662 96.8198 56.048 97.0444C56.0119 97.7811 56.8074 99.5937 56.8074 99.5937L57.404 101.51Z" fill="white" stroke="#1E1D34" stroke-width="1.00396" stroke-miterlimit="10"/>
<g style="mix-blend-mode:multiply">
<path d="M56.735 90.1333C56.7492 90.9221 56.6902 91.7104 56.5588 92.4882C56.2695 93.0035 56.5994 95.3313 56.6718 95.8059C60.5462 97.0093 64.6431 97.3184 68.6543 96.7099C68.7405 96.3956 68.792 96.0727 68.808 95.7472C68.8984 93.9798 68.808 92.4973 68.808 92.4973C68.808 92.4973 68.939 91.9504 69.1198 91.1187C64.9657 91.3827 60.7952 91.0509 56.735 90.1333Z" fill="#C0C039"/>
</g>
<g style="mix-blend-mode:multiply">
<path d="M58.2538 80.0899C57.6074 81.3871 57.2458 83.3352 57.0379 85.3105C61.1412 86.8765 65.5653 87.4149 69.9244 86.8789C70.0983 85.8336 70.1755 84.7744 70.1549 83.7149C70.0767 82.8774 69.8788 82.0555 69.5673 81.2741C65.7611 81.363 61.9591 80.965 58.2538 80.0899Z" fill="#C0C039"/>
</g>
<path d="M56.8074 99.6434L57.3905 101.51L64.2789 106.482L66.0643 103.318C66.0643 103.318 67.2983 102.346 67.4791 101.614C67.5113 101.487 67.531 101.357 67.5378 101.225C63.9078 101.163 60.3011 100.631 56.8074 99.6434Z" fill="#1E1D34"/>
<path d="M61.7929 188.977C61.7929 188.977 61.9466 185.062 62.6969 179.34C63.4472 173.618 61.6437 165.491 61.3409 164.135C61.038 162.779 61.4946 159.768 61.1917 158.711C60.8889 157.653 59.4244 153.142 60.2877 147.908C61.151 142.674 61.8516 128.838 61.8516 128.838C61.8516 128.838 59.6775 127.071 59.0402 124.77C58.4029 122.469 58.891 121.746 58.891 121.746" stroke="#1E1D34" stroke-width="1.00396" stroke-miterlimit="10"/>
<path d="M62.8009 121.959L61.9647 126.587" stroke="#1E1D34" stroke-width="1.00396" stroke-miterlimit="10"/>
</svg>
