<svg width="190" height="48" viewBox="0 0 190 48" fill="none" xmlns="http://www.w3.org/2000/svg">
<path d="M6.84 22.96H0.12V19H18.42V22.96H11.7V40H6.84V22.96ZM33.8102 35.5H24.0602L22.2002 40H17.2202L26.5802 19H31.3802L40.7702 40H35.6702L33.8102 35.5ZM32.2802 31.81L28.9502 23.77L25.6202 31.81H32.2802ZM55.095 40L50.025 32.71L45.045 40H39.465L47.235 29.32L39.855 19H45.375L50.205 25.81L54.945 19H60.195L52.875 29.14L60.705 40H55.095ZM62.6072 19H67.4672V40H62.6072V19ZM90.997 40.36C88.857 40.36 86.917 39.9 85.177 38.98C83.457 38.04 82.097 36.75 81.097 35.11C80.117 33.45 79.627 31.58 79.627 29.5C79.627 27.42 80.117 25.56 81.097 23.92C82.097 22.26 83.457 20.97 85.177 20.05C86.917 19.11 88.867 18.64 91.027 18.64C92.847 18.64 94.487 18.96 95.947 19.6C97.427 20.24 98.667 21.16 99.667 22.36L96.547 25.24C95.127 23.6 93.367 22.78 91.267 22.78C89.967 22.78 88.807 23.07 87.787 23.65C86.767 24.21 85.967 25 85.387 26.02C84.827 27.04 84.547 28.2 84.547 29.5C84.547 30.8 84.827 31.96 85.387 32.98C85.967 34 86.767 34.8 87.787 35.38C88.807 35.94 89.967 36.22 91.267 36.22C93.367 36.22 95.127 35.39 96.547 33.73L99.667 36.61C98.667 37.83 97.427 38.76 95.947 39.4C94.467 40.04 92.817 40.36 90.997 40.36ZM116.369 35.5H106.619L104.759 40H99.7788L109.139 19H113.939L123.329 40H118.229L116.369 35.5ZM114.839 31.81L111.509 23.77L108.179 31.81H114.839ZM140.928 29.08C142.128 29.46 143.068 30.1 143.748 31C144.428 31.88 144.768 32.97 144.768 34.27C144.768 36.11 144.048 37.53 142.608 38.53C141.188 39.51 139.108 40 136.368 40H125.508V19H135.768C138.328 19 140.288 19.49 141.648 20.47C143.028 21.45 143.718 22.78 143.718 24.46C143.718 25.48 143.468 26.39 142.968 27.19C142.488 27.99 141.808 28.62 140.928 29.08ZM130.338 22.66V27.61H135.168C136.368 27.61 137.278 27.4 137.898 26.98C138.518 26.56 138.828 25.94 138.828 25.12C138.828 24.3 138.518 23.69 137.898 23.29C137.278 22.87 136.368 22.66 135.168 22.66H130.338ZM136.008 36.34C137.288 36.34 138.248 36.13 138.888 35.71C139.548 35.29 139.878 34.64 139.878 33.76C139.878 32.02 138.588 31.15 136.008 31.15H130.338V36.34H136.008ZM163.867 29.08C165.067 29.46 166.007 30.1 166.687 31C167.367 31.88 167.707 32.97 167.707 34.27C167.707 36.11 166.987 37.53 165.547 38.53C164.127 39.51 162.047 40 159.307 40H148.447V19H158.707C161.267 19 163.227 19.49 164.587 20.47C165.967 21.45 166.657 22.78 166.657 24.46C166.657 25.48 166.407 26.39 165.907 27.19C165.427 27.99 164.747 28.62 163.867 29.08ZM153.277 22.66V27.61H158.107C159.307 27.61 160.217 27.4 160.837 26.98C161.457 26.56 161.767 25.94 161.767 25.12C161.767 24.3 161.457 23.69 160.837 23.29C160.217 22.87 159.307 22.66 158.107 22.66H153.277ZM158.947 36.34C160.227 36.34 161.187 36.13 161.827 35.71C162.487 35.29 162.817 34.64 162.817 33.76C162.817 32.02 161.527 31.15 158.947 31.15H153.277V36.34H158.947ZM181.027 32.56V40H176.167V32.5L168.037 19H173.197L178.807 28.33L184.417 19H189.187L181.027 32.56Z" fill="#C9C900"/>
<g clip-path="url(#clip0_239_1122)">
<path d="M172.805 12.9655C172.205 12.9655 171.717 13.4535 171.717 14.0533C171.717 14.6531 172.205 15.141 172.805 15.141C173.405 15.141 173.893 14.653 173.893 14.0533C173.893 13.4535 173.405 12.9655 172.805 12.9655ZM172.805 14.4894C172.564 14.4894 172.369 14.2937 172.369 14.0533C172.369 13.8128 172.564 13.6171 172.805 13.6171C173.045 13.6171 173.241 13.8128 173.241 14.0533C173.241 14.2938 173.045 14.4894 172.805 14.4894Z" fill="#C9C900"/>
<path d="M184.176 12.9655C183.576 12.9655 183.088 13.4535 183.088 14.0533C183.088 14.6531 183.576 15.141 184.176 15.141C184.776 15.141 185.264 14.653 185.264 14.0533C185.264 13.4535 184.776 12.9655 184.176 12.9655ZM184.176 14.4894C183.936 14.4894 183.74 14.2937 183.74 14.0533C183.74 13.8128 183.936 13.6171 184.176 13.6171C184.417 13.6171 184.612 13.8128 184.612 14.0533C184.612 14.2938 184.417 14.4894 184.176 14.4894Z" fill="#C9C900"/>
<path d="M186.444 9.19958L183.537 8.86747L181.986 6.3454C181.512 5.57526 180.656 5.09683 179.752 5.09683H174.474C172.957 5.09683 171.616 6.1185 171.213 7.58141L171.172 7.73107C170.972 8.45798 170.397 9.03659 169.671 9.2412C169.08 9.40793 168.667 9.95338 168.667 10.5677V14.1739C168.667 14.3538 168.813 14.4997 168.993 14.4997H170.668C170.874 15.4901 171.754 16.2364 172.805 16.2364C173.856 16.2364 174.735 15.4901 174.942 14.4997H182.039C182.246 15.4901 183.125 16.2364 184.176 16.2364C185.227 16.2364 186.107 15.4901 186.313 14.4997H188.072C188.237 14.4997 188.377 14.3754 188.395 14.2108L188.651 11.9743C188.807 10.6014 187.817 9.35667 186.444 9.19958ZM169.318 13.4522H170.706C170.67 13.5798 170.644 13.7121 170.631 13.8481H169.318V13.4522ZM172.805 15.5848C171.96 15.5848 171.273 14.8978 171.273 14.0533C171.273 13.2088 171.96 12.5217 172.805 12.5217C173.649 12.5217 174.336 13.2088 174.336 14.0533C174.336 14.8978 173.649 15.5848 172.805 15.5848ZM184.176 15.5848C183.332 15.5848 182.645 14.8978 182.645 14.0533C182.645 13.2088 183.332 12.5217 184.176 12.5217C185.021 12.5217 185.708 13.2088 185.708 14.0533C185.708 14.8978 185.021 15.5848 184.176 15.5848ZM184.176 11.87C183.438 11.87 182.785 12.2384 182.39 12.8006H176.592C176.412 12.8006 176.266 12.9464 176.266 13.1264C176.266 13.3063 176.412 13.4522 176.592 13.4522H182.078C182.041 13.5798 182.016 13.7121 182.003 13.8481H174.978C174.874 12.7401 173.939 11.87 172.805 11.87C172.067 11.87 171.414 12.2384 171.018 12.8006H169.318V10.5677C169.318 10.2438 169.536 9.95625 169.848 9.86837C170.792 9.60224 171.54 8.84957 171.8 7.90401L171.841 7.75435C172.166 6.57334 173.249 5.74846 174.474 5.74846H179.752C180.431 5.74846 181.075 6.10803 181.431 6.68681L183.065 9.34389C183.118 9.42913 183.207 9.48551 183.306 9.4969L186.37 9.847C187.066 9.92654 187.628 10.3829 187.876 10.9885H186.859C186.679 10.9885 186.534 11.1344 186.534 11.3143C186.534 11.4942 186.679 11.6401 186.859 11.6401H188.014C188.016 11.7259 188.013 11.8128 188.003 11.9005L187.9 12.8006H185.962C185.567 12.2384 184.914 11.87 184.176 11.87ZM186.349 13.8481C186.337 13.7121 186.311 13.5798 186.274 13.4522H187.826L187.781 13.8481H186.349Z" fill="#C9C900"/>
<path d="M179.769 10.0163H179.084C178.904 10.0163 178.759 10.1622 178.759 10.3422C178.759 10.5221 178.904 10.668 179.084 10.668H179.769C179.949 10.668 180.095 10.5221 180.095 10.3422C180.095 10.1622 179.949 10.0163 179.769 10.0163Z" fill="#C9C900"/>
<path d="M175.394 10.3422C175.394 10.1622 175.248 10.0163 175.068 10.0163H174.383C174.203 10.0163 174.057 10.1622 174.057 10.3422C174.057 10.5221 174.203 10.668 174.383 10.668H175.068C175.248 10.668 175.394 10.5221 175.394 10.3422Z" fill="#C9C900"/>
<path d="M175.797 13.0016C175.74 12.8664 175.595 12.7814 175.448 12.8041C175.316 12.8247 175.209 12.9244 175.179 13.0551C175.114 13.3379 175.441 13.5574 175.68 13.3952C175.806 13.3093 175.855 13.1426 175.797 13.0016C175.789 12.9821 175.805 13.0216 175.797 13.0016Z" fill="#C9C900"/>
<path d="M181.092 6.89585C180.808 6.43376 180.295 6.14669 179.752 6.14669H174.474C173.427 6.14669 172.503 6.85119 172.225 7.86018L172.184 8.00953C172.077 8.3986 171.912 9.06691 171.905 9.09519C171.881 9.19241 171.903 9.29528 171.965 9.37417C172.027 9.45302 172.121 9.49911 172.221 9.49911H182.11C182.228 9.49911 182.337 9.4353 182.395 9.33225C182.452 9.22921 182.45 9.1031 182.388 9.00257L181.092 6.89585ZM177.327 6.79828V8.8474H174.327V6.80484C174.376 6.80058 174.425 6.79828 174.474 6.79828H177.327ZM172.813 8.18221L172.854 8.03273C172.978 7.58115 173.282 7.21432 173.676 7.00111V8.84735H172.639C172.694 8.63049 172.761 8.36992 172.813 8.18221ZM177.979 8.8474V6.79828H179.752C180.07 6.79828 180.37 6.96631 180.537 7.23704L181.528 8.8474H177.979Z" fill="#C9C900"/>
</g>
<defs>
<clipPath id="clip0_239_1122">
<rect width="20" height="20" fill="white" transform="translate(168.667 0.666656)"/>
</clipPath>
</defs>
</svg>
