<svg width="30" height="30" viewBox="0 0 30 30" fill="none" xmlns="http://www.w3.org/2000/svg">
<path d="M16.8577 20.5269L10.9973 19.2405M16.8577 20.5269L21.7414 21.599L20.6704 19.9254C20.5265 19.7006 20.4284 19.4497 20.3815 19.187C20.3347 18.9243 20.34 18.6549 20.3973 18.3942L21.0744 15.3097C21.3406 14.0975 21.2246 12.8326 20.7422 11.6891C20.2598 10.5457 19.4348 9.57984 18.3808 8.92465L18.4539 8.59158C18.5676 8.07348 18.4708 7.53143 18.1849 7.08466C17.899 6.63789 17.4473 6.32301 16.9292 6.20928C16.4111 6.09555 15.869 6.19229 15.4223 6.47822C14.9755 6.76415 14.6606 7.21585 14.5469 7.73395L14.4738 8.06702C12.0213 8.37229 9.9135 10.1855 9.35346 12.7368L8.67615 15.8223C8.5608 16.3478 8.24093 16.8069 7.7871 17.0974L6.11353 18.1684L10.9973 19.2405L16.8577 20.5269ZM16.8577 20.5269L16.6433 21.5037C16.4727 22.2808 16.0004 22.9584 15.3302 23.3873C14.6601 23.8162 13.847 23.9613 13.0699 23.7907C12.2927 23.6201 11.6152 23.1478 11.1863 22.4776C10.7574 21.8075 10.6123 20.9944 10.7828 20.2172L10.9973 19.2405L16.8577 20.5269Z" stroke="#434255" stroke-width="2" stroke-linecap="round" stroke-linejoin="round"/>
</svg>
